<?xml version="1.0" standalone="no"?>
<!DOCTYPE svg PUBLIC "-//W3C//DTD SVG 1.1//EN" "http://www.w3.org/Graphics/SVG/1.1/DTD/svg11.dtd" >
<svg>
<metadata>
Created by FontForge 20090914 at Thu Oct 20 11:58:34 2011
 By www-data
Digitized data copyright The Monotype Corporation 1991-1995. All rights reserved. Bookman Old Style&#226;&#132;&#162; is a trademark of The Monotype Corporation which may be registered in certain jurisdictions.
</metadata>
<defs>
<font id="BookmanOldStyle" horiz-adv-x="1454" >
  <font-face 
    font-family="Bookman Old Style"
    font-weight="300"
    font-stretch="normal"
    units-per-em="2048"
    panose-1="2 5 6 4 5 5 5 2 2 4"
    ascent="1638"
    descent="-410"
    x-height="965"
    cap-height="1395"
    bbox="-381 -651 2697 2031"
    underline-thickness="123"
    underline-position="-195"
    unicode-range="U+0020-U+F108"
  />
<missing-glyph horiz-adv-x="1536" 
d="M256 0v1280h1024v-1280h-1024zM288 32h960v1216h-960v-1216z" />
    <glyph glyph-name=".notdef" horiz-adv-x="1536" 
d="M256 0v1280h1024v-1280h-1024zM288 32h960v1216h-960v-1216z" />
    <glyph glyph-name="space" unicode=" " horiz-adv-x="655" 
 />
    <glyph glyph-name="exclam" unicode="!" horiz-adv-x="614" 
d="M264 335l-75.999 894c-2.66699 25.333 -4 41.333 -4 48c0 48.667 10.667 84.5 32 107.5s52.666 34.5 93.999 34.5c36 0 65.167 -11 87.5 -33s33.5 -51.667 33.5 -89c0 -12 -1.66699 -32 -5 -60l-80 -902h-82zM307.001 233c35.333 0 65.168 -12.167 89.501 -36.5
s36.5 -53.833 36.5 -88.5s-12.333 -64.167 -37 -88.5s-54.334 -36.5 -89.001 -36.5c-34 0 -63.333 12.167 -88 36.5s-37 53.833 -37 88.5s12.167 64.167 36.5 88.5s53.833 36.5 88.5 36.5z" />
    <glyph glyph-name="quotedbl" unicode="&#x22;" horiz-adv-x="778" 
d="M201 905l-48 350.001c-2 17.333 -3 35.666 -3 54.999c0 37.333 7.16699 64.833 21.5 82.5s33.5 26.5 57.5 26.5c22 0 39.833 -8 53.5 -24s20.5 -39.667 20.5 -71c0 -18 -2.33301 -40 -7 -66l-54 -353h-41zM526 905.001l-47 350.001c-2.66699 17.333 -4 35.333 -4 54
c0 38 7.16699 65.833 21.5 83.5s33.5 26.5 57.5 26.5c22.667 0 40.667 -8 54 -24s20 -39 20 -69c0 -18.667 -2 -41.334 -6 -68.001l-55 -353h-41z" />
    <glyph glyph-name="numbersign" unicode="#" horiz-adv-x="1229" 
d="M1061 559v-117h-219l-65 -443h-119l65 443h-273l-62 -443h-122l67 443h-218v117h236l37 271h-217v116h239l62 417h115l-61 -417h272l61 417h118l-61 -417h196v-117h-213l-40 -270h202zM781 829h-273l-40 -270h271z" />
    <glyph glyph-name="dollar" unicode="$" horiz-adv-x="1270" 
d="M580 1620l96.002 0.00292969v-237c46.667 -6 87.5 -16.667 122.5 -32s70.833 -38.333 107.5 -69l44 88h70l103 -405l-90 -31c-35.333 78.667 -71.333 142 -108 190s-73.834 84.833 -111.501 110.5s-83.5 45.167 -137.5 58.5v-487l132 -46c78 -27.333 124 -44.333 138 -51
c41.333 -20 80 -46.833 116 -80.5s63.167 -71.334 81.5 -113.001s27.5 -85.834 27.5 -132.501c0 -67.333 -18.833 -129.333 -56.5 -186s-95 -103.334 -172 -140.001s-165.833 -55.667 -266.5 -57v-240h-96v250c-53.333 12.667 -102.833 31.167 -148.5 55.5
s-91.834 57.5 -138.501 99.5l-48 -138h-70l-90 482l90 19c42 -93.333 80.833 -164 116.5 -212s76.667 -88.833 123 -122.5s101.5 -61.5 165.5 -83.5v549c-18.667 6.66699 -52 17.667 -100 33c-62.667 20.667 -103.667 35.667 -123 45
c-49.333 23.333 -93.166 52.666 -131.499 87.999s-65.833 70.833 -82.5 106.5s-25 73.834 -25 114.501c0 61.333 17.667 118.5 53 171.5s88.666 95.667 159.999 128s154.333 48.833 249 49.5v225zM580.002 1302c-51.333 0.666992 -94.6689 -5.33008 -130.002 -17.9971
c-49.333 -18 -88.666 -44.5 -117.999 -79.5s-44 -75.167 -44 -120.5c0 -34.667 8.16699 -66.334 24.5 -95.001s43.333 -54.334 81 -77.001s99.834 -48.334 186.501 -77.001v467zM675.999 99.0059c52 -0.666992 98.333 6.66602 139 21.999
c57.333 21.333 101.833 52.5 133.5 93.5s47.5 87.5 47.5 139.5c0 60.667 -22.333 112.834 -67 156.501s-129 82.5 -253 116.5v-528z" />
    <glyph glyph-name="percent" unicode="%" horiz-adv-x="1843" 
d="M399 1419c98 0 175 -31.666 231 -94.999c62 -70 93 -165.333 93 -286c0 -114 -30.833 -204.167 -92.5 -270.5s-141.5 -99.5 -239.5 -99.5c-102 0 -183.333 39 -244 117c-50 64.667 -75 151 -75 259c0 119.333 30 211.666 90 276.999s139 98 237 98zM397 1355
c-35.333 0 -66.3311 -10.167 -92.998 -30.5s-49.167 -56.333 -67.5 -108s-27.5 -112.167 -27.5 -181.5c0 -68 8.33301 -124.667 25 -170s39.167 -78.833 67.5 -100.5s59.166 -32.5 92.499 -32.5c34 0 65.667 10.833 95 32.5s52.666 56.167 69.999 103.5s26 106 26 176
c0 93.333 -15.833 168.5 -47.5 225.5s-78.5 85.5 -140.5 85.5zM1446 1419l-929 -1443h-120l928 1443h121zM1448 726.001c98 0 174.999 -31.6699 230.999 -95.0029c61.333 -69.333 92 -164.666 92 -285.999c0 -113.333 -30.833 -203.166 -92.5 -269.499
s-141.5 -99.5 -239.5 -99.5c-102 0 -183 38.667 -243 116c-50 64.667 -75 151.334 -75 260.001c0 119.333 29.833 211.5 89.5 276.5s138.834 97.5 237.501 97.5zM1445 662.998c-34.667 0 -65.5 -10.167 -92.5 -30.5s-49.667 -56.333 -68 -108s-27.5 -112.167 -27.5 -181.5
c0 -68 8.5 -124.833 25.5 -170.5s39.667 -79.167 68 -100.5s58.833 -32 91.5 -32c34.667 0 66.5 10.833 95.5 32.5s52.167 56 69.5 103s26 105.5 26 175.5c0 94 -15.667 169.5 -47 226.5s-78.333 85.5 -141 85.5z" />
    <glyph glyph-name="ampersand" unicode="&#x26;" horiz-adv-x="1638" 
d="M1020 881l466.006 0.000976562v-85h-56c-40.667 0 -68 -2.83301 -82 -8.5s-26.333 -15.5 -37 -29.5s-18.334 -35.333 -23.001 -64c-24.667 -142 -75 -273 -151 -393c13.333 -36.667 35.666 -75 66.999 -115s58.666 -66.667 81.999 -80s48.333 -20 75 -20
c34 0 62.333 10.5 85 31.5s34 45.5 34 73.5c0 23.333 -4.33301 41.666 -13 54.999c-9.33301 13.333 -29 27.333 -59 42c-24 12 -41 25.667 -51 41s-15 32.333 -15 51c0 26.667 8.5 48.334 25.5 65.001s39.5 25 67.5 25c47.333 0 88.5 -20.5 123.5 -61.5
s52.5 -92.833 52.5 -155.5c0 -74.667 -28.333 -139.5 -85 -194.5s-125 -82.5 -205 -82.5c-54.667 0 -106.5 13.667 -155.5 41s-97.5 74 -145.5 140c-68 -60.667 -128 -103.334 -180 -128.001c-74.667 -35.333 -155.667 -53 -243 -53c-96.667 0 -183.334 19.5 -260.001 58.5
s-135.834 91.5 -177.501 157.5s-62.5 138 -62.5 216c0 73.333 17.5 140 52.5 200s87.5 113.333 157.5 160c51.333 34 114.666 63 189.999 87c-55.333 22.667 -97.333 46.667 -126 72s-50.667 54.666 -66 87.999s-23 69.333 -23 108c0 80.667 31 148.334 93 203.001
c70 62 154 93 252 93c96.667 0 176.667 -28.333 240 -85s95 -123.667 95 -201c0 -52 -13 -100.167 -39 -144.5s-62.333 -80.833 -109 -109.5c-29.333 -19.333 -68 -34.666 -116 -45.999c58 -18.667 107 -43.167 147 -73.5s81.167 -74.5 123.5 -132.5
s83.5 -131.667 123.5 -221c64.667 143.333 97 250.666 97 321.999c0 24 -7.33301 41.333 -22 52s-44 16 -88 16h-59v85zM627.006 1327c-54 0 -99.333 -19.333 -136 -58s-55 -89 -55 -151c0 -60.667 18.5 -110.667 55.5 -150s82.167 -59 135.5 -59
c52 0 96.833 19.667 134.5 59s56.5 88.333 56.5 147c0 62.667 -18.5 113.667 -55.5 153s-82.167 59 -135.5 59zM586.006 806.001c-82 -40.667 -132.334 -68 -151.001 -82c-30.667 -22 -58 -49.167 -82 -81.5s-41.667 -65 -53 -98s-17 -67.5 -17 -103.5
c0 -84 28 -159.667 84 -227c71.333 -86 161.666 -129 270.999 -129c54 0 106.333 11.667 157 35c70 33.333 127.333 72.666 172 117.999c-5.33301 8.66699 -13.666 24.334 -24.999 47.001l-157 308c-13.333 26.667 -31.666 57.667 -54.999 93c-14.667 22 -33.5 43 -56.5 63
s-52.167 39 -87.5 57z" />
    <glyph glyph-name="quotesingle" unicode="'" horiz-adv-x="451" 
d="M200 905l-48 350.001c-2 17.333 -3 35.666 -3 54.999c0 37.333 7.16699 64.833 21.5 82.5s33.5 26.5 57.5 26.5c22 0 39.833 -8 53.5 -24s20.5 -39.667 20.5 -71c0 -18 -2.33301 -40 -7 -66l-54 -353h-41z" />
    <glyph glyph-name="parenleft" unicode="(" horiz-adv-x="614" 
d="M493 1457l63.001 -61.998c-36 -38 -66 -84.667 -90 -140c-35.333 -83.333 -60.833 -181.166 -76.5 -293.499s-23.5 -270.833 -23.5 -475.5c0 -210.667 7.33301 -368.667 22 -474s39.667 -199 75 -281c24 -57.333 55 -106.333 93 -147l-63 -57
c-64.667 57.333 -121.167 129.666 -169.5 216.999s-84.333 188.166 -108 302.499s-35.5 267.5 -35.5 459.5c0 191.333 13.167 344.5 39.5 459.5s69.166 222.5 128.499 322.5c44.667 75.333 93 131.666 145 168.999z" />
    <glyph glyph-name="parenright" unicode=")" horiz-adv-x="614" 
d="M122 -473l-62.999 63.002c36.667 37.333 66.667 84 90 140c35.333 82.667 60.833 180.167 76.5 292.5s23.5 271.166 23.5 476.499c0 210 -7.33301 367.667 -22 473s-39.334 199 -74.001 281c-24.667 57.333 -56 106.333 -94 147l63 57
c64.667 -56.667 121.167 -128.834 169.5 -216.501s84.333 -188.5 108 -302.5s35.5 -267.333 35.5 -460c0 -191.333 -13 -344.333 -39 -459s-68.667 -222 -128 -322c-45.333 -76 -94 -132.667 -146 -170z" />
    <glyph glyph-name="asterisk" unicode="*" horiz-adv-x="901" 
d="M428 1116l-43.0029 153.003c-6 19.333 -9 38.666 -9 57.999c0 30 6.83301 52.833 20.5 68.5s31.834 23.5 54.501 23.5s39.334 -7 50.001 -21c15.333 -19.333 23 -44.333 23 -75c0 -16 -2.66699 -34 -8 -54l-40 -153l40 -30l129 90c32 23.333 61.667 35 89 35
c26 0 46 -7.33301 60 -22s21 -34.334 21 -59.001c0 -22 -11.667 -41.833 -35 -59.5s-53.333 -26.5 -90 -26.5h-159l-15 -52l129 -97c41.333 -31.333 62 -67 62 -107c0 -17.333 -8.16699 -33.5 -24.5 -48.5s-34.5 -22.5 -54.5 -22.5c-12 0 -28 7.16699 -48 21.5
s-36.333 39.166 -49 74.499l-55 152h-48l-55 -152c-12 -32.667 -27.167 -57.167 -45.5 -73.5s-35.5 -24.5 -51.5 -24.5c-20 0 -38.167 7.83301 -54.5 23.5s-24.5 31.167 -24.5 46.5c0 39.333 21.333 76 64 110l124 97l-12 52h-161c-38 0 -68.5 8.5 -91.5 25.5
s-34.5 36.5 -34.5 58.5c0 22.667 6.83301 41.5 20.5 56.5s30.834 22.5 51.501 22.5c35.333 0 67.333 -10.333 96 -31l131 -90z" />
    <glyph glyph-name="plus" unicode="+" horiz-adv-x="1229" 
d="M1102 759v-123h-426v-426h-123v426h-426v123h426v426h123v-426h426z" />
    <glyph glyph-name="comma" unicode="," horiz-adv-x="655" 
d="M221 -362l-54 66c136.667 111.333 205 204.333 205 279c0 8.66699 -0.666992 19.334 -2 32.001c-11.333 -4.66699 -22.333 -8.33398 -33 -11.001s-20.667 -4 -30 -4c-32 -0 -57.667 10.333 -77 31s-29 47 -29 79c0 31.333 11.667 58.666 35 81.999s51.333 35 84 35
c45.333 0 84.166 -18.167 116.499 -54.5s48.5 -83.166 48.5 -140.499c0 -37.333 -7.66699 -76.5 -23 -117.5s-37.666 -79 -66.999 -114s-87.333 -89.167 -174 -162.5z" />
    <glyph glyph-name="hyphen" unicode="-" horiz-adv-x="819" 
d="M112 571h594v-124h-594v124z" />
    <glyph glyph-name="hyphen" unicode="&#xad;" horiz-adv-x="819" 
d="M112 571h594v-124h-594v124z" />
    <glyph glyph-name="period" unicode="." horiz-adv-x="655" 
d="M327 233c35.333 0 65.168 -12.167 89.501 -36.5s36.5 -53.833 36.5 -88.5s-12.333 -64.167 -37 -88.5s-54.334 -36.5 -89.001 -36.5c-34 0 -63.333 12.167 -88 36.5s-37 53.833 -37 88.5s12.167 64.167 36.5 88.5s53.833 36.5 88.5 36.5z" />
    <glyph glyph-name="slash" unicode="/" horiz-adv-x="1229" 
d="M1001 1467l-683 -1913h-148l679 1913h152z" />
    <glyph glyph-name="zero" unicode="0" horiz-adv-x="1270" 
d="M638 1419c102.667 0 192.333 -26.167 269 -78.5s139 -134.5 187 -246.5s72 -247.667 72 -407c0 -236 -59 -419.667 -177 -551c-96 -106.667 -217.333 -160 -364 -160c-99.333 0 -187.333 26.5 -264 79.5s-138.667 132.5 -186 238.5s-71 240.667 -71 404
c0 164.667 23.167 299 69.5 403s109.5 183 189.5 237s171.667 81 275 81zM632.999 1320c-69.333 0 -130.332 -25.334 -182.999 -76.001c-46 -44 -82.333 -113.333 -109 -208c-30.667 -108 -46 -227.333 -46 -358c0 -101.333 9.5 -193.166 28.5 -275.499
s44.167 -146.333 75.5 -192s66.833 -79.5 106.5 -101.5s81.5 -33 125.5 -33c66 0 127.667 25.667 185 77c46 42 82.333 104.667 109 188c32 101.333 48 220.333 48 357c0 141.333 -16.333 261.333 -49 360s-72.834 167 -120.501 205s-104.5 57 -170.5 57z" />
    <glyph glyph-name="one" unicode="1" horiz-adv-x="1270" 
d="M688 1395l74.999 0.00195312v-1158c0 -54.667 3.5 -89.834 10.5 -105.501s18.5 -27.5 34.5 -35.5s47.667 -12 95 -12h98v-84h-659v84h109c47.333 0 78.833 4.16699 94.5 12.5s27.834 21.666 36.501 39.999s13 51.833 13 100.5v952h-253v86
c138 19.333 253.333 59.333 346 120z" />
    <glyph glyph-name="two" unicode="2" horiz-adv-x="1270" 
d="M232 869l-96.999 -12.001c-5.33301 47.333 -8 86 -8 116c0 78.667 21.333 153 64 223s102.167 124.667 178.5 164s163.833 59 262.5 59c95.333 0 179 -18.5 251 -55.5s127.167 -87.667 165.5 -152s57.5 -137.833 57.5 -220.5c0 -70 -12.5 -134.833 -37.5 -194.5
s-65.167 -119.834 -120.5 -180.501c-41.333 -45.333 -125 -114.666 -251 -207.999c-158.667 -118.667 -280.334 -204.667 -365.001 -258h520c61.333 0 101.333 5.66699 120 17c26 14.667 43.667 48.667 53 102l9 57h85l-68 -376h-64l-11 50h-874v84l160 121
c121.333 90 210.333 159 267 207c107.333 90.667 188.166 168.167 242.499 232.5s91.666 122.333 111.999 174s30.5 105.834 30.5 162.501c0 94 -30.167 171 -90.5 231s-138.833 90 -235.5 90c-69.333 0 -131.166 -15 -185.499 -45s-97.166 -72 -128.499 -126
s-47 -112.333 -47 -175c0 -23.333 1.66699 -52.333 5 -87z" />
    <glyph glyph-name="three" unicode="3" horiz-adv-x="1270" 
d="M271 1022l-96.002 14.9961c8.66699 72 27.334 131.667 56.001 179c38 64 91.667 113.833 161 149.5s149 53.5 239 53.5c88.667 0 166.667 -15.833 234 -47.5s118.166 -73.667 152.499 -126s51.5 -108.833 51.5 -169.5c0 -53.333 -13 -101 -39 -143
s-64.667 -79.667 -116 -113c-36 -23.333 -83 -43.666 -141 -60.999c62 -8.66699 112.667 -23 152 -43c64 -32.667 114.333 -77.667 151 -135s55 -120.333 55 -189c0 -110 -48.333 -206.833 -145 -290.5s-221.667 -125.5 -375 -125.5
c-151.333 0 -278.666 40.333 -381.999 121c-86.667 68.667 -130 137.667 -130 207c0 27.333 8.83301 50.166 26.5 68.499s39.834 27.5 66.501 27.5c29.333 0 54.333 -11.333 75 -34c11.333 -12.667 24.333 -43 39 -91c20.667 -67.333 55.667 -118.666 105 -153.999
s110.666 -53 183.999 -53c65.333 0 123.833 14.333 175.5 43s92.5 69.334 122.5 122.001s45 110.334 45 173.001c0 50.667 -10.833 96.167 -32.5 136.5s-52.5 74.5 -92.5 102.5c-30.667 22 -69.834 37.333 -117.501 46s-90.5 13 -128.5 13h-93v97h59
c58.667 0 114.667 6.83301 168 20.5s96 41.834 128 84.501s48 91 48 145c0 46.667 -11.167 88.667 -33.5 126s-55.166 67 -98.499 89s-93.333 33 -150 33c-55.333 0 -106.166 -11.333 -152.499 -34s-83.5 -53 -111.5 -91s-48 -88.667 -60 -152z" />
    <glyph glyph-name="four" unicode="4" horiz-adv-x="1270" 
d="M742 1395h169v-811h262v-125h-262v-459h-169v459h-657v176zM742 584v656l-566 -656h566z" />
    <glyph glyph-name="five" unicode="5" horiz-adv-x="1270" 
d="M275 1395l621.996 -0.000976562c38 0 61 2 69 6c11.333 6.66699 18 21 20 43h73v-211h-691l-17 -352c28.667 8 65 14.667 109 20c56.667 6.66699 107.334 10 152.001 10c111.333 0 208.333 -20 291 -60s145.5 -94.833 188.5 -164.5s64.5 -147.5 64.5 -233.5
c0 -133.333 -50 -246.166 -150 -338.499s-227.333 -138.5 -382 -138.5c-89.333 0 -170.166 16 -242.499 48s-128.833 74.167 -169.5 126.5s-61 98.166 -61 137.499c0 26 8.66699 48.5 26 67.5s39.666 28.5 66.999 28.5c28 0 52.667 -11.667 74 -35
c12 -12 26.333 -41.333 43 -88c22.667 -65.333 56.334 -113.333 101.001 -144c44 -31.333 99.333 -47 166 -47s126 14.5 178 43.5s93 70.667 123 125s45 114.833 45 181.5c0 70 -16.167 132.333 -48.5 187s-78.666 97 -138.999 127s-133.833 45 -220.5 45
c-52.667 0 -109.167 -5.66699 -169.5 -17s-112.166 -25.666 -155.499 -42.999z" />
    <glyph glyph-name="six" unicode="6" horiz-adv-x="1270" 
d="M1036 1421l-0.00195312 -91.001c-164.667 -2 -297.834 -26 -399.501 -72s-176.5 -114.833 -224.5 -206.5s-75 -204.5 -81 -338.5c34 52 68.833 92.5 104.5 121.5s77.334 51.333 125.001 67s99.834 23.5 156.501 23.5c90.667 0 171.334 -20 242.001 -60
s125.667 -94.167 165 -162.5s59 -148.833 59 -241.5c0 -147.333 -44.333 -263 -133 -347c-98 -92 -225 -138 -381 -138c-112.667 0 -207.667 23.333 -285 70s-138.833 118 -184.5 214s-68.5 214.667 -68.5 356c0 142 24.167 268 72.5 378s115.166 198.333 200.499 265
s178.833 110.334 280.5 131.001s192.834 31 273.501 31h78zM670.998 818.999c-96 0 -174.832 -36.333 -236.499 -109s-92.5 -160 -92.5 -262c0 -72 15 -138.5 45 -199.5s68.667 -106.333 116 -136s100.666 -44.5 159.999 -44.5c92 0 168.5 34.833 229.5 104.5
s91.5 163.167 91.5 280.5c0 112 -29.667 201 -89 267s-134 99 -224 99z" />
    <glyph glyph-name="seven" unicode="7" horiz-adv-x="1270" 
d="M222 1446h66.001l12 -51h874v-85c-104.667 -120.667 -199.5 -258.167 -284.5 -412.5s-150.833 -311.5 -197.5 -471.5c-34 -115.333 -61.667 -257.333 -83 -426h-205c20 148.667 52.833 287.667 98.5 417s111.667 264.5 198 405.5s191.166 281.833 314.499 422.5h-623
c-45.333 0 -76.333 -2.33301 -93 -7s-29.667 -12 -39 -22s-17.333 -27.667 -24 -53l-5 -19l-34 -118l-85 18z" />
    <glyph glyph-name="eight" unicode="8" horiz-adv-x="1270" 
d="M792 774c78.667 -30 138.668 -58.333 180.001 -85c60.667 -38.667 106.334 -84.167 137.001 -136.5s46 -109.166 46 -170.499c0 -110 -47.333 -205.167 -142 -285.5s-222.334 -120.5 -383.001 -120.5c-170 0 -303.333 45.333 -400 136c-76.667 72.667 -115 155 -115 247
c0 74 26 140.333 78 199c62.667 70 152 124.667 268 164c-90.667 42.667 -156 86 -196 130c-51.333 58 -77 127.667 -77 209c0 100.667 38 182 114 244c93.333 76 210 114 350 114c128 0 231.5 -32.833 310.5 -98.5s118.5 -140.834 118.5 -225.501
c0 -42 -9.83301 -82.167 -29.5 -120.5s-49.834 -74 -90.501 -107s-97 -64.167 -169 -93.5zM701.001 811c76 57.333 125.334 97.333 148.001 120s40.167 48.5 52.5 77.5s18.5 57.167 18.5 84.5c0 39.333 -11.667 76.833 -35 112.5s-57.5 64.5 -102.5 86.5s-95.5 33 -151.5 33
c-82.667 0 -151.334 -22.833 -206.001 -68.5s-82 -98.5 -82 -158.5c0 -48 17 -91 51 -129s97.333 -75.333 190 -112zM560.002 683c-94 -41.333 -168.334 -95.001 -223.001 -161.001c-42.667 -52 -64 -106 -64 -162c0 -76 33.667 -143.5 101 -202.5s154.333 -88.5 261 -88.5
c108.667 0 199.334 33.667 272.001 101c59.333 54.667 89 113.334 89 176.001c0 49.333 -19.5 96.5 -58.5 141.5s-111.5 88.833 -217.5 131.5z" />
    <glyph glyph-name="nine" unicode="9" horiz-adv-x="1270" 
d="M235 -24l0.000976562 93c165.333 2 298.833 25.833 400.5 71.5s176.334 114.5 224.001 206.5s74.5 204.667 80.5 338c-34 -52 -68.833 -92.333 -104.5 -121s-77.334 -51 -125.001 -67s-99.5 -24 -155.5 -24c-90.667 0 -171.5 20 -242.5 60s-126.167 94 -165.5 162
s-59 148 -59 240c0 146.667 44.333 262 133 346c98 92 225.333 138 382 138c112.667 0 207.667 -23.333 285 -70s138.666 -118 183.999 -214s68 -214 68 -354s-23.667 -265 -71 -375s-113.5 -198.167 -198.5 -264.5s-178.5 -110.5 -280.5 -132.5s-194.333 -33 -277 -33h-78z
M601.001 580c95.333 0 173.832 36.167 235.499 108.5s92.5 159.5 92.5 261.5c0 72 -15 138.5 -45 199.5s-68.5 106.333 -115.5 136s-100.5 44.5 -160.5 44.5c-91.333 0 -167.666 -34.833 -228.999 -104.5s-92 -163.167 -92 -280.5c0 -112 29.833 -200.833 89.5 -266.5
s134.5 -98.5 224.5 -98.5z" />
    <glyph glyph-name="colon" unicode=":" horiz-adv-x="655" 
d="M327 989c34.667 0 64.334 -12.332 89.001 -36.999s37 -54.334 37 -89.001c0 -35.333 -12.333 -65.333 -37 -90s-54.334 -37 -89.001 -37c-34 0 -63.333 12.167 -88 36.5s-37 53.833 -37 88.5s12.667 64.667 38 90s54.333 38 87 38zM327 233.001
c35.333 0 65.168 -12.167 89.501 -36.5s36.5 -53.833 36.5 -88.5s-12.333 -64.167 -37 -88.5s-54.334 -36.5 -89.001 -36.5c-34 0 -63.333 12.167 -88 36.5s-37 53.833 -37 88.5s12.167 64.167 36.5 88.5s53.833 36.5 88.5 36.5z" />
    <glyph glyph-name="semicolon" unicode=";" horiz-adv-x="655" 
d="M328 989c34.667 0 64.167 -12.332 88.5 -36.999s36.5 -54.334 36.5 -89.001c0 -35.333 -12.167 -65.333 -36.5 -90s-53.833 -37 -88.5 -37s-64.334 12.167 -89.001 36.5s-37 53.833 -37 88.5s12.833 64.667 38.5 90s54.834 38 87.501 38zM221 -361.999l-54 66
c136.667 111.333 205 204.333 205 279c0 8.66699 -0.666992 19.334 -2 32.001c-11.333 -4.66699 -22.333 -8.33398 -33 -11.001s-20.667 -4 -30 -4c-32 0 -57.667 10.333 -77 31s-29 47 -29 79c0 31.333 11.667 58.666 35 81.999s51.333 35 84 35
c45.333 0 84.166 -18.167 116.499 -54.5s48.5 -83.166 48.5 -140.499c0 -37.333 -7.66699 -76.5 -23 -117.5s-37.666 -79 -66.999 -114s-87.333 -89.167 -174 -162.5z" />
    <glyph glyph-name="semicolon" unicode="&#x37e;" horiz-adv-x="655" 
d="M328 989c34.667 0 64.167 -12.332 88.5 -36.999s36.5 -54.334 36.5 -89.001c0 -35.333 -12.167 -65.333 -36.5 -90s-53.833 -37 -88.5 -37s-64.334 12.167 -89.001 36.5s-37 53.833 -37 88.5s12.833 64.667 38.5 90s54.834 38 87.501 38zM221 -361.999l-54 66
c136.667 111.333 205 204.333 205 279c0 8.66699 -0.666992 19.334 -2 32.001c-11.333 -4.66699 -22.333 -8.33398 -33 -11.001s-20.667 -4 -30 -4c-32 0 -57.667 10.333 -77 31s-29 47 -29 79c0 31.333 11.667 58.666 35 81.999s51.333 35 84 35
c45.333 0 84.166 -18.167 116.499 -54.5s48.5 -83.166 48.5 -140.499c0 -37.333 -7.66699 -76.5 -23 -117.5s-37.666 -79 -66.999 -114s-87.333 -89.167 -174 -162.5z" />
    <glyph glyph-name="less" unicode="&#x3c;" horiz-adv-x="1229" 
d="M1047 181l-901 400v100l901 401v-144l-718 -307l718 -307v-143z" />
    <glyph glyph-name="equal" unicode="=" horiz-adv-x="1229" 
d="M1102 916v-123h-975v123h975zM1102 602v-123h-975v123h975z" />
    <glyph glyph-name="greater" unicode="&#x3e;" horiz-adv-x="1229" 
d="M182 1082l901 -401v-100l-901 -400v143l718 307l-718 307v144z" />
    <glyph glyph-name="question" unicode="?" horiz-adv-x="1106" 
d="M355 335l-0.00195312 355.002c132.667 -1.33301 231.5 9.66699 296.5 33s114.667 59.166 149 107.499s51.5 102.5 51.5 162.5c0 54.667 -15.167 108.5 -45.5 161.5s-70.5 94.167 -120.5 123.5s-103.333 44 -160 44c-45.333 0 -84.333 -8.5 -117 -25.5
s-63.334 -45.833 -92.001 -86.5c-28 -40.667 -48 -65.667 -60 -75c-23.333 -18 -46.666 -27 -69.999 -27c-16 0 -31.833 4.16699 -47.5 12.5s-26.5 17.833 -32.5 28.5c-8.66699 16 -13 32 -13 48c0 52.667 30.667 99 92 139c85.333 55.333 188 83 308 83
c108 0 203.333 -20.167 286 -60.5s145.334 -93.833 188.001 -160.5s64 -142 64 -226c0 -131.333 -52.167 -233.333 -156.5 -306s-243.166 -109.334 -416.499 -110.001v-221h-104zM405.998 233.002c34.667 0 64.1689 -12.167 88.502 -36.5s36.5 -53.833 36.5 -88.5
s-12.333 -64.167 -37 -88.5s-54 -36.5 -88 -36.5c-34.667 0 -64.334 12.167 -89.001 36.5s-37 53.833 -37 88.5s12.167 64.167 36.5 88.5s54.166 36.5 89.499 36.5z" />
    <glyph glyph-name="at" unicode="@" horiz-adv-x="1679" 
d="M1268 958l-117.001 -398.999l-67 -239c-10.667 -37.333 -18 -69.333 -22 -96c-2.66699 -18 -4 -32.333 -4 -43c0 -22.667 7 -41.334 21 -56.001s32.333 -22 55 -22c53.333 0 113.833 26.167 181.5 78.5s124.834 131.666 171.501 237.999s70 218.166 70 335.499
c0 116.667 -27.5 222.167 -82.5 316.5s-131.667 167.833 -230 220.5s-210.166 79 -335.499 79c-154 0 -295.333 -39.833 -424 -119.5s-233.167 -195 -313.5 -346s-120.5 -313.5 -120.5 -487.5c0 -156 33.333 -294.667 100 -416s159.667 -215.5 279 -282.5
s254 -100.5 404 -100.5c118.667 0 229.334 21.333 332.001 64s194.167 104.667 274.5 186s146.166 182.333 197.499 303h58c-22 -68 -47 -125.333 -75 -172c-50 -85.333 -115.5 -161.833 -196.5 -229.5s-172.667 -120 -275 -157s-209.166 -55.5 -320.499 -55.5
c-164.667 0 -313.334 38.333 -446.001 115s-236.834 182.167 -312.501 316.5s-113.5 285.833 -113.5 454.5c0 181.333 42 346.833 126 496.5s199.167 267.334 345.5 353.001s304.5 128.5 474.5 128.5c142.667 0 267.334 -28.5 374.001 -85.5s190 -138.5 250 -244.5
s90 -224.333 90 -355c0 -134.667 -29.833 -261 -89.5 -379s-129.5 -202 -209.5 -252s-163.667 -75 -251 -75c-51.333 0 -90 12 -116 36s-39 58.333 -39 103c0 36 6 84.333 18 145c-94.667 -114.667 -171.834 -190.834 -231.501 -228.501s-113.5 -56.5 -161.5 -56.5
c-32.667 0 -62.5 9.33301 -89.5 28s-49.167 46.834 -66.5 84.501s-26 78.5 -26 122.5c0 89.333 28 190.333 84 303s129.833 206.834 221.5 282.501s173.5 113.5 245.5 113.5c28.667 0 55.667 -5.83301 81 -17.5s44.833 -26.167 58.5 -43.5s24.5 -43 32.5 -77l33 110z
M916.999 917.001c-29.333 0 -62.832 -11.8311 -100.499 -35.498s-80.834 -70.334 -129.501 -140.001s-89.834 -148.667 -123.501 -237s-50.5 -157.833 -50.5 -208.5c0 -42.667 11.667 -77.5 35 -104.5s50.333 -40.5 81 -40.5c38 0 81.333 16.833 130 50.5
s101.334 91.5 158.001 173.5c28.667 42 52 88.667 70 140c36.667 106 55 191 55 255c0 45.333 -12 81.166 -36 107.499s-53.667 39.5 -89 39.5z" />
    <glyph glyph-name="A" unicode="A" horiz-adv-x="1393" 
d="M616 1395h164.998l433 -1166c21.333 -58.667 42.833 -97.5 64.5 -116.5s50.834 -28.5 87.501 -28.5h22v-84h-497v84c16 1.33301 31.667 2 47 2c32 0 53 3.33301 63 10c19.333 12.667 29 28.667 29 48c0 14 -9.33301 48.333 -28 103l-92 270h-506l-108 -302
c-11.333 -31.333 -17 -53 -17 -65c0 -13.333 3.5 -25 10.5 -35s16.5 -17.5 28.5 -22.5s31.333 -7.5 58 -7.5c18 0 32.667 -0.333008 44 -1v-84h-417v84c38.667 0 66.5 3.83301 83.5 11.5s31.833 20 44.5 37s29.334 52.833 50.001 107.5zM440.998 615h431l-216 600z" />
    <glyph glyph-name="B" unicode="B" horiz-adv-x="1515" 
d="M83 1395l663 0.00195312c162 0 273 -7.33301 333 -22c88.667 -21.333 158.834 -60 210.501 -116s77.5 -123.333 77.5 -202c0 -56.667 -13.667 -107.5 -41 -152.5s-67 -83.5 -119 -115.5c-33.333 -20.667 -78.666 -38.334 -135.999 -53.001
c72.667 -13.333 128 -29.333 166 -48c57.333 -28 102.666 -68 135.999 -120s50 -110.667 50 -176c0 -63.333 -16.333 -122 -49 -176s-78.834 -98.333 -138.501 -133s-129.167 -56.834 -208.5 -66.501s-161 -14.5 -245 -14.5h-699v84h47c45.333 0 76.333 7 93 21
c24 19.333 36 51.333 36 96v969c0 45.333 -3.66699 76.333 -11 93s-18.333 28.667 -33 36s-43 11 -85 11h-47v85zM446 1284v-510.999h255c119.333 0 201 5.66699 245 17c68.667 18 121.167 48.667 157.5 92s54.5 99 54.5 167c0 57.333 -16.5 105.166 -49.5 143.499
s-77.167 64.5 -132.5 78.5c-36 8.66699 -110.667 13 -224 13h-306zM446 677.003l-0.00195312 -457.999c0 -46 2 -73.333 6 -82c5.33301 -12 16 -20.333 32 -25c11.333 -3.33301 43.333 -5 96 -5h136c134.667 0 230.834 7.5 288.501 22.5s106.834 46.667 147.501 95
s61 106.5 61 174.5c0 57.333 -16.5 108.166 -49.5 152.499s-78.667 76.333 -137 96s-161.833 29.5 -310.5 29.5h-270z" />
    <glyph glyph-name="C" unicode="C" horiz-adv-x="1515" 
d="M1208 1395l72.001 -0.000976562l127 -465l-93 -26c-50 107.333 -88 179.333 -114 216c-42.667 59.333 -95.834 106.333 -159.501 141s-133.834 52 -210.501 52c-90 0 -172.833 -24.167 -248.5 -72.5s-137 -119.166 -184 -212.499s-70.5 -198.333 -70.5 -315
c0 -120 23.833 -227 71.5 -321s112.167 -166.333 193.5 -217s169 -76 263 -76c88.667 0 179.334 25.333 272.001 76s173 121.667 241 213l80 -55c-41.333 -61.333 -86 -113.333 -134 -156c-76 -68.667 -155 -119.334 -237 -152.001s-172 -49 -270 -49
c-216.667 0 -392.667 80.333 -528 241c-112 133.333 -168 292 -168 476c0 135.333 31 257.833 93 367.5s147.5 196.834 256.5 261.501s226.5 97 352.5 97c67.333 0 129.833 -9.16699 187.5 -27.5s116.167 -47.833 175.5 -88.5z" />
    <glyph glyph-name="D" unicode="D" horiz-adv-x="1638" 
d="M97 1310l-0.00292969 85h498c228 0 387 -14.333 477 -43c132.667 -42 240.334 -120.333 323.001 -235c91.333 -126.667 137 -272.334 137 -437.001c0 -112 -22.5 -216.167 -67.5 -312.5s-104.167 -173.833 -177.5 -232.5c-60.667 -49.333 -133.667 -84.166 -219 -104.499
s-171.333 -30.5 -258 -30.5h-713v84h58l19 -1c24.667 0 44.834 5 60.501 15s26.834 23.333 33.501 40c4.66699 12.667 7 42 7 88v933c0 52.667 -3.33301 86.667 -10 102c-9.33301 20.667 -24.333 35 -45 43c-12 4 -53 6 -123 6zM460.997 108h302.001
c30 0 79.833 5.33301 149.5 16s119.5 23.667 149.5 39c44 22.667 86.667 59.167 128 109.5s73.166 110.666 95.499 180.999s33.5 150.833 33.5 241.5c0 90 -11.167 168 -33.5 234s-56 125.333 -101 178s-95 92.834 -150 120.501s-116.5 45.167 -184.5 52.5
c-36.667 3.33301 -98 5 -184 5h-205v-1177z" />
    <glyph glyph-name="E" unicode="E" horiz-adv-x="1475" 
d="M98 1395l1134 -0.00195312l131 -367l-88 -33c-22 60 -46 107.167 -72 141.5s-57.167 63.5 -93.5 87.5s-73 40 -110 48s-103.833 12 -200.5 12h-338v-511h168c62 0 108.833 10.5 140.5 31.5s53.5 47.167 65.5 78.5c9.33301 23.333 14 64 14 122v23h98v-612h-98v53
c0 46.667 -3.5 80.334 -10.5 101.001s-19.833 40.167 -38.5 58.5s-38.834 30.833 -60.501 37.5s-58.5 10 -110.5 10h-168v-454c0 -47.333 2.16699 -76.166 6.5 -86.499s11.5 -17.833 21.5 -22.5s37.333 -7 82 -7h209c116.667 0 207.834 14 273.501 42s123.5 71 173.5 129
c39.333 45.333 77 109.333 113 192l91 -32l-156 -437h-1177v84h40c46.667 0 75.667 3 87 9c17.333 8.66699 30.666 22.667 39.999 42c6.66699 13.333 10 42.333 10 87v960c0 43.333 -4.33301 72.333 -13 87s-23.667 26 -45 34c-11.333 4.66699 -51 7 -119 7v85z" />
    <glyph glyph-name="F" unicode="F" horiz-adv-x="1311" 
d="M109 1395h1067l129 -366l-87 -33c-36.667 85.333 -72.667 146.666 -108 183.999s-76.333 64 -123 80s-120 24 -220 24h-301v-536h137c72 0 123.667 7 155 21s55.333 36.167 72 66.5s25 73.5 25 129.5v37h98v-612h-98v54c0 52.667 -8 93.667 -24 123
s-37.833 50.5 -65.5 63.5s-76.834 19.5 -147.501 19.5h-152v-434c0 -40 4.16699 -67.833 12.5 -83.5s20.666 -27.667 36.999 -36s45.5 -12.5 87.5 -12.5h37v-84h-531v84h34c42.667 0 72.167 4 88.5 12s28.333 20.5 36 37.5s11.5 47.833 11.5 92.5v949
c0 41.333 -3.66699 70.333 -11 87s-18.5 28.834 -33.5 36.501s-41.167 11.5 -78.5 11.5h-47v85z" />
    <glyph glyph-name="G" unicode="G" horiz-adv-x="1638" 
d="M1197 1395l72.999 0.000976562l114 -430l-90 -31c-60 136 -129 233 -207 291s-166.333 87 -265 87c-142 0 -261 -59 -357 -177s-144 -258.667 -144 -422c0 -117.333 24.5 -225 73.5 -323s114.5 -172.667 196.5 -224s169 -77 261 -77c59.333 0 115.833 10.833 169.5 32.5
s97.167 47.5 130.5 77.5c24.667 22.667 41.334 47.667 50.001 75s12.667 65.333 12 114v66c0 52.667 -6.16699 90 -18.5 112s-29.833 37.667 -52.5 47c-17.333 7.33301 -64 11 -140 11v84h566v-84h-46c-39.333 0 -66.166 -3.83301 -80.499 -11.5s-24.833 -19.5 -31.5 -35.5
s-10 -47.333 -10 -94v-483h-99l-53 122c-56 -40.667 -115.667 -72.334 -179 -95.001c-94.667 -34 -188.334 -51 -281.001 -51c-187.333 0 -347.833 68.833 -481.5 206.5s-200.5 309.167 -200.5 514.5c0 204 67.667 375.333 203 514s297.333 208 486 208
c47.333 0 94 -4.66699 140 -14s88 -22.666 126 -39.999c28.667 -12.667 62 -33.334 100 -62.001z" />
    <glyph glyph-name="H" unicode="H" horiz-adv-x="1638" 
d="M97 1395l537.999 -0.00195312v-85h-37c-42.667 0 -73.167 -4 -91.5 -12s-31.166 -22 -38.499 -42c-6 -14.667 -9 -45.667 -9 -93v-389h723v379c0 51.333 -1.66699 82.333 -5 93c-5.33301 21.333 -16.833 37.333 -34.5 48s-44.5 16 -80.5 16h-55v85h534v-85h-48
c-37.333 0 -63.833 -4.16699 -79.5 -12.5s-26.667 -19.666 -33 -33.999s-9.5 -45.166 -9.5 -92.499v-950c0 -52.667 3.33301 -86.167 10 -100.5s20 -24.5 40 -30.5c12 -4 52 -6 120 -6v-84h-534v84h39c49.333 0 82.166 3.33301 98.499 10s26.833 17.334 31.5 32.001
c4 11.333 6 47 6 107v433h-723v-445c0 -52.667 3.5 -86.334 10.5 -101.001s20.5 -24.667 40.5 -30c14.667 -4 56.334 -6 125.001 -6v-84h-538v84h34c52 0 84.5 2.83301 97.5 8.5s23.333 16.5 31 32.5s11.5 44.333 11.5 85v961c0 43.333 -3.5 73.333 -10.5 90s-18 29 -33 37
s-39.833 12 -74.5 12h-56v85z" />
    <glyph glyph-name="I" unicode="I" horiz-adv-x="696" 
d="M81 1395l533.998 0.00195312v-85h-41c-38.667 0 -66.667 -5.33301 -84 -16s-30 -25.834 -38 -45.501s-12 -57.834 -12 -114.501v-899c0 -45.333 4.33301 -77.5 13 -96.5s20.834 -32.833 36.501 -41.5s43.834 -13 84.501 -13h41v-84h-534v84h44
c39.333 0 67.166 4.5 83.499 13.5s28.166 22 35.499 39s11 49.833 11 98.5v920c0 51.333 -3.66699 85.833 -11 103.5s-19.166 30.667 -35.499 39s-44.166 12.5 -83.499 12.5h-44v85z" />
    <glyph glyph-name="J" unicode="J" horiz-adv-x="1229" 
d="M614 1395l534.001 -0.000976562v-85h-53c-36 0 -61.5 -3.66699 -76.5 -11s-26.5 -19 -34.5 -35s-12 -40 -12 -72v-737c0 -111.333 -18 -198.5 -54 -261.5s-93.5 -115 -172.5 -156s-171.833 -61.5 -278.5 -61.5c-142 0 -256.167 37.667 -342.5 113s-129.5 163 -129.5 263
c0 50 11.333 88.667 34 116s51 41 85 41c26.667 0 48.834 -10 66.501 -30s26.5 -46 26.5 -78c0 -9.33301 -2.66699 -28.333 -8 -57c-6 -30 -9 -51 -9 -63c0 -49.333 25.167 -94.166 75.5 -134.499s115.5 -60.5 195.5 -60.5c66 0 125.333 14.667 178 44s90.5 66 113.5 110
s34.5 107.667 34.5 191v729c0 49.333 -3.83301 82.5 -11.5 99.5s-19.834 29.667 -36.501 38s-47.334 12.5 -92.001 12.5h-33v85z" />
    <glyph glyph-name="K" unicode="K" horiz-adv-x="1475" 
d="M103 1395l538.004 0.000976562v-85h-38c-44 0 -75 -5.33301 -93 -16s-30.667 -27.334 -38 -50.001c-6 -16.667 -9 -44 -9 -82v-527l524 555c27.333 29.333 43.5 48.333 48.5 57s7.5 17.667 7.5 27c0 12 -5.83301 21 -17.5 27s-36.834 9 -75.501 9h-32v85h500v-85
c-39.333 0.666992 -75 -3.66602 -107 -12.999s-57.333 -21 -76 -35c-40.667 -30 -69.667 -54 -87 -72l-374 -383l427 -566c38.667 -51.333 69.334 -86.5 92.001 -105.5s46 -32.333 70 -40s61.333 -11.5 112 -11.5v-84h-592v84h35c39.333 0 62.666 1 69.999 3
c11.333 2.66699 20.333 8 27 16s10 16.333 10 25c0 17.333 -23 57 -69 119l-315 428l-178 -184v-267c0 -46 4.66699 -77.333 14 -94s23.666 -29 42.999 -37c15.333 -6 55.666 -9 120.999 -9v-84h-538v84h42c42 0 70.667 4.16699 86 12.5s27.166 22.166 35.499 41.499
s12.5 53.666 12.5 102.999v921c0 48.667 -4 81.834 -12 99.501s-19.667 30.167 -35 37.5s-48 11 -98 11h-31v85z" />
    <glyph glyph-name="L" unicode="L" horiz-adv-x="1229" 
d="M94 1395h540.999v-85h-50c-38.667 0 -66 -3.66699 -82 -11s-27.667 -18 -35 -32s-11 -39 -11 -75v-973c0 -44.667 1.66699 -71.334 5 -80.001c4 -12 12.667 -20.667 26 -26c9.33301 -4 36.333 -6 81 -6h75c86 0 160.667 12.5 224 37.5s118 61.333 164 109
s90.333 118.834 133 213.501l89 -30l-156 -437h-1004v84h44c42.667 0 71.334 3.66699 86.001 11s26 19.5 34 36.5s12 46.167 12 87.5v949c0 48 -3.66699 80.167 -11 96.5s-18 28 -32 35s-43.667 10.5 -89 10.5h-44v85z" />
    <glyph glyph-name="M" unicode="M" horiz-adv-x="1884" 
d="M96 1395l441.003 0.00292969l412 -1105l401 1105h426v-85h-36c-43.333 0 -72.5 -3.66699 -87.5 -11s-26.833 -20.166 -35.5 -38.499s-13 -48.5 -13 -90.5v-920c0 -58 3.5 -95.667 10.5 -113s18.667 -30.5 35 -39.5s46.5 -13.5 90.5 -13.5h36v-84h-533v84h38
c34 0 58.833 2.66699 74.5 8s28.667 14.166 39 26.499s16.166 25.166 17.499 38.499c3.33301 27.333 5 48.666 5 63.999v1027l-455 -1248h-99l-459 1230v-989c0 -50 4.33301 -83.833 13 -101.5s22.167 -31.334 40.5 -41.001s51.166 -14.5 98.499 -14.5h32v-84h-492v84h28
c47.333 0 81.166 5 101.499 15s34.833 24.167 43.5 42.5s13 54.5 13 108.5v911c0 50.667 -3.66699 84.167 -11 100.5s-19.5 28.5 -36.5 36.5s-47.167 12 -90.5 12h-48v85z" />
    <glyph glyph-name="N" unicode="N" horiz-adv-x="1515" 
d="M88 1395l428 0.00195312l635 -1046v796c0 47.333 -4.66699 81.333 -14 102s-23.333 36.334 -42 47.001s-46.334 16 -83.001 16h-36v85h467v-85h-25c-41.333 0 -69.333 -3.33301 -84 -10c-20.667 -9.33301 -36.167 -26.333 -46.5 -51s-15.5 -59.334 -15.5 -104.001v-1145
h-121l-765 1257v-996c0 -55.333 1.66699 -89 5 -101c4.66699 -15.333 13.167 -29.333 25.5 -42s26.833 -21.334 43.5 -26.001s50.334 -7.33398 101.001 -8.00098v-84h-473v84h25c48 0 80.5 4.66699 97.5 14s30.167 25.333 39.5 48s14 61 14 115v884
c0 55.333 -1.33301 89 -4 101c-6 22.667 -17.5 39 -34.5 49s-50.833 15 -101.5 15h-36v85z" />
    <glyph glyph-name="O" unicode="O" horiz-adv-x="1638" 
d="M839 1419c127.333 0 242.334 -30.668 345.001 -92.001c111.333 -66 196.833 -151.667 256.5 -257s89.5 -227.333 89.5 -366c0 -214.667 -66.667 -389.667 -200 -525s-303.333 -203 -510 -203c-230.667 0 -413.334 81.333 -548.001 244
c-110 132.667 -165 291.334 -165 476.001c0 137.333 31 260.5 93 369.5s150 195.167 264 258.5s239 95 375 95zM839.001 1311c-104 0 -193.333 -23.832 -268 -71.499s-134.5 -117.834 -179.5 -210.501s-67.5 -207 -67.5 -343c0 -130 22.167 -240.167 66.5 -330.5
s103.833 -159.5 178.5 -207.5s158.667 -72 252 -72c92.667 0 174.667 23.5 246 70.5s130.333 121 177 222s70 213.167 70 336.5c0 125.333 -23.333 240 -70 344c-40 89.333 -93 155.333 -159 198s-148 64 -246 64z" />
    <glyph glyph-name="P" unicode="P" horiz-adv-x="1270" 
d="M92 1395l551 0.00195312c167.333 0 282.666 -10.667 345.999 -32c79.333 -25.333 144.833 -68.666 196.5 -129.999s77.5 -139.333 77.5 -234c0 -80.667 -19.667 -150.334 -59 -209.001c-47.333 -70.667 -104.833 -120.834 -172.5 -150.501s-174.167 -44.5 -319.5 -44.5
h-255v-358c0 -53.333 3 -87 9 -101c8 -19.333 19 -32.833 33 -40.5s42.333 -11.5 85 -11.5h48v-84h-540v84h33c46 0 77.333 3.83301 94 11.5s28.834 19.667 36.501 36s11.5 47.166 11.5 92.499v954c0 44 -3.5 73.5 -10.5 88.5s-18.667 26 -35 33s-48.5 10.5 -96.5 10.5h-33
v85zM457 1286l-0.00292969 -585h215c108.667 0 184.834 9.66699 228.501 29s79.834 52.833 108.501 100.5s43 103.5 43 167.5c0 70 -16.667 128.5 -50 175.5s-78.666 78.833 -135.999 95.5c-40 11.333 -118 17 -234 17h-175z" />
    <glyph glyph-name="Q" unicode="Q" horiz-adv-x="1638" 
d="M916 -19c-1.33301 -14.667 -2 -27.002 -2 -37.002c0 -54 20.333 -98.833 61 -134.5s93.667 -53.5 159 -53.5c38 0 76.333 5.83301 115 17.5s82.667 31.834 132 60.501l54 -80c-132 -80 -249.333 -120 -352 -120c-70 0 -137 14.667 -201 44
c-48 22.667 -85.833 56.334 -113.5 101.001s-41.5 94.667 -41.5 150c0 10.667 1 28 3 52c-181.333 18 -330.5 93.667 -447.5 227s-175.5 296.333 -175.5 489c0 137.333 31 260.5 93 369.5s149.5 195 262.5 258s237.167 94.5 372.5 94.5c129.333 0 245.333 -30.333 348 -91
c111.333 -66 197 -151.833 257 -257.5s90 -228.167 90 -367.5c0 -196.667 -56.667 -360.5 -170 -491.5s-261.333 -207.833 -444 -230.5zM839 1311c-104 0 -193.333 -23.832 -268 -71.499s-134.5 -117.834 -179.5 -210.501s-67.5 -207 -67.5 -343
c0 -130 22.167 -240.167 66.5 -330.5s103.833 -159.5 178.5 -207.5s158.667 -72 252 -72c92.667 0 174.667 23.5 246 70.5s130.333 121 177 222s70 213.167 70 336.5c0 125.333 -23.333 240 -70 344c-40 89.333 -93 155.333 -159 198s-148 64 -246 64z" />
    <glyph glyph-name="R" unicode="R" horiz-adv-x="1475" 
d="M99 1395l720.001 -0.000976562c136.667 0 240 -14.167 310 -42.5s123.833 -69.333 161.5 -123s56.5 -115.834 56.5 -186.501c0 -72.667 -18.333 -137.167 -55 -193.5s-89.5 -100.666 -158.5 -132.999s-160.5 -49.166 -274.5 -50.499l368 -450
c30 -37.333 49.667 -60.333 59 -69c23.333 -20.667 47.833 -36.334 73.5 -47.001s54.5 -16 86.5 -16h25v-84h-318l-512 666h-179v-430c0 -48 1.66699 -78 5 -90c7.33301 -22.667 19.166 -38.667 35.499 -48s48.166 -14 95.499 -14h36v-84h-535v84h48
c36 0 60.167 2.33301 72.5 7s23.333 12.834 33 24.501s16.5 26.5 20.5 44.5c1.33301 7.33301 2.33301 41 3 101v914c0 40 -4 68.667 -12 86s-19.167 29.833 -33.5 37.5s-39.166 11.5 -74.499 11.5h-57v85zM462.001 1286v-525h287c97.333 0 165.666 6 204.999 18
c56 16 100.167 45.333 132.5 88s48.5 97 48.5 163c0 56 -11.667 103.167 -35 141.5s-55.166 67 -95.499 86s-100.5 28.5 -180.5 28.5h-362z" />
    <glyph glyph-name="S" unicode="S" horiz-adv-x="1352" 
d="M1036 1395h72.0039l107 -430l-92 -28c-58.667 120.667 -136.667 215.667 -234 285c-80 58 -168.667 87 -266 87c-58.667 0 -111.334 -10.5 -158.001 -31.5s-81.667 -48.167 -105 -81.5s-35 -67.333 -35 -102c0 -31.333 9 -61.666 27 -90.999s45.333 -55.166 82 -77.499
s96.667 -45.833 180 -70.5l261 -77c32 -9.33301 78.5 -27.333 139.5 -54s108.5 -54.834 142.5 -84.501s60.667 -66 80 -109s29 -89.5 29 -139.5c0 -110.667 -48.5 -207.5 -145.5 -290.5s-222.5 -124.5 -376.5 -124.5c-79.333 0 -150.333 11.5 -213 34.5
s-130.334 63.833 -203.001 122.5l-46 -133h-70l-93 501l93 19c34 -92.667 79.167 -171.334 135.5 -236.001s118.666 -113.5 186.999 -146.5s137.833 -49.5 208.5 -49.5c96 0 180 29 252 87c60 48.667 90 106 90 172c0 60.667 -21.667 110.334 -65 149.001
c-44 38.667 -122.667 74.667 -236 108l-250 72c-140 40.667 -238.667 92.667 -296 156s-86 136 -86 218c0 64 18.667 123.167 56 177.5s94.666 99.833 171.999 136.5s162 55 254 55c77.333 0 151.333 -13.333 222 -40c50 -18.667 96 -45.334 138 -80.001z" />
    <glyph glyph-name="T" unicode="T" horiz-adv-x="1270" 
d="M125 1442h70.0029l10 -47h856l8 47h73l147 -410l-90 -32c-43.333 109.333 -94.666 186.166 -153.999 230.499s-135.333 66.5 -228 66.5c-38.667 0 -61.667 -1.5 -69 -4.5s-12.5 -8.16699 -15.5 -15.5s-4.5 -30.666 -4.5 -69.999v-968c0 -46 2.5 -77 7.5 -93
s12.167 -28.333 21.5 -37s22.166 -14.834 38.499 -18.501s52.833 -5.83398 109.5 -6.50098v-84h-538v84c59.333 0.666992 95.666 2.66699 108.999 6c23.333 6.66699 40 19.334 50 38.001s15 53 15 103v989c0 30.667 -1.5 49.334 -4.5 56.001s-8.66699 11.834 -17 15.501
s-25.5 5.5 -51.5 5.5c-72.667 0 -130.834 -9.33301 -174.501 -28s-84.834 -50.334 -123.501 -95.001s-71.667 -102.667 -99 -174l-90 32z" />
    <glyph glyph-name="U" unicode="U" horiz-adv-x="1597" 
d="M78 1395l539.001 -0.000976562v-85h-36c-44 0 -75.333 -4.33301 -94 -13c-14.667 -6.66699 -25.667 -18 -33 -34s-11 -48 -11 -96v-628c0 -112 13.5 -195 40.5 -249s72 -99.333 135 -136s132.167 -55 207.5 -55c76 0 148 19.667 216 59s115.667 86 143 140
s41 139.333 41 256v604c0 44 -4.33301 75.667 -13 95s-21.834 33.666 -39.501 42.999s-45.167 14 -82.5 14h-39v85h467v-85h-32c-52.667 0 -88.834 -10 -108.501 -30s-29.5 -57.667 -29.5 -113v-643c0 -117.333 -22 -215.166 -66 -293.499s-108 -140.333 -192 -186
s-181.667 -68.5 -293 -68.5c-105.333 0 -201.666 23.333 -288.999 70s-151.5 104.834 -192.5 174.501s-61.5 157.167 -61.5 262.5v684c0 44 -4 74.833 -12 92.5s-19.667 30.5 -35 38.5s-42 12 -80 12h-50v85z" />
    <glyph glyph-name="V" unicode="V" horiz-adv-x="1434" 
d="M2 1395l508.999 -0.00195312v-85h-39c-36 0 -58.667 -1.33301 -68 -4c-13.333 -4 -23.5 -10.5 -30.5 -19.5s-10.5 -19.167 -10.5 -30.5c0 -18 6.66699 -44 20 -78l370 -966l374 966c13.333 34 20 59.667 20 77c0 19.333 -6.66699 33.333 -20 42s-40.666 13 -81.999 13
h-46v85h433v-85c-37.333 0.666992 -64.833 -2.66602 -82.5 -9.99902s-32.167 -17.666 -43.5 -30.999c-14 -18 -29.667 -48.333 -47 -91l-474 -1178h-142l-469 1178c-15.333 38.667 -26 62.667 -32 72c-9.33301 14 -19.833 25.333 -31.5 34s-25.5 15.167 -41.5 19.5
s-38.333 6.5 -67 6.5v85z" />
    <glyph glyph-name="W" unicode="W" horiz-adv-x="1966" 
d="M26 1395l499.998 -0.000976562v-85h-53c-34.667 0 -58.334 -3.33301 -71.001 -10c-19.333 -10.667 -29 -26.667 -29 -48c0 -15.333 5.33301 -39.666 16 -72.999l286 -930l248 764l-58 185c-14 44 -35.333 75.667 -64 95c-17.333 11.333 -47.666 17 -90.999 17v85h496v-85
h-47c-40.667 0 -68 -5 -82 -15s-21 -23.667 -21 -41c0 -14.667 5.33301 -39.667 16 -75l287 -936l289 936c10 32.667 15 57.334 15 74.001c0 19.333 -6.66699 33.666 -20 42.999s-39.666 14 -78.999 14h-50v85h426v-85c-36 0.666992 -62.833 -2.83301 -80.5 -10.5
s-32.167 -18.667 -43.5 -33s-23.666 -43.5 -36.999 -87.5l-385 -1179h-145l-269 834l-270 -834h-144l-378 1179c-18 56.667 -40.333 94 -67 112c-20 12.667 -51.667 19 -95 19v85z" />
    <glyph glyph-name="X" unicode="X" horiz-adv-x="1475" 
d="M66 1395l532.999 -0.00195312v-85h-42c-40 0 -65.333 -2.66699 -76 -8s-16 -14 -16 -26c0 -8 2 -16 6 -24s16 -25.333 36 -52l261 -356l285 356c26.667 33.333 40 58.666 40 75.999c0 10.667 -5.16699 19 -15.5 25s-32.166 9 -65.499 9h-51v85h453v-85
c-54 0 -92.833 -5.66699 -116.5 -17s-56.5 -42.333 -98.5 -93l-364 -437l429 -563c27.333 -36 50.333 -61.5 69 -76.5s36.667 -25.333 54 -31s46 -8.5 86 -8.5v-84h-535v84h42c41.333 0 67.5 2.83301 78.5 8.5s16.5 14.834 16.5 27.501c0 7.33301 -2 15 -6 23
c-1.33301 3.33301 -14.666 22.333 -39.999 57l-319 426l-349 -439c-21.333 -26 -33.333 -42 -36 -48c-4 -7.33301 -6 -14.333 -6 -21c0 -12.667 7.66699 -22 23 -28c10 -4 33.667 -6 71 -6h42v-84h-452v84c41.333 0 71.5 2.83301 90.5 8.5s38.167 15.834 57.5 30.501
s44 40.334 74 77.001l421 507l-374 493c-37.333 49.333 -67.833 80 -91.5 92s-61.834 18 -114.501 18v85z" />
    <glyph glyph-name="Y" unicode="Y" horiz-adv-x="1311" 
d="M5 1395l522.002 0.00195312v-85h-59c-36 0 -59.167 -3.33301 -69.5 -10s-15.5 -17.667 -15.5 -33c0 -13.333 6.33301 -31.333 19 -54c3.33301 -5.33301 7.66602 -13 12.999 -23l272 -504l301 523c12 21.333 19.167 35.166 21.5 41.499s3.5 12.833 3.5 19.5
c0 9.33301 -2.5 17.166 -7.5 23.499s-12.833 11.166 -23.5 14.499c-6.66699 1.33301 -25.334 2 -56.001 2h-52v85h431v-85c-38 0.666992 -66.167 -1.66602 -84.5 -6.99902s-33.333 -13.5 -45 -24.5s-28.167 -34.167 -49.5 -69.5l-378 -630v-351
c0 -51.333 4.16699 -84.666 12.5 -99.999s21.5 -26.5 39.5 -33.5s60 -10.5 126 -10.5v-84h-545v84h42c44.667 0 74.5 4 89.5 12s26.833 21 35.5 39c6 12.667 9 43.667 9 93v314l-369 656c-29.333 52.667 -53.833 84.167 -73.5 94.5s-56.167 16.166 -109.5 17.499v85z" />
    <glyph glyph-name="Z" unicode="Z" horiz-adv-x="1311" 
d="M245 1395l971.001 0.00195312v-85l-911 -1202h335c152 0 267.833 25.5 347.5 76.5s150.834 144.167 213.501 279.5l92 -31l-161 -433h-1079v84l913 1203h-290c-97.333 0 -174.333 -9.33301 -231 -28s-106.334 -47.834 -149.001 -87.501
s-87.334 -101.834 -134.001 -186.501l-86 42z" />
    <glyph glyph-name="bracketleft" unicode="[" horiz-adv-x="614" 
d="M208 1457h310v-95h-165v-1739h165v-96h-310v1930z" />
    <glyph glyph-name="backslash" unicode="\" horiz-adv-x="1229" 
d="M392 1467l667 -1913h-149l-670 1913h152z" />
    <glyph glyph-name="bracketright" unicode="]" horiz-adv-x="614" 
d="M406 -473h-310v96h165v1739h-165v95h310v-1930z" />
    <glyph glyph-name="asciicircum" unicode="^" horiz-adv-x="1229" 
d="M246 595h-142l442 824h135l443 -824h-142l-368 662z" />
    <glyph glyph-name="underscore" unicode="_" horiz-adv-x="1024" 
d="M-12 -154h1048v-102h-1048v102z" />
    <glyph glyph-name="grave" unicode="`" horiz-adv-x="696" 
d="M557 1170l-286 60c-50 10.667 -84.333 24.5 -103 41.5s-28 37.833 -28 62.5c0 22.667 6.83301 41.167 20.5 55.5s31.167 21.5 52.5 21.5c42.667 0 95.667 -23.333 159 -70l185 -136v-35z" />
    <glyph glyph-name="a" unicode="a" horiz-adv-x="1188" 
d="M793 579l-0.00195312 108.999c0 74 -20.667 126.833 -62 158.5s-99.666 47.5 -174.999 47.5c-37.333 0 -70 -4.5 -98 -13.5s-50.5 -21.333 -67.5 -37s-29.5 -33.5 -37.5 -53.5c-3.33301 -7.33301 -11.333 -35.666 -24 -84.999c-15.333 -60 -46.333 -90 -93 -90
c-26.667 0 -48.167 8.83301 -64.5 26.5s-24.5 41.5 -24.5 71.5c0 44 16.333 87.167 49 129.5s82.5 77.333 149.5 105s146.167 41.5 237.5 41.5c85.333 0 158.333 -13.167 219 -39.5s105.334 -64.166 134.001 -113.499c20 -34 30 -96 30 -186v-385
c0 -54.667 1.66699 -90.334 5 -107.001c7.33301 -28.667 20.166 -50.167 38.499 -64.5s42.166 -21.5 71.499 -21.5c30.667 0 67.334 7.33301 110.001 22v-87c-55.333 -16 -105 -24 -149 -24c-47.333 0 -87.166 6.66699 -119.499 20s-58.833 32.833 -79.5 58.5
s-34 56.167 -40 91.5c-80 -62.667 -152.333 -106.667 -217 -132s-130 -38 -196 -38c-92 0 -166.667 25 -224 75s-86 108.667 -86 176c0 40.667 10.5 79.334 31.5 116.001s53 69 96 97s110.5 52.667 202.5 74s219.667 40.666 383 57.999zM792.998 491.999
c-154.667 -22.667 -250.334 -38.333 -287.001 -47c-72.667 -16.667 -124.667 -35 -156 -55s-53.666 -41.5 -66.999 -64.5s-20 -47.5 -20 -73.5s7.5 -51.167 22.5 -75.5s36.167 -43.5 63.5 -57.5s56.333 -21 87 -21c43.333 0 92.333 10.333 147 31s124.667 61 210 121v242z
" />
    <glyph glyph-name="b" unicode="b" horiz-adv-x="1270" 
d="M57 1300l0.000976562 83c44 3.33301 86.5 11.333 127.5 24s86.833 32.667 137.5 60h73v-610c58.667 44 119 77 181 99s125.333 33 190 33c74.667 0 143.667 -20 207 -60s113.166 -96.5 149.499 -169.5s54.5 -159.167 54.5 -258.5c0 -156 -45.667 -284.333 -137 -385
c-84.667 -93.333 -192 -140 -322 -140c-78 0 -147.667 16.333 -209 49c-45.333 24 -89.333 61 -132 111l-55 -136h-93v1300h-172zM395.001 758l-0.000976562 -385c0 -60.667 4.33301 -103.167 13 -127.5s26.5 -49.333 53.5 -75s58.667 -46 95 -61s73.833 -22.5 112.5 -22.5
c59.333 0 113.333 15.667 162 47s87 77.666 115 138.999s42 135 42 221c0 120.667 -29.667 217.334 -89 290.001c-47.333 60 -113.666 90 -198.999 90c-44 0 -88.667 -8.16699 -134 -24.5s-102.333 -46.833 -171 -91.5z" />
    <glyph glyph-name="c" unicode="c" horiz-adv-x="1065" 
d="M958 279l63.9932 -52.001c-125.333 -167.333 -275.666 -251 -450.999 -251c-136.667 0 -252 48.667 -346 146s-141 218.333 -141 363c0 96.667 21.833 183.5 65.5 260.5s104.334 136.833 182.001 179.5s166.834 64 267.501 64c114.667 0 210.334 -28.167 287.001 -84.5
s115 -113.166 115 -170.499c0 -30.667 -9 -54.334 -27 -71.001s-38.333 -25 -61 -25c-12 0 -23.667 3 -35 9s-23 15.667 -35 29c-5.33301 6 -15 24.667 -29 56c-18 38.667 -32 64.667 -42 78c-20.667 26.667 -46.167 47.667 -76.5 63s-64.166 23 -101.499 23
c-56.667 0 -109.167 -15.667 -157.5 -47s-86.666 -77.5 -114.999 -138.5s-42.5 -133.833 -42.5 -218.5c0 -131.333 35 -235.666 105 -312.999c60.667 -66.667 133 -100 217 -100c38.667 0 77.834 6.5 117.501 19.5s77.167 32.167 112.5 57.5c26 18 68.333 59 127 123z" />
    <glyph glyph-name="d" unicode="d" horiz-adv-x="1270" 
d="M697 1298l0.000976562 84.999c45.333 4 86.833 11.833 124.5 23.5s84.834 31.834 141.501 60.501h75v-1213c0 -56 1.33301 -90 4 -102c6.66699 -25.333 18 -43 34 -53s47 -15 93 -15h43v-84l-347 -16v159c-66.667 -60.667 -129.167 -103.667 -187.5 -129
s-116.833 -38 -175.5 -38c-120.667 0 -220.834 48.5 -300.501 145.5s-119.5 213.833 -119.5 350.5c0 97.333 21.167 186.5 63.5 267.5s98.166 142.833 167.499 185.5s145.333 64 228 64c63.333 0 122 -11 176 -33s103.333 -55 148 -99v441h-168zM865.001 241.999
l-0.000976562 378.002c0 54 -10.167 98.167 -30.5 132.5s-53.666 64.166 -99.999 89.499s-93.833 38 -142.5 38c-58 0 -111.5 -15.833 -160.5 -47.5s-87.333 -77.334 -115 -137.001s-41.5 -131.834 -41.5 -216.501c0 -80 12.833 -149.167 38.5 -207.5
s60.167 -102.666 103.5 -132.999s87.666 -45.5 132.999 -45.5c44.667 0 95.334 12.833 152.001 38.5s111 62.5 163 110.5z" />
    <glyph glyph-name="e" unicode="e" horiz-adv-x="1065" 
d="M930 258l64.0039 -52c-48.667 -58 -95.834 -104 -141.501 -138s-88.834 -57.833 -129.501 -71.5s-88.334 -20.5 -143.001 -20.5c-98 0 -181.333 20 -250 60c-78.667 46 -139 106 -181 180s-63 161.333 -63 262c0 105.333 20.333 195.333 61 270s97.5 133.5 170.5 176.5
s157.5 64.5 253.5 64.5c71.333 0 133.333 -11.167 186 -33.5s97.334 -56 134.001 -101s63.334 -96.5 80.001 -154.5c9.33301 -34 14.666 -78 15.999 -132h-707c-2 -32.667 -3 -57 -3 -73c0 -84 14.667 -158.833 44 -224.5s68.166 -114 116.499 -145
s103.166 -46.5 164.499 -46.5c52 0 102.333 12.167 151 36.5s107.667 71.833 177 142.5zM802.004 662c-10 61.333 -24.167 106.669 -42.5 136.002s-44.333 52.666 -78 69.999s-71.5 26 -113.5 26s-81.333 -8.66699 -118 -26s-67.167 -41.333 -91.5 -72
s-45.5 -75.334 -63.5 -134.001h507z" />
    <glyph glyph-name="f" unicode="f" horiz-adv-x="655" 
d="M68 965h171.003v150c0 103.333 34.167 187.833 102.5 253.5s157.5 98.5 267.5 98.5c73.333 0 130.5 -15.333 171.5 -46s61.5 -64 61.5 -100c0 -24 -8.16699 -44.167 -24.5 -60.5s-36.833 -24.5 -61.5 -24.5c-22 0 -41 4 -57 12s-40.667 28 -74 60
c-35.333 33.333 -69 50 -101 50c-22 0 -41.833 -6.83301 -59.5 -20.5s-31.334 -33.667 -41.001 -60s-14.5 -66.833 -14.5 -121.5v-191h188v-102h-188v-649c0 -44.667 3.33301 -74.5 10 -89.5s16.667 -25.5 30 -31.5s44.333 -9 93 -9h41v-84h-515v84h31
c52.667 0 86.167 3.33301 100.5 10s24.666 17.5 30.999 32.5s9.16602 49.167 8.49902 102.5v634h-171v102z" />
    <glyph glyph-name="g" unicode="g" horiz-adv-x="1106" 
d="M847 886c30 35.333 60.5039 61.332 91.5039 77.999s59.5 25 85.5 25c24 0 44.167 -7.16699 60.5 -21.5s24.5 -31.833 24.5 -52.5c0 -21.333 -7.33301 -39.333 -22 -54s-33.334 -22 -56.001 -22c-9.33301 0 -22 1.66699 -38 5c-18.667 4.66699 -34.334 7 -47.001 7
c-16.667 0 -34 -7.66699 -52 -23c41.333 -50 62 -108.667 62 -176c0 -92 -38.667 -171.667 -116 -239s-175 -101 -293 -101c-65.333 0 -131 13.667 -197 41c-44 -31.333 -69 -50.666 -75 -57.999c-9.33301 -11.333 -14 -23.333 -14 -36c0 -19.333 10 -35.333 30 -48
c25.333 -16.667 75.333 -30.667 150 -42l289 -43c64 -10 128.333 -26.667 193 -50s111.5 -53.666 140.5 -90.999s43.5 -82 43.5 -134c0 -88 -40.667 -158.333 -122 -211c-103.333 -67.333 -256.666 -101 -459.999 -101c-106.667 0 -193.334 11.333 -260.001 34
s-118.334 54.667 -155.001 96c-26.667 30 -40 61 -40 93c0 41.333 13.5 81.666 40.5 120.999s89.5 95.333 187.5 168c-63.333 16 -108.666 34.667 -135.999 56c-34.667 27.333 -52 58.333 -52 93c0 17.333 3.16699 33.5 9.5 48.5s16.666 30 30.999 45s40.5 35.833 78.5 62.5
c24 16.667 41 29 51 37c-48.667 34.667 -85.334 73.5 -110.001 116.5s-37 90.167 -37 141.5c0 84.667 32.667 158.667 98 222c79.333 77.333 186.333 116 321 116c60 0 112.333 -7.5 157 -22.5s90.667 -41.833 138 -80.5zM543.004 895.999
c-65.333 0 -120.666 -23.665 -165.999 -70.998s-68 -106 -68 -176c0 -46.667 10.333 -88.834 31 -126.501s49.667 -67.334 87 -89.001s76.666 -32.5 117.999 -32.5s80.833 11 118.5 33s66.667 51.667 87 89s30.5 79.333 30.5 126c0 73.333 -22.167 132.833 -66.5 178.5
s-101.5 68.5 -171.5 68.5zM384.004 28.001c-64 -54.667 -106.501 -99 -127.501 -133s-31.5 -66.667 -31.5 -98c0 -26.667 10.5 -52.5 31.5 -77.5s56.833 -45.5 107.5 -61.5s114.334 -24 191.001 -24c90.667 0 168.5 9.83301 233.5 29.5s111.5 44.834 139.5 75.501
c20.667 24 31 52.333 31 85c0 28 -8.5 51.667 -25.5 71s-49 36.166 -96 50.499s-90.833 24.833 -131.5 31.5z" />
    <glyph glyph-name="h" unicode="h" horiz-adv-x="1352" 
d="M74 1297l0.00292969 85.999c64.667 8.66699 115 18.834 151 30.501s73.667 29.5 113 53.5h78v-661c75.333 63.333 146.666 109.666 213.999 138.999s131.666 44 192.999 44c89.333 0 163 -26.667 221 -80c57.333 -53.333 86 -118.333 86 -195v-491
c0 -48.667 3.83301 -80.5 11.5 -95.5s20.5 -26 38.5 -33s58.333 -10.5 121 -10.5v-84h-516v84h38c48.667 0 80.667 3.83301 96 11.5s26.5 20.334 33.5 38.001s10.5 54.167 10.5 109.5v341c0 75.333 -2.66699 124.333 -8 147c-10 38.667 -30.667 69.667 -62 93
s-71.333 35 -120 35c-54.667 0 -111.834 -13.5 -171.501 -40.5s-121.5 -67.5 -185.5 -121.5v-501c0 -37.333 3.33301 -62.333 10 -75s17.667 -22 33 -28s46 -9 92 -9h41v-84h-518v84h31c48.667 0 84 6 106 18c12 6 20.667 17.667 26 35s8 65.333 8 144v1016h-171z" />
    <glyph glyph-name="i" unicode="i" horiz-adv-x="614" 
d="M321 1440c32 0 59.333 -11.167 82 -33.5s34 -49.5 34 -81.5s-11.333 -59.333 -34 -82s-50 -34 -82 -34s-59.333 11.333 -82 34s-34 50 -34 82s11.333 59.167 34 81.5s50 33.5 82 33.5zM66 821l0.000976562 83c55.333 6.66699 101.833 16 139.5 28s80.5 31 128.5 57h73
v-802c0 -28 4 -49 12 -63s19.167 -24.167 33.5 -30.5s40.5 -9.5 78.5 -9.5h47v-84h-512v84h41c44.667 0 74.667 4 90 12s26.166 19.333 32.499 34s9.5 49 9.5 103v588h-173z" />
    <glyph glyph-name="j" unicode="j" horiz-adv-x="614" 
d="M333 1440c32 0 59.333 -11.167 82 -33.5s34 -49.5 34 -81.5s-11.333 -59.333 -34 -82s-50 -34 -82 -34s-59.167 11.333 -81.5 34s-33.5 50 -33.5 82s11.167 59.167 33.5 81.5s49.5 33.5 81.5 33.5zM78 821v81.999c50 4.66699 93 12.667 129 24s82.667 32 140 62h73v-1089
c0 -78.667 -15 -144.667 -45 -198s-72 -95.666 -126 -126.999s-118.333 -47 -193 -47c-72 0 -129.333 15 -172 45s-64 61 -64 93c0 26.667 8.5 48.667 25.5 66s39.167 26 66.5 26c16 0 29.833 -3 41.5 -9s28.167 -19.667 49.5 -41c32 -32 57.667 -53.333 77 -64
c14 -8 29.667 -12 47 -12c41.333 0 74 20 98 60c18 29.333 27 77 27 143v986h-174z" />
    <glyph glyph-name="k" unicode="k" horiz-adv-x="1270" 
d="M60 1301l-0.00195312 82.0029c85.333 6.66699 173.666 34.667 264.999 84h77v-998l367 292c58.667 46.667 88 77.667 88 93c0 9.33301 -6.33301 16.666 -19 21.999c-8 3.33301 -27.667 5 -59 5h-53v84h507v-84c-56.667 0 -102 -5.83301 -136 -17.5
s-73.333 -34.5 -118 -68.5l-290 -221l342 -374c32.667 -36 59.334 -61.333 80.001 -76s41.334 -24.834 62.001 -30.501s53 -8.83398 97 -9.50098v-84h-532v84h41c40.667 0 66.334 3.16699 77.001 9.5s16 14.833 16 25.5s-10 26 -30 46c-3.33301 3.33301 -7 7.33301 -11 12
l-266 306l-163 -125v-131c0 -48.667 3.66699 -80.667 11 -96s18.833 -27 34.5 -35s45.834 -12 90.501 -12h37v-84h-515v84c58 0.666992 93.667 3 107 7c23.333 7.33301 40.166 20.333 50.499 39s15.5 54.667 15.5 108v1063h-173z" />
    <glyph glyph-name="l" unicode="l" horiz-adv-x="614" 
d="M63 1301l-0.000976562 82.001c90.667 6.66699 179 34.667 265 84h74v-1231c0 -52 3.33301 -84.667 10 -98c8.66699 -18.667 21.334 -32.334 38.001 -41.001s48.667 -13 96 -13h32v-84h-515v84h52c32.667 0 57.167 5 73.5 15s28 23.667 35 41s10.5 52 10.5 104v1057h-171z
" />
    <glyph glyph-name="m" unicode="m" horiz-adv-x="1925" 
d="M72 821l0.00292969 85.002c50 4.66699 93.667 12.834 131 24.501s80 31.167 128 58.5h74v-168c76 60 135.333 100.333 178 121c65.333 31.333 127.666 47 186.999 47c40.667 0 80.5 -7.5 119.5 -22.5s70.333 -33.5 94 -55.5s43.834 -52 60.501 -90
c70 62 134.833 105.5 194.5 130.5s120.167 37.5 181.5 37.5c58.667 0 110.5 -12.167 155.5 -36.5s77.667 -54.833 98 -91.5s30.5 -90.334 30.5 -161.001v-464c0 -48.667 1 -77 3 -85c3.33301 -12.667 10.5 -24.667 21.5 -36s23.5 -19.333 37.5 -24s40 -7 78 -7h32v-84h-503
v84c57.333 0.666992 94.5 4.83398 111.5 12.501s29.667 20.167 38 37.5s12.5 51.333 12.5 102v441c0 56 -5 94.667 -15 116s-27.833 39.166 -53.5 53.499s-57.5 21.5 -95.5 21.5c-47.333 0 -97 -12.667 -149 -38c-69.333 -34.667 -124 -73.667 -164 -117v-477
c0 -46 2.16699 -76.167 6.5 -90.5s11.666 -26.333 21.999 -36s22.333 -16.334 36 -20.001s46.834 -5.5 99.501 -5.5v-84h-493v84h28c39.333 0 67.166 4.66699 83.499 14s29.166 23.666 38.499 42.999c6.66699 15.333 10 47 10 95v426c0 62.667 -4.83301 105 -14.5 127
s-28.167 40.667 -55.5 56s-59.333 23 -96 23c-43.333 0 -87 -10.667 -131 -32c-65.333 -31.333 -125.333 -72.333 -180 -123v-514c0 -30.667 4.16699 -53.167 12.5 -67.5s21.5 -25.833 39.5 -34.5s42.667 -13 74 -13h37v-84h-503v84h27c46 0 76.333 3.66699 91 11
c21.333 10 36.666 26 45.999 48c5.33301 12 8 43 8 93v585h-172z" />
    <glyph glyph-name="n" unicode="n" horiz-adv-x="1352" 
d="M75 821v83.999c59.333 6.66699 103.666 14.667 132.999 24s71.666 29.333 126.999 60h72v-190c88 74 163.167 124.167 225.5 150.5s125.5 39.5 189.5 39.5c54.667 0 103 -9.16699 145 -27.5s76.167 -43.166 102.5 -74.499s43.833 -67 52.5 -107
c5.33301 -24.667 8 -62 8 -112v-440c0 -52.667 3.83301 -86.5 11.5 -101.5s19.834 -25.833 36.501 -32.5s57.667 -10 123 -10v-84h-515v84h28c48 0 80.667 4.33301 98 13s29.833 21.334 37.5 38.001s11.5 50.667 11.5 102v368c0 76 -6.16699 128.667 -18.5 158
s-33.333 53.166 -63 71.499s-67.167 27.5 -112.5 27.5c-54 0 -111.667 -13.833 -173 -41.5s-120.666 -68.5 -177.999 -122.5v-461c0 -52 3.83301 -86.667 11.5 -104s20.167 -30.333 37.5 -39c12 -6.66699 44 -10 96 -10h29v-84h-515v84h25c49.333 0 83 4.16699 101 12.5
s30.667 23.166 38 44.499c4 10.667 6 47.334 6 110.001v570h-170z" />
    <glyph glyph-name="o" unicode="o" horiz-adv-x="1147" 
d="M579 989c98 0 182.833 -20.333 254.5 -61s128.167 -100 169.5 -178s62 -167 62 -267s-21.167 -189 -63.5 -267s-100 -137.5 -173 -178.5s-160.167 -61.5 -261.5 -61.5c-161.333 0 -282.5 50.333 -363.5 151s-121.5 219 -121.5 355c0 99.333 21 187.5 63 264.5
s100.833 136.667 176.5 179s161.5 63.5 257.5 63.5zM571 892c-76 0 -140.331 -30.001 -192.998 -90.001c-66.667 -74.667 -100 -183.334 -100 -326.001c0 -137.333 28.333 -242 85 -314c51.333 -64 121 -96 209 -96c56.667 0 107.167 15 151.5 45
s80.166 77.833 107.499 143.5s41 142.834 41 231.501c0 86.667 -14.667 164.334 -44 233.001c-22.667 54.667 -56.834 97.167 -102.501 127.5s-97.167 45.5 -154.5 45.5z" />
    <glyph glyph-name="p" unicode="p" horiz-adv-x="1270" 
d="M64 822l-0.000976562 82.001c50 0 94.333 6.33301 133 19s81 34.667 127 66h79v-167c83.333 66 152.666 110.333 207.999 133s110.666 34 165.999 34c114 0 211.167 -44.667 291.5 -134s120.5 -205.666 120.5 -348.999c0 -158.667 -45.667 -288.667 -137 -390
c-83.333 -93.333 -190.666 -140 -321.999 -140c-65.333 0 -126.666 12.333 -183.999 37c-41.333 17.333 -89 48.333 -143 93v-329c0 -49.333 1.33301 -78.333 4 -87c3.33301 -12.667 10 -23.334 20 -32.001s22.667 -14.334 38 -17.001c11.333 -2 49.333 -3 114 -3v-84h-515
v84h45c46 0 75.833 3.5 89.5 10.5s23.834 17.833 30.501 32.5c4 11.333 6 46 6 104v1037h-171zM402.999 719.001l0.000976562 -344.001c0 -45.333 2.66699 -79 8 -101c8 -34 23.5 -64.667 46.5 -92s54.333 -50.666 94 -69.999s81.167 -29 124.5 -29
c86.667 0 161.834 32.667 225.501 98s95.5 164.333 95.5 297c0 124 -26.333 219.833 -79 287.5s-115 101.5 -187 101.5c-46.667 0 -97.334 -12.333 -152.001 -37s-113.334 -61.667 -176.001 -111z" />
    <glyph glyph-name="q" unicode="q" horiz-adv-x="1188" 
d="M916 965l109 0.000976562v-1180c0 -49.333 3 -81 9 -95c8.66699 -18.667 21 -32 37 -40s45 -12 87 -12h44v-84h-517v84h44c38.667 0 65.334 3.66699 80.001 11s25.834 18.5 33.501 33.5s11.5 41.833 11.5 80.5v356c-28 -26.667 -63.333 -51.334 -106 -74.001
s-87 -40.667 -133 -54c-34.667 -10 -71.667 -15 -111 -15c-78 0 -149.833 20.333 -215.5 61s-118.334 100.167 -158.001 178.5s-59.5 165.5 -59.5 261.5c0 134.667 39.667 250.667 119 348c89.333 109.333 205.666 164 348.999 164c62 0 117.5 -10.5 166.5 -31.5
s105.167 -61.167 168.5 -120.5zM854 217.001l0.000976562 375.999c0 69.333 -9.5 121.5 -28.5 156.5s-52 65.333 -99 91s-95.833 38.5 -146.5 38.5c-56.667 0 -109.5 -15.833 -158.5 -47.5s-87.667 -77.5 -116 -137.5s-42.5 -131.333 -42.5 -214
c0 -117.333 29 -211.666 87 -282.999s126 -107 204 -107c42 0 87.167 9.5 135.5 28.5s103.166 51.833 164.499 98.5z" />
    <glyph glyph-name="r" unicode="r" horiz-adv-x="901" 
d="M72 822l0.00195312 81.999c48.667 4 92 12.167 130 24.5s81.333 32.5 130 60.5h75v-189c47.333 58 102.333 104 165 138s119 51 169 51c49.333 0 88.333 -11.667 117 -35s43 -51.666 43 -84.999c0 -24 -9.5 -45.167 -28.5 -63.5s-41.833 -27.5 -68.5 -27.5
c-12 0 -22.333 1.66699 -31 5s-21.334 10.666 -38.001 21.999c-36.667 24 -67.334 36 -92.001 36c-33.333 0 -70 -14 -110 -42c-50.667 -36 -90.334 -71.333 -119.001 -106v-461c0 -40 2.16699 -67.167 6.5 -81.5s11.5 -26.666 21.5 -36.999s22.333 -17.833 37 -22.5
s40.334 -7 77.001 -7h33v-84h-517v84h43c40.667 0 67.334 3.66699 80.001 11c17.333 10 30.166 23.833 38.499 41.5s12.5 49.5 12.5 95.5v590h-174z" />
    <glyph glyph-name="s" unicode="s" horiz-adv-x="1065" 
d="M751 965h70.001l90 -306l-90 -30c-36 82 -86.5 146.5 -151.5 193.5s-130.833 70.5 -197.5 70.5c-51.333 0 -93 -12.5 -125 -37.5s-48 -53.833 -48 -86.5c0 -30.667 11.667 -57 35 -79c22.667 -22.667 73.667 -48.334 153 -77.001l195 -69
c110 -39.333 185 -81.333 225 -126c39.333 -45.333 59 -96.666 59 -153.999c0 -48.667 -14.667 -95.5 -44 -140.5s-71.833 -80.833 -127.5 -107.5s-119.5 -40 -191.5 -40c-112 0 -208 32 -288 96l-21 -72h-71l-125 327l91 36c60.667 -96 118 -164 172 -204
c75.333 -56.667 156.666 -85 243.999 -85c58 0 105.667 15.5 143 46.5s56 65.5 56 103.5c0 31.333 -11.667 60 -35 86c-24 25.333 -70 50 -138 74l-231 84c-99.333 36 -168.333 75.333 -207 118s-58 91.667 -58 147c0 67.333 31.5 126.833 94.5 178.5
s143.167 77.5 240.5 77.5c50.667 0 96 -6.5 136 -19.5s79.333 -34.5 118 -64.5z" />
    <glyph glyph-name="t" unicode="t" horiz-adv-x="778" 
d="M337 1305l71 -0.00292969v-340h297v-100h-297v-603c0 -51.333 4.5 -88 13.5 -110s24.333 -40 46 -54s45.834 -21 72.501 -21c63.333 0 133.333 28.333 210 85v-97c-87.333 -59.333 -175.666 -89 -264.999 -89c-50.667 0 -96.5 11.333 -137.5 34s-69 49.334 -84 80.001
s-22.5 84 -22.5 160v615h-175v84c56 12.667 101.167 32.334 135.5 59.001s62.166 61.334 83.499 104.001s38.666 107 51.999 193z" />
    <glyph glyph-name="u" unicode="u" horiz-adv-x="1393" 
d="M20 965l379.001 15.001v-644c0 -56.667 7.83301 -101.667 23.5 -135s39.667 -59.166 72 -77.499s70.166 -27.5 113.499 -27.5c53.333 0 113.833 14.333 181.5 43s135.167 71.334 202.5 128.001v466c0 49.333 -3.66699 81.666 -11 96.999s-20.333 27.666 -39 36.999
s-48 14 -88 14h-73v84l379 15v-746c0 -48 4 -81.167 12 -99.5s19.833 -31.333 35.5 -39s47.167 -11.5 94.5 -11.5h31v-84l-332 -17v185c-91.333 -72.667 -171 -122.834 -239 -150.501s-137 -41.5 -207 -41.5c-52 0 -97.167 7 -135.5 21s-72 35 -101 63
s-51.167 61.667 -66.5 101s-23 81.333 -23 126v455c0 40.667 -3.66699 69.167 -11 85.5s-19.5 29.333 -36.5 39s-40.167 14.5 -69.5 14.5h-92v84z" />
    <glyph glyph-name="v" unicode="v" horiz-adv-x="1065" 
d="M0 965l457.999 -0.000976562v-84h-28c-38 0 -61.667 -1.33301 -71 -4c-13.333 -4 -23.333 -10.333 -30 -19s-10 -19 -10 -31c0 -16.667 7.33301 -43.667 22 -81l228 -569l221 569c14 36.667 21 63.334 21 80.001c0 17.333 -6.66699 30.833 -20 40.5
s-37.333 14.5 -72 14.5h-48v84h395v-84c-27.333 -0.666992 -50.166 -5 -68.499 -13s-32.666 -18.333 -42.999 -31s-25.833 -43 -46.5 -91l-319 -746h-120l-321 763c-13.333 31.333 -28 57 -44 77c-10.667 12.667 -24.834 22.667 -42.501 30s-38.167 11 -61.5 11v84z" />
    <glyph glyph-name="w" unicode="w" horiz-adv-x="1597" 
d="M-1 965l460.001 0.000976562v-84h-32c-39.333 0 -65.333 -3 -78 -9c-20 -9.33301 -30 -24 -30 -44c0 -18.667 7.66699 -48.667 23 -90l207 -547l202 508l-18 47c-20.667 54 -44.667 91.333 -72 112c-18 13.333 -44.667 21 -80 23v84h458v-84h-39
c-36.667 0 -60.334 -3 -71.001 -9c-18.667 -10.667 -28 -27.667 -28 -51c0 -20 7 -47.667 21 -83l207 -547l202 555c10.667 30 16.334 47 17.001 51c2 7.33301 3 15 3 23c0 18.667 -7.33301 33.5 -22 44.5s-41.667 16.5 -81 16.5h-37v84h388v-84
c-28.667 -1.33301 -52 -6.33301 -70 -15s-32.333 -20 -43 -34s-25.667 -45.333 -45 -94l-292 -738h-120l-231 576l-228 -576h-119l-295 738c-18.667 47.333 -34 78.666 -46 93.999s-26.833 27.333 -44.5 36s-39.834 13 -66.501 13v84z" />
    <glyph glyph-name="x" unicode="x" horiz-adv-x="1147" 
d="M37 965l502.995 0.00488281v-84h-35c-20 0 -38.333 -2.33301 -55 -7c-10 -2.66699 -18.167 -7.83398 -24.5 -15.501s-9.5 -14.834 -9.5 -21.501c0 -15.333 12.667 -38.333 38 -69l143 -180l167 180c30.667 33.333 46 58.333 46 75c0 12 -5.33301 21.333 -16 28
s-33.667 10 -69 10h-38v84h427v-84c-42 -2 -78.167 -10.667 -108.5 -26s-66.166 -44.333 -107.499 -87l-229 -238l285 -325l11 -14c28 -36 59.333 -65 94 -87c19.333 -12.667 49.333 -19.334 90 -20.001v-84h-491v84h42c32 0 52.333 2 61 6c14.667 6.66699 22 18 22 34
c0 14.667 -16 41.667 -48 81l-182 223l-203 -223l-20 -24l-11 -12c-16.667 -18 -25 -34 -25 -48c0 -12.667 5.16699 -22 15.5 -28s33.5 -9 69.5 -9h40v-84h-421v84c32.667 0.666992 58.334 4.16699 77.001 10.5s36.667 16.166 54 29.499c30 24 51.667 43 65 57l293 301
l-249 286c-31.333 35.333 -56.166 60.166 -74.499 74.499s-36.166 24.333 -53.499 30s-41.666 8.5 -72.999 8.5v84z" />
    <glyph glyph-name="y" unicode="y" horiz-adv-x="1106" 
d="M-11 965l485.999 -0.00292969v-84h-40c-38 0 -60.667 -1 -68 -3c-8.66699 -2.66699 -16 -8.16699 -22 -16.5s-9 -18.833 -9 -31.5c0 -18 9 -48.333 27 -91l232 -545l215 521c25.333 61.333 38 102 38 122c0 15.333 -5.66699 26.5 -17 33.5s-37 10.5 -77 10.5h-47v84h409
v-84h-24c-40 0 -66 -2.66699 -78 -8s-23.667 -16.166 -35 -32.499s-29.333 -53.5 -54 -111.5l-367 -855c-26.667 -61.333 -56.334 -118.166 -89.001 -170.499s-73.667 -92.833 -123 -121.5s-103.666 -43 -162.999 -43c-68.667 0 -123.667 15.667 -165 47
c-35.333 26.667 -53 60 -53 100c0 24.667 7.66699 45.167 23 61.5s33.333 24.5 54 24.5c16 0 31 -3.33301 45 -10c8.66699 -3.33301 26.667 -17.333 54 -42c33.333 -29.333 56.833 -47.333 70.5 -54s27.167 -10 40.5 -10c27.333 0 54.333 9.33301 81 28s49.334 45 68.001 79
c26.667 48.667 48.667 94.334 66 137.001l41 100l-330 739c-23.333 52 -43 87 -59 105s-32 29 -48 33c-8.66699 2.66699 -36 4 -82 4v84z" />
    <glyph glyph-name="z" unicode="z" horiz-adv-x="983" 
d="M205 965h729v-84l-674 -788h166c130 0 223.333 15.667 280 47c78 44 136 118.333 174 223l89 -32l-123 -331h-810v84l674 781h-197c-91.333 0 -162.5 -16.333 -213.5 -49s-98.167 -94.667 -141.5 -186l-86 41z" />
    <glyph glyph-name="braceleft" unicode="{" horiz-adv-x="573" 
d="M637 -407l-0.000976562 -34.9971c-65.333 9.33301 -122 28 -170 56c-64.667 37.333 -115.167 85.333 -151.5 144s-54.5 121.667 -54.5 189c0 44.667 7 96.667 21 156c16.667 69.333 25 120.333 25 153c0 50.667 -20.5 96.667 -61.5 138s-96.5 66.666 -166.5 75.999v41
c70 9.33301 125.5 34.5 166.5 75.5s61.5 87.5 61.5 139.5c0 32 -8.33301 82.667 -25 152c-14 59.333 -21 111.666 -21 156.999c0 68 19.333 132 58 192s90.334 108 155.001 144c46 26 100.333 43 163 51v-35c-77.333 -18.667 -134.333 -48.834 -171 -90.501
s-55 -90.5 -55 -146.5c0 -34.667 8 -87 24 -157c14 -60.667 21 -112.667 21 -156c0 -69.333 -25.167 -135.5 -75.5 -198.5s-123.5 -111.5 -219.5 -145.5c94 -34.667 166.667 -84 218 -148s77 -131 77 -201c0 -44 -7 -96 -21 -156c-16 -70 -24 -122.667 -24 -158
c0 -54.667 18.333 -103 55 -145s93.667 -72.667 171 -92z" />
    <glyph glyph-name="bar" unicode="|" horiz-adv-x="1229" 
d="M543 1467h146v-1913h-146v1913z" />
    <glyph glyph-name="braceright" unicode="}" horiz-adv-x="573" 
d="M-27 1387v34.998c64.667 -8.66699 121.334 -27 170.001 -55c64.667 -37.333 115.167 -85.333 151.5 -144s54.5 -121.667 54.5 -189c0 -45.333 -7 -97.333 -21 -156c-16.667 -69.333 -25 -120.333 -25 -153c0 -50.667 20.5 -96.667 61.5 -138s96.5 -66.666 166.5 -75.999
v-41c-70 -9.33301 -125.5 -34.5 -166.5 -75.5s-61.5 -87.5 -61.5 -139.5c0 -32 8.33301 -82.667 25 -152c14 -59.333 21 -111.666 21 -156.999c0 -68 -19.333 -132 -58 -192s-90.334 -108 -155.001 -144c-46 -26 -100.333 -43.333 -163 -52v35
c77.333 19.333 134.333 49.833 171 91.5s55 90.5 55 146.5c0 34.667 -8 87 -24 157c-14.667 60 -22 112 -22 156c0 69.333 25.333 135.5 76 198.5s124 111.5 220 145.5c-94 34.667 -166.833 84 -218.5 148s-77.5 131 -77.5 201c0 43.333 7.33301 95.333 22 156
c16 70 24 122.667 24 158c0 54.667 -18.333 103 -55 145s-93.667 72.333 -171 91z" />
    <glyph glyph-name="asciitilde" unicode="~" horiz-adv-x="1229" 
d="M981 841l87 -96.999c-20.667 -52 -44.167 -92.833 -70.5 -122.5s-55.5 -52.167 -87.5 -67.5s-66 -23 -102 -23c-26.667 0 -53.667 5 -81 15c-13.333 4.66699 -54 24.334 -122 59.001l-133 64c-16.667 6.66699 -33.667 10 -51 10c-32 0 -57.833 -11.333 -77.5 -34
s-49.167 -71.334 -88.5 -146.001l-95 98c26.667 53.333 53.5 94.166 80.5 122.499s55.833 49.833 86.5 64.5s61.667 22 93 22c23.333 0 48.333 -4.33301 75 -13s75.334 -31 146.001 -67c64 -32.667 104.167 -52.167 120.5 -58.5s29.833 -9.5 40.5 -9.5
c31.333 0 60.666 13.667 87.999 41c18.667 18.667 49 66 91 142z" />
    <glyph glyph-name="nbspace" unicode="&#xa0;" horiz-adv-x="696" 
 />
    <glyph glyph-name="exclamdown" unicode="&#xa1;" horiz-adv-x="614" 
d="M307 725c-34.667 0 -64.167 12.167 -88.5 36.5s-36.5 53.833 -36.5 88.5c0 34 12.333 63.333 37 88s54 37 88 37c34.667 0 64.334 -12.167 89.001 -36.5s37 -53.833 37 -88.5s-12.333 -64.167 -37 -88.5s-54.334 -36.5 -89.001 -36.5zM351 623l75.999 -894
c2.66699 -25.333 4 -41.333 4 -48c0 -48.667 -10.667 -84.5 -32 -107.5s-52.666 -34.5 -93.999 -34.5c-36 0 -65.167 11 -87.5 33s-33.5 51.333 -33.5 88c0 12.667 1.66699 33 5 61l79 902h83z" />
    <glyph glyph-name="cent" unicode="&#xa2;" horiz-adv-x="1270" 
d="M634 1395h96v-215c80 -10.667 146.167 -29.5 198.5 -56.5s91.166 -57.667 116.499 -92s38 -66.5 38 -96.5c0 -25.333 -9 -46.833 -27 -64.5s-40 -26.5 -66 -26.5c-24.667 0 -45.5 6.83301 -62.5 20.5s-33.5 41.834 -49.5 84.501c-16 44 -35.833 76.667 -59.5 98
s-53.167 35.333 -88.5 42v-749c59.333 10.667 109.833 28.167 151.5 52.5s92.167 68.5 151.5 132.5l65 -55c-61.333 -76.667 -122 -133.334 -182 -170.001s-122 -58.334 -186 -65.001v-235h-96v235c-82.667 7.33301 -156.667 32 -222 74s-115.833 97.5 -151.5 166.5
s-53.5 147.167 -53.5 234.5s17.167 164.333 51.5 231s84.833 121.334 151.5 164.001s141.334 67.667 224.001 75v215zM634 1085c-37.333 -7.33301 -69.668 -20.332 -97.001 -38.999s-52.333 -43.667 -75 -75s-39.5 -68 -50.5 -110s-16.5 -91.667 -16.5 -149
c0 -68.667 11 -128.834 33 -180.501s55 -95.167 99 -130.5c26.667 -22.667 62.334 -41 107.001 -55v739z" />
    <glyph glyph-name="sterling" unicode="&#xa3;" horiz-adv-x="1270" 
d="M57 823l264.996 -0.000976562c-30 69.333 -45 138 -45 206c0 68.667 18.833 132.5 56.5 191.5s93.334 106.833 167.001 143.5s154.5 55 242.5 55c82.667 0 154.334 -15.833 215.001 -47.5s108.834 -77.334 144.501 -137.001s57.5 -135.834 65.5 -228.501l-97 -14
c-16 86 -36.833 148.833 -62.5 188.5s-60.167 71.167 -103.5 94.5s-92 35 -146 35c-82 0 -150.5 -25.667 -205.5 -77s-82.5 -112.666 -82.5 -183.999s17.667 -146.666 53 -225.999h366v-97h-334c25.333 -76 42.5 -139 51.5 -189s13.5 -99 13.5 -147
c0 -38.667 -4.33301 -77.334 -13 -116.001c142.667 -77.333 256.334 -116 341.001 -116c36.667 0 71.334 11.167 104.001 33.5s60.5 58.833 83.5 109.5s38.167 113.667 45.5 189l93 -7c0.666992 -100 -16.833 -192.167 -52.5 -276.5s-77.167 -143.833 -124.5 -178.5
s-102.333 -52 -165 -52c-52 0 -105.833 13 -161.5 39s-122.167 74 -199.5 144c-32 -61.333 -71.667 -106 -119 -134c-54.667 -32.667 -113.667 -49 -177 -49c-50 0 -94.667 10.333 -134 31s-69.5 48.834 -90.5 84.501s-31.5 75.167 -31.5 118.5
c0 42.667 10.667 82.334 32 119.001s50.666 65.167 87.999 85.5s78.666 30.5 123.999 30.5c85.333 0 163.333 -36.333 234 -109c-4.66699 41.333 -12.667 78.333 -24 111c-17.333 54.667 -44.666 122 -81.999 202c-16 36 -26.667 61.667 -32 77h-303v97zM497.996 219.999
c-10.667 8.66699 -27 23 -49 43c-29.333 26.667 -50 43.334 -62 50.001c-21.333 12 -42 21 -62 27s-38.667 9 -56 9c-37.333 0 -70.166 -13.833 -98.499 -41.5s-42.5 -59.834 -42.5 -96.501c0 -40 14.667 -73.833 44 -101.5s66.666 -41.5 111.999 -41.5
c44 0 85.667 13.5 125 40.5s69 64.167 89 111.5z" />
    <glyph glyph-name="currency" unicode="&#xa4;" horiz-adv-x="1229" 
d="M126 1109l88.998 91.002l129 -129c40.667 30.667 83.334 53.667 128.001 69s91.334 23 140.001 23c98.667 0 189.667 -30.667 273 -92l129 129l88 -91l-128 -128c61.333 -86.667 92 -178.334 92 -275.001c0 -98 -30.667 -186.333 -92 -265l128 -128l-88 -88l-129 127
c-42.667 -30.667 -87 -53.834 -133 -69.501s-93.333 -23.5 -142 -23.5c-97.333 0 -186 31 -266 93l-128 -127l-90 88l129 128c-60.667 94 -91 186 -91 276c0 92 30.333 180 91 264zM614.998 1035c-89.333 0 -165.833 -31.667 -229.5 -95s-95.5 -140 -95.5 -230
c0 -89.333 31.833 -165.833 95.5 -229.5s140.167 -95.5 229.5 -95.5c90 0 166.667 31.833 230 95.5s95 140.167 95 229.5c0 90 -31.667 166.667 -95 230s-140 95 -230 95z" />
    <glyph glyph-name="yen" unicode="&#xa5;" horiz-adv-x="1270" 
d="M791 685l374.002 0.00195312v-97h-432l-5 -9v-127h437v-97h-437v-127c0 -51.333 4.16699 -84.666 12.5 -99.999s21.5 -26.5 39.5 -33.5s60 -10.5 126 -10.5v-84h-545v84h42c44.667 0 74.5 4 89.5 12s26.833 21 35.5 39c6 12.667 9 43.667 9 93v127h-431v97h431v90l-26 46
h-405v97h350l-288 513c-29.333 52.667 -53.833 84.167 -73.5 94.5s-56.167 16.166 -109.5 17.499v85h522v-85h-59c-36 0 -59.167 -3.33301 -69.5 -10s-15.5 -17.667 -15.5 -33c0 -13.333 6.33301 -31.333 19 -54c3.33301 -5.33301 7.66602 -13 12.999 -23l272 -504l301 523
c12 21.333 19.167 35.166 21.5 41.499s3.5 12.833 3.5 19.5c0 9.33301 -2.5 17.166 -7.5 23.499s-12.833 11.166 -23.5 14.499c-6.66699 1.33301 -25.334 2 -56.001 2h-52v85h431v-85c-38 0.666992 -66.167 -1.66602 -84.5 -6.99902s-33.333 -13.5 -45 -24.5
s-28.167 -34.167 -49.5 -69.5z" />
    <glyph glyph-name="brokenbar" unicode="&#xa6;" horiz-adv-x="1229" 
d="M543 1467h146v-834l-146 -82v916zM543 387l146 82v-915h-146v833z" />
    <glyph glyph-name="section" unicode="&#xa7;" horiz-adv-x="1065" 
d="M290 825c-64.667 32 -113.17 70.498 -145.503 115.498s-48.5 96.167 -48.5 153.5c0 90 39.5 166.667 118.5 230s186.833 95 323.5 95c138 0 247.333 -31.333 328 -94c63.333 -49.333 95 -106.666 95 -171.999c0 -34.667 -9.16699 -61.667 -27.5 -81s-42.5 -29 -72.5 -29
c-16 0 -30.667 4 -44 12s-24.166 19.5 -32.499 34.5s-15.833 39.167 -22.5 72.5c-6.66699 35.333 -14.5 60.5 -23.5 75.5s-23 29.333 -42 43s-42.667 24.334 -71 32.001s-59.5 11.5 -93.5 11.5c-82 0 -146.833 -18.667 -194.5 -56s-71.5 -83 -71.5 -137
c0 -38.667 10.333 -71 31 -97s57.667 -50.333 111 -73c21.333 -9.33301 88 -30 200 -62c102 -29.333 178 -60.5 228 -93.5s87 -70.833 111 -113.5s36 -89.334 36 -140.001c0 -48.667 -13.833 -100.334 -41.5 -155.001s-67.834 -107 -120.501 -157
c52.667 -23.333 93.334 -54.666 122.001 -93.999c37.333 -50.667 56 -107 56 -169c0 -61.333 -18.5 -119.5 -55.5 -174.5s-90.833 -98.833 -161.5 -131.5s-155 -49 -253 -49c-96 0 -178.5 14.333 -247.5 43s-122.167 68 -159.5 118s-56 97.667 -56 143
c0 29.333 9.83301 55.333 29.5 78s41.167 34 64.5 34c17.333 0 33.833 -4.66699 49.5 -14s26.667 -20 33 -32s11.5 -35 15.5 -69c4.66699 -40.667 12.334 -71 23.001 -91c17.333 -34 47.833 -62 91.5 -84s96.834 -33 159.501 -33c62 0 116.333 10.167 163 30.5
s81 47.333 103 81s33 70.834 33 111.501c0 27.333 -6 52.333 -18 75s-30 43 -54 61s-55.333 34 -94 48c-12.667 4.66699 -49.667 14.334 -111 29.001c-83.333 20 -142.333 35.667 -177 47c-70 24 -125.667 50.667 -167 80s-73 64.666 -95 105.999s-33 84 -33 128
c0 50 15.167 100 45.5 150s84.5 104.333 162.5 163zM369.997 792.998c-48 -41.333 -82.333 -81.166 -103 -119.499s-31 -73.5 -31 -105.5c0 -34 11 -67.833 33 -101.5s55.833 -61.5 101.5 -83.5s121.834 -45.667 228.501 -71c70.667 -16 118.667 -28.667 144 -38
c30 30 53.333 63.5 70 100.5s25 72.833 25 107.5c0 39.333 -8.83301 74.666 -26.5 105.999s-44.834 58.5 -81.501 81.5s-100.167 47.5 -190.5 73.5s-146.833 42.667 -169.5 50z" />
    <glyph glyph-name="dieresis" unicode="&#xa8;" horiz-adv-x="860" 
d="M263 1378c33.333 0 62 -12 86 -36s36 -53 36 -87c0 -33.333 -12 -62 -36 -86s-52.667 -36 -86 -36s-62 12 -86 36s-36 52.667 -36 86c0 34 11.833 63 35.5 87s52.5 36 86.5 36zM597 1378c33.333 0 62 -12 86 -36s36 -53 36 -87c0 -33.333 -12 -62 -36 -86
s-52.667 -36 -86 -36c-34 0 -62.833 12 -86.5 36s-35.5 52.667 -35.5 86c0 34 11.833 63 35.5 87s52.5 36 86.5 36z" />
    <glyph glyph-name="copyright" unicode="&#xa9;" horiz-adv-x="1516" 
d="M798 1387c126.667 0 245 -31.667 355 -95s196.667 -149.833 260 -259.5s95 -227.834 95 -354.501s-31.667 -244.834 -95 -354.501s-150 -196.167 -260 -259.5s-228.333 -95 -355 -95s-244.834 31.667 -354.501 95s-196.167 149.833 -259.5 259.5s-95 227.834 -95 354.501
s31.667 244.834 95 354.501s149.833 196.167 259.5 259.5s227.834 95 354.501 95zM798 1326c-115.333 0 -223.166 -29 -323.499 -87s-179.333 -137 -237 -237s-86.5 -208 -86.5 -324s28.833 -224 86.5 -324s136.667 -179 237 -237s208.166 -87 323.499 -87
c116 0 224.167 29 324.5 87s179.333 137 237 237s86.5 208 86.5 324s-28.833 224 -86.5 324s-136.667 179 -237 237s-208.5 87 -324.5 87zM1149 1134l19.999 -280h-39c-17.333 56 -39.333 100 -66 132s-60.667 57.333 -102 76s-86.333 28 -135 28
c-62.667 0 -118.5 -15.5 -167.5 -46.5s-85.167 -71.833 -108.5 -122.5c-30 -64 -45 -137.333 -45 -220c0 -94 13 -170.333 39 -229s64.667 -104 116 -136s110 -48 176 -48c42 0 82.5 6.33301 121.5 19s73.333 29.834 103 51.501s58.834 52.167 87.501 91.5l37 -19
c-41.333 -60.667 -88.333 -106.667 -141 -138c-70.667 -43.333 -151.334 -65 -242.001 -65c-88 0 -167 19.5 -237 58.5s-125.167 92.833 -165.5 161.5s-60.5 143.334 -60.5 224.001c0 83.333 21.333 160.666 64 231.999s101.834 127.666 177.501 168.999
s161.167 62 256.5 62c30.667 0 56.167 -2 76.5 -6s56.5 -14.667 108.5 -32c16.667 -5.33301 29 -8 37 -8c11.333 0 20.5 3 27.5 9s14.167 18 21.5 36h40z" />
    <glyph glyph-name="ordfeminine" unicode="&#xaa;" horiz-adv-x="860" 
d="M548 1172l-0.000976562 59.001c0 40.667 -11.167 70.5 -33.5 89.5s-58.5 28.5 -108.5 28.5c-26.667 0 -49 -3.33301 -67 -10s-31.333 -15.334 -40 -26.001s-16.667 -28.667 -24 -54c-9.33301 -32 -19.5 -53 -30.5 -63s-26.5 -15 -46.5 -15c-22 0 -39.333 6 -52 18
s-19 27.667 -19 47c0 43.333 26.167 83 78.5 119s124.166 54 215.499 54c62.667 0 114.167 -9 154.5 -27s69.5 -41 87.5 -69c14 -22 21 -60.333 21 -115v-230c0 -35.333 2 -59.333 6 -72s10.5 -22.167 19.5 -28.5s21.5 -9.5 37.5 -9.5c18 0 45.667 6 83 18v-67
c-42 -11.333 -79 -17 -111 -17s-56.667 3.33301 -74 10c-25.333 10 -46.333 23 -63 39c-10.667 10 -18.667 24.333 -24 43c-43.333 -30.667 -86.666 -53.667 -129.999 -69s-86.666 -23 -129.999 -23c-64.667 0 -116.5 15.833 -155.5 47.5s-58.5 68.5 -58.5 110.5
c0 50.667 27.667 93.5 83 128.5s182.333 62.833 381 83.5zM547.999 1106c-103.333 -14.667 -166.333 -24.667 -189 -30c-50 -12 -84.5 -27.167 -103.5 -45.5s-28.5 -38.166 -28.5 -59.499c0 -24.667 9.5 -45.334 28.5 -62.001s43.167 -25 72.5 -25c26 0 56 6 90 18
s77.333 34.667 130 68v136z" />
    <glyph glyph-name="guillemotleft" unicode="&#xab;" horiz-adv-x="737" 
d="M275 851l76 -36l-107 -319l107 -311l-76 -38l-185 349zM520 851l77 -36l-107 -319l107 -311l-77 -38l-184 349z" />
    <glyph glyph-name="logicalnot" unicode="&#xac;" horiz-adv-x="1229" 
d="M127 718h975v-737h-117v620h-858v117z" />
    <glyph glyph-name="registered" unicode="&#xae;" horiz-adv-x="1516" 
d="M798 1387c126.667 0 245 -31.667 355 -95s196.667 -149.833 260 -259.5s95 -227.834 95 -354.501s-31.667 -244.834 -95 -354.501s-150 -196.167 -260 -259.5s-228.333 -95 -355 -95s-244.834 31.667 -354.501 95s-196.167 149.833 -259.5 259.5s-95 227.834 -95 354.501
s31.667 244.834 95 354.501s149.833 196.167 259.5 259.5s227.834 95 354.501 95zM798 1326c-115.333 0 -223.166 -29 -323.499 -87s-179.333 -137 -237 -237s-86.5 -208 -86.5 -324s28.833 -224 86.5 -324s136.667 -179 237 -237s208.166 -87 323.499 -87
c116 0 224.167 29 324.5 87s179.333 137 237 237s86.5 208 86.5 324s-28.833 224 -86.5 324s-136.667 179 -237 237s-208.5 87 -324.5 87zM406 1114l386 0.000976562c94.667 0 167.834 -21.333 219.501 -64s77.5 -96 77.5 -160c0 -55.333 -18.667 -101.5 -56 -138.5
s-92.666 -64.833 -165.999 -83.5l209 -298c24 -34 46 -57.667 66 -71c12.667 -9.33301 31 -15 55 -17v-33h-184l-294 405h-76v-309c4.66699 -22.667 14.667 -38.834 30 -48.501s44.666 -14.5 87.999 -14.5v-33h-367v33c32.667 0 56.167 4.33301 70.5 13
s24.5 22.334 30.5 41.001c2 8 3 36 3 84v523c0 47.333 -0.666992 74.666 -2 81.999c-4 17.333 -12.333 30.5 -25 39.5s-34.334 13.5 -65.001 13.5v36zM643 697.001c75.333 0 131.501 7 168.501 21s65.667 35.333 86 64s30.5 61 30.5 97c0 54 -18.833 99.333 -56.5 136
s-85.834 55 -144.501 55c-25.333 0 -53.333 -5.33301 -84 -16v-357z" />
    <glyph glyph-name="overscore" unicode="&#xaf;" horiz-adv-x="1024" 
d="M-12 1596h1048v-102h-1048v102z" />
    <glyph glyph-name="degree" unicode="&#xb0;" horiz-adv-x="819" 
d="M409 1419c76 0 140.667 -26.667 194 -80s80 -118 80 -194c0 -75.333 -26.667 -139.666 -80 -192.999s-118 -80 -194 -80c-75.333 0 -139.666 26.667 -192.999 80s-80 117.666 -80 192.999c0 76 26.667 140.667 80 194s117.666 80 192.999 80zM409 1320
c-48.667 0 -90.334 -17 -125.001 -51s-52 -75.333 -52 -124c0 -48 17.333 -89.167 52 -123.5s76.334 -51.5 125.001 -51.5c49.333 0 91.333 17.167 126 51.5s52 75.5 52 123.5c0 48.667 -17.333 90 -52 124s-76.667 51 -126 51z" />
    <glyph glyph-name="plusminus" unicode="&#xb1;" horiz-adv-x="1124" 
d="M1050 875v-123h-426v-426h-123v426h-426v123h426v425h123v-425h426zM1050 251v-123h-975v123h975z" />
    <glyph glyph-name="twosuperior" unicode="&#xb2;" horiz-adv-x="762" 
d="M155 1126l-79.999 -8.99902c-4 28.667 -6 51 -6 67c0 39.333 12.333 77.333 37 114s60.834 66 108.501 88s102.5 33 164.5 33c90 0 161 -21.5 213 -64.5s78 -96.5 78 -160.5c0 -38.667 -9.5 -76.334 -28.5 -113.001s-50.5 -72 -94.5 -106s-149.667 -102 -317 -204h278
c32 0 52.167 1.66699 60.5 5s14.666 9 18.999 17s10.166 30.333 17.499 67h75l-43 -205h-59l-7 26h-517v51l102 67c115.333 74.667 198.5 134 249.5 178s86.5 84.667 106.5 122c14 26.667 21 55.667 21 87c0 47.333 -16.167 85.833 -48.5 115.5s-76.166 44.5 -131.499 44.5
c-60.667 0 -109.334 -16.5 -146.001 -49.5s-55 -73.167 -55 -120.5c0 -10 1 -26.667 3 -50z" />
    <glyph glyph-name="threesuperior" unicode="&#xb3;" horiz-adv-x="762" 
d="M176 1202l-80.002 9.99707c5.33301 36 14 64.667 26 86c20.667 34.667 53 63.5 97 86.5s97 34.5 159 34.5c84.667 0 150.834 -18.167 198.501 -54.5s71.5 -79.833 71.5 -130.5c0 -30.667 -11.333 -58.667 -34 -84c-31.333 -33.333 -70.666 -57.666 -117.999 -72.999
c58.667 -11.333 104.834 -34.833 138.501 -70.5s50.5 -75.5 50.5 -119.5c0 -55.333 -29.167 -105.666 -87.5 -150.999s-135.5 -68 -231.5 -68c-92.667 0 -168.167 20 -226.5 60s-87.5 78.333 -87.5 115c0 15.333 6.16699 28.333 18.5 39s28.5 16 48.5 16
c18.667 0 34.167 -4.66699 46.5 -14s22.833 -26.666 31.5 -51.999c24 -68.667 77 -103 159 -103c57.333 0 103.5 15.833 138.5 47.5s52.5 71.167 52.5 118.5c0 21.333 -4.16699 40.5 -12.5 57.5s-21.333 32.833 -39 47.5s-36.167 24.334 -55.5 29.001
c-31.333 8 -64.666 12 -99.999 12h-67v62h47c68 0 116.833 11 146.5 33s44.5 51.667 44.5 89c0 34.667 -13.5 63.167 -40.5 85.5s-64.833 33.5 -113.5 33.5c-32.667 0 -61.834 -5.66699 -87.501 -17s-45.834 -26.333 -60.501 -45s-25.667 -45.334 -33 -80.001z" />
    <glyph glyph-name="acute" unicode="&#xb4;" horiz-adv-x="696" 
d="M140 1170l0.000976562 34.999l185 136c63.333 46.667 116.333 70 159 70c20 0 36.833 -7.16699 50.5 -21.5s20.5 -32.166 20.5 -53.499c0 -26 -9.33301 -47.5 -28 -64.5s-52.334 -30.833 -101.001 -41.5z" />
    <glyph glyph-name="mu1" unicode="&#xb5;" horiz-adv-x="1180" 
d="M203 965l171.003 0.000976562v-623c0 -66 6.16699 -115.333 18.5 -148s31.166 -57.834 56.499 -75.501s53.666 -26.5 84.999 -26.5c34.667 0 73.667 13.333 117 40s90.666 66.334 141.999 119.001v714h167v-732c0 -48 3.33301 -78.333 10 -91c10 -18.667 27 -28 51 -28
c19.333 0 47 8 83 24v-54c-60 -43.333 -103.5 -71 -130.5 -83s-48.833 -18 -65.5 -18c-20.667 0 -39.834 6.16699 -57.501 18.5s-31 29.833 -40 52.5s-14.833 58 -17.5 106c-77.333 -80.667 -137.5 -132.667 -180.5 -156s-87.167 -35 -132.5 -35
c-35.333 0 -68.833 6.66699 -100.5 20s-57.5 31 -77.5 53s-40 57.333 -60 106c-2 -26 -3 -45.667 -3 -59c0 -54.667 13 -135 39 -241c14.667 -59.333 22 -98 22 -116c0 -27.333 -8.66699 -50.333 -26 -69s-38.666 -28 -63.999 -28c-28 0 -50.5 9.66699 -67.5 29
s-25.5 46.666 -25.5 81.999c0 25.333 7 76.333 21 153c24 126.667 40.833 245.5 50.5 356.5s14.5 243.833 14.5 398.5v311z" />
    <glyph glyph-name="paragraph" unicode="&#xb6;" horiz-adv-x="1229" 
d="M854 1262l-151 -0.000976562v-1706h-95v1071c-14 -0.666992 -24.667 -1 -32 -1c-98 0 -179 14.667 -243 44s-112 69.833 -144 121.5s-48 113.167 -48 184.5c0 52.667 9.66699 101.834 29 147.501s46.5 85.167 81.5 118.5s71.5 57.5 109.5 72.5s87.667 25.833 149 32.5
c30 3.33301 82.333 5 157 5h416v-72c-48 -4 -79.167 -10.167 -93.5 -18.5s-24.833 -22 -31.5 -41s-10 -57.5 -10 -115.5v-1549h-94v1706z" />
    <glyph glyph-name="middot" unicode="&#xb7;" horiz-adv-x="533" 
d="M266 855c34 0 63 -11.833 87 -35.5s36 -52.167 36 -85.5c0 -34 -12 -62.833 -36 -86.5s-53 -35.5 -87 -35.5s-63 11.833 -87 35.5s-36 52.5 -36 86.5c0 33.333 12 61.833 36 85.5s53 35.5 87 35.5z" />
    <glyph glyph-name="cedilla" unicode="&#xb8;" horiz-adv-x="655" 
d="M317 0l-26 -87c27.333 2 43.666 3 48.999 3c37.333 0 72 -7.33301 104 -22c24 -10.667 42.833 -27.167 56.5 -49.5s20.5 -48.833 20.5 -79.5c0 -52 -17.167 -94.167 -51.5 -126.5s-80.5 -48.5 -138.5 -48.5s-108 14.333 -150 43c-31.333 20.667 -47 44.667 -47 72
c0 14.667 4.83301 27 14.5 37s22.167 15 37.5 15s28 -3.5 38 -10.5s18.667 -20.167 26 -39.5c10 -22.667 18.333 -37 25 -43c15.333 -12 33.333 -18 54 -18c26.667 0 49.334 10.167 68.001 30.5s28 46.833 28 79.5c0 34 -10 60 -30 78s-51 27 -93 27
c-27.333 0 -60 -6.66699 -98 -20l51 159h62z" />
    <glyph glyph-name="onesuperior" unicode="&#xb9;" horiz-adv-x="762" 
d="M469 1406l-0.000976562 -598c0 -33.333 3.5 -53.5 10.5 -60.5s26.833 -10.5 59.5 -10.5h70v-56h-413v56h76c26.667 0 43.5 1.66699 50.5 5s12.5 9.33301 16.5 18s6 24.667 6 48v480h-149v56c38 4.66699 83.667 14 137 28c32.667 8.66699 51.334 16.5 56.001 23.5
s10.667 10.5 18 10.5h62z" />
    <glyph glyph-name="ordmasculine" unicode="&#xba;" horiz-adv-x="860" 
d="M433 1419c104 0 184.667 -29.667 242 -89s86 -133.333 86 -222c0 -86.667 -28.833 -160 -86.5 -220s-141.5 -90 -251.5 -90c-108 0 -189.167 30.833 -243.5 92.5s-81.5 134.167 -81.5 217.5c0 90.667 30.667 165.167 92 223.5s142.333 87.5 243 87.5zM428 1347
c-50.667 0 -93 -21.168 -127 -63.501s-51 -102.166 -51 -179.499c0 -79.333 16.167 -139 48.5 -179s75.5 -60 129.5 -60c60.667 0 106.5 23.167 137.5 69.5s46.5 104.5 46.5 174.5c0 50.667 -8 94.167 -24 130.5s-37.833 63.333 -65.5 81s-59.167 26.5 -94.5 26.5z" />
    <glyph glyph-name="guillemotright" unicode="&#xbb;" horiz-adv-x="737" 
d="M463 147l-76 36l107 319l-107 311l76 38l185 -349zM217 147l-76 36l107 319l-107 311l76 38l185 -349z" />
    <glyph glyph-name="onequarter" unicode="&#xbc;" horiz-adv-x="1905" 
d="M516 1406l-0.000976562 -598c0 -33.333 3.5 -53.5 10.5 -60.5s26.833 -10.5 59.5 -10.5h70v-56h-413v56h76c26.667 0 43.5 1.66699 50.5 5s12.5 9.33301 16.5 18s6 24.667 6 48v480h-149v56c38 4.66699 83.667 14 137 28c32.667 8.66699 51.334 16.5 56.001 23.5
s10.667 10.5 18 10.5h62zM1501 1419l-930 -1443h-119l928 1443h121zM1533 725h118v-414h155v-77h-155v-234h-123v234h-388v98zM1528 311v304l-303 -304h303z" />
    <glyph glyph-name="onehalf" unicode="&#xbd;" horiz-adv-x="1905" 
d="M516 1406l-0.000976562 -598c0 -33.333 3.5 -53.5 10.5 -60.5s26.833 -10.5 59.5 -10.5h70v-56h-413v56h76c26.667 0 43.5 1.66699 50.5 5s12.5 9.33301 16.5 18s6 24.667 6 48v480h-149v56c38 4.66699 83.667 14 137 28c32.667 8.66699 51.334 16.5 56.001 23.5
s10.667 10.5 18 10.5h62zM1477 1419l-930 -1443h-119l928 1443h121zM1251 446l-79.999 -8.99902c-4 28.667 -6 51 -6 67c0 39.333 12.333 77.333 37 114s60.834 66 108.501 88s102.5 33 164.5 33c90 0 161 -21.5 213 -64.5s78 -96.5 78 -160.5
c0 -38.667 -9.5 -76.334 -28.5 -113.001s-50.5 -72 -94.5 -106s-149.667 -102 -317 -204h278c32 0 52.167 1.66699 60.5 5s14.666 9 18.999 17s10.166 30.333 17.499 67h75l-43 -205h-59l-7 26h-517v51l102 67c115.333 74.667 198.5 134 249.5 178s86.5 84.667 106.5 122
c14 26.667 21 55.667 21 87c0 47.333 -16.167 85.833 -48.5 115.5s-76.166 44.5 -131.499 44.5c-60.667 0 -109.334 -16.5 -146.001 -49.5s-55 -73.167 -55 -120.5c0 -10 1 -26.667 3 -50z" />
    <glyph glyph-name="threequarters" unicode="&#xbe;" horiz-adv-x="1905" 
d="M224 1202l-80.002 9.99707c5.33301 36 14 64.667 26 86c20.667 34.667 53 63.5 97 86.5s97 34.5 159 34.5c84.667 0 150.834 -18.167 198.501 -54.5s71.5 -79.833 71.5 -130.5c0 -30.667 -11.333 -58.667 -34 -84c-31.333 -33.333 -70.666 -57.666 -117.999 -72.999
c58.667 -11.333 104.834 -34.833 138.501 -70.5s50.5 -75.5 50.5 -119.5c0 -55.333 -29.167 -105.666 -87.5 -150.999s-135.5 -68 -231.5 -68c-92.667 0 -168.167 20 -226.5 60s-87.5 78.333 -87.5 115c0 15.333 6.16699 28.333 18.5 39s28.5 16 48.5 16
c18.667 0 34.167 -4.66699 46.5 -14s22.833 -26.666 31.5 -51.999c24 -68.667 77 -103 159 -103c57.333 0 103.5 15.833 138.5 47.5s52.5 71.167 52.5 118.5c0 21.333 -4.16699 40.5 -12.5 57.5s-21.333 32.833 -39 47.5s-36.167 24.334 -55.5 29.001
c-31.333 8 -64.666 12 -99.999 12h-67v62h47c68 0 116.833 11 146.5 33s44.5 51.667 44.5 89c0 34.667 -13.5 63.167 -40.5 85.5s-64.833 33.5 -113.5 33.5c-32.667 0 -61.834 -5.66699 -87.501 -17s-45.834 -26.333 -60.501 -45s-25.667 -45.334 -33 -80.001zM1526 1419
l-930 -1443h-119l928 1443h121zM1534 724.997h118v-414h155v-77h-155v-234h-123v234h-388v98zM1529 310.997v304l-303 -304h303z" />
    <glyph glyph-name="questiondown" unicode="&#xbf;" horiz-adv-x="1106" 
d="M701 725c-34.667 0 -64.334 12.167 -89.001 36.5s-37 53.833 -37 88.5c0 34 12.333 63.333 37 88s54.334 37 89.001 37s64.167 -12.167 88.5 -36.5s36.5 -53.833 36.5 -88.5s-12.167 -64.167 -36.5 -88.5s-53.833 -36.5 -88.5 -36.5zM752 623v-355.001
c-133.333 0.666992 -232.5 -10.5 -297.5 -33.5s-114.667 -58.667 -149 -107s-51.5 -102.5 -51.5 -162.5c0 -54.667 15.333 -108.667 46 -162s70.834 -94.666 120.501 -123.999s102.834 -44 159.501 -44c45.333 0 84.5 8.66699 117.5 26s63.5 46.333 91.5 87s48 65.667 60 75
c23.333 18 46.666 27 69.999 27c16 0 31.833 -4.16699 47.5 -12.5s26.5 -17.833 32.5 -28.5c8.66699 -16 13 -32 13 -48c0 -52.667 -30.667 -99 -92 -139c-85.333 -55.333 -188 -83 -308 -83c-107.333 0 -202.5 20.167 -285.5 60.5s-145.833 93.833 -188.5 160.5
s-64 141.667 -64 225c0 132 52.167 234.333 156.5 307s243.166 109 416.499 109v222h105z" />
    <glyph glyph-name="Agrave" unicode="&#xc0;" horiz-adv-x="1393" 
d="M616 1395h164.998l433 -1166c21.333 -58.667 42.833 -97.5 64.5 -116.5s50.834 -28.5 87.501 -28.5h22v-84h-497v84c16 1.33301 31.667 2 47 2c32 0 53 3.33301 63 10c19.333 12.667 29 28.667 29 48c0 14 -9.33301 48.333 -28 103l-92 270h-506l-108 -302
c-11.333 -31.333 -17 -53 -17 -65c0 -13.333 3.5 -25 10.5 -35s16.5 -17.5 28.5 -22.5s31.333 -7.5 58 -7.5c18 0 32.667 -0.333008 44 -1v-84h-417v84c38.667 0 66.5 3.83301 83.5 11.5s31.833 20 44.5 37s29.334 52.833 50.001 107.5zM440.998 615h431l-216 600z
M843.998 1501l-286 60c-50 10.667 -84.333 24.5 -103 41.5s-28 37.833 -28 62.5c0 22.667 6.83301 41.167 20.5 55.5s31.167 21.5 52.5 21.5c42.667 0 95.667 -23.333 159 -70l185 -136v-35z" />
    <glyph glyph-name="Aacute" unicode="&#xc1;" horiz-adv-x="1393" 
d="M616 1395h164.998l433 -1166c21.333 -58.667 42.833 -97.5 64.5 -116.5s50.834 -28.5 87.501 -28.5h22v-84h-497v84c16 1.33301 31.667 2 47 2c32 0 53 3.33301 63 10c19.333 12.667 29 28.667 29 48c0 14 -9.33301 48.333 -28 103l-92 270h-506l-108 -302
c-11.333 -31.333 -17 -53 -17 -65c0 -13.333 3.5 -25 10.5 -35s16.5 -17.5 28.5 -22.5s31.333 -7.5 58 -7.5c18 0 32.667 -0.333008 44 -1v-84h-417v84c38.667 0 66.5 3.83301 83.5 11.5s31.833 20 44.5 37s29.334 52.833 50.001 107.5zM440.998 615h431l-216 600z
M548.998 1501l0.000976562 34.999l185 136c63.333 46.667 116.333 70 159 70c20 0 36.833 -7.16699 50.5 -21.5s20.5 -32.166 20.5 -53.499c0 -26 -9.33301 -47.5 -28 -64.5s-52.334 -30.833 -101.001 -41.5z" />
    <glyph glyph-name="Acircumflex" unicode="&#xc2;" horiz-adv-x="1393" 
d="M616 1395h164.998l433 -1166c21.333 -58.667 42.833 -97.5 64.5 -116.5s50.834 -28.5 87.501 -28.5h22v-84h-497v84c16 1.33301 31.667 2 47 2c32 0 53 3.33301 63 10c19.333 12.667 29 28.667 29 48c0 14 -9.33301 48.333 -28 103l-92 270h-506l-108 -302
c-11.333 -31.333 -17 -53 -17 -65c0 -13.333 3.5 -25 10.5 -35s16.5 -17.5 28.5 -22.5s31.333 -7.5 58 -7.5c18 0 32.667 -0.333008 44 -1v-84h-417v84c38.667 0 66.5 3.83301 83.5 11.5s31.833 20 44.5 37s29.334 52.833 50.001 107.5zM440.998 615h431l-216 600z
M694.998 1736l291 -191l-27 -51l-264 93l-263 -93l-27 51z" />
    <glyph glyph-name="Atilde" unicode="&#xc3;" horiz-adv-x="1393" 
d="M616 1395h164.998l433 -1166c21.333 -58.667 42.833 -97.5 64.5 -116.5s50.834 -28.5 87.501 -28.5h22v-84h-497v84c16 1.33301 31.667 2 47 2c32 0 53 3.33301 63 10c19.333 12.667 29 28.667 29 48c0 14 -9.33301 48.333 -28 103l-92 270h-506l-108 -302
c-11.333 -31.333 -17 -53 -17 -65c0 -13.333 3.5 -25 10.5 -35s16.5 -17.5 28.5 -22.5s31.333 -7.5 58 -7.5c18 0 32.667 -0.333008 44 -1v-84h-417v84c38.667 0 66.5 3.83301 83.5 11.5s31.833 20 44.5 37s29.334 52.833 50.001 107.5zM440.998 615h431l-216 600z
M1011 1657c-11.333 -44 -36.168 -80.668 -74.501 -110.001s-81.166 -44 -128.499 -44c-15.333 0 -29.333 1.33301 -42 4s-42.667 11.334 -90 26.001c-72.667 22.667 -124.334 34 -155.001 34c-29.333 0 -56.333 -13.667 -81 -41l-59 20c12.667 42 35.5 75.833 68.5 101.5
s69.167 38.5 108.5 38.5c40 0 104.667 -12.667 194 -38c44 -12 77.667 -18 101 -18c42.667 0 75.334 15 98.001 45z" />
    <glyph glyph-name="Adieresis" unicode="&#xc4;" horiz-adv-x="1393" 
d="M616 1395h164.998l433 -1166c21.333 -58.667 42.833 -97.5 64.5 -116.5s50.834 -28.5 87.501 -28.5h22v-84h-497v84c16 1.33301 31.667 2 47 2c32 0 53 3.33301 63 10c19.333 12.667 29 28.667 29 48c0 14 -9.33301 48.333 -28 103l-92 270h-506l-108 -302
c-11.333 -31.333 -17 -53 -17 -65c0 -13.333 3.5 -25 10.5 -35s16.5 -17.5 28.5 -22.5s31.333 -7.5 58 -7.5c18 0 32.667 -0.333008 44 -1v-84h-417v84c38.667 0 66.5 3.83301 83.5 11.5s31.833 20 44.5 37s29.334 52.833 50.001 107.5zM440.998 615h431l-216 600z
M528.998 1709c33.333 0 62 -12 86 -36s36 -53 36 -87c0 -33.333 -12 -62 -36 -86s-52.667 -36 -86 -36s-62 12 -86 36s-36 52.667 -36 86c0 34 11.833 63 35.5 87s52.5 36 86.5 36zM862.998 1709c33.333 0 62 -12 86 -36s36 -53 36 -87c0 -33.333 -12 -62 -36 -86
s-52.667 -36 -86 -36c-34 0 -62.833 12 -86.5 36s-35.5 52.667 -35.5 86c0 34 11.833 63 35.5 87s52.5 36 86.5 36z" />
    <glyph glyph-name="Aring" unicode="&#xc5;" horiz-adv-x="1393" 
d="M616 1395h164.998l433 -1166c21.333 -58.667 42.833 -97.5 64.5 -116.5s50.834 -28.5 87.501 -28.5h22v-84h-497v84c16 1.33301 31.667 2 47 2c32 0 53 3.33301 63 10c19.333 12.667 29 28.667 29 48c0 14 -9.33301 48.333 -28 103l-92 270h-506l-108 -302
c-11.333 -31.333 -17 -53 -17 -65c0 -13.333 3.5 -25 10.5 -35s16.5 -17.5 28.5 -22.5s31.333 -7.5 58 -7.5c18 0 32.667 -0.333008 44 -1v-84h-417v84c38.667 0 66.5 3.83301 83.5 11.5s31.833 20 44.5 37s29.334 52.833 50.001 107.5zM440.998 615h431l-216 600z
M695.998 1831c52.667 0 97.333 -18.5 134 -55.5s55 -81.5 55 -133.5c0 -52.667 -18.5 -97.5 -55.5 -134.5s-81.5 -55.5 -133.5 -55.5s-96.333 18.5 -133 55.5s-55 81.833 -55 134.5c0 52 18.333 96.5 55 133.5s81 55.5 133 55.5zM695.997 1761
c-32.667 0 -60.5 -11.667 -83.5 -35s-34.5 -51.333 -34.5 -84c0 -33.333 11.5 -61.666 34.5 -84.999s50.833 -35 83.5 -35s60.667 11.667 84 35s35 51.666 35 84.999c0 32.667 -11.667 60.667 -35 84s-51.333 35 -84 35z" />
    <glyph glyph-name="AE" unicode="&#xc6;" horiz-adv-x="2580" 
d="M738 1395l1600 0.00488281l131 -363l-88 -31c-44.667 107.333 -94.667 181 -150 221c-62.667 45.333 -159.334 68 -290 68h-428v-515h204c64 0 111 7.16699 141 21.5s53.833 36.166 71.5 65.499s26.5 65.666 26.5 108.999v61h96v-614h-96v57
c0 53.333 -8 93.666 -24 120.999s-38.5 47.666 -67.5 60.999s-78.167 20 -147.5 20h-204v-490l1 -24c0 -16 1.33301 -26.333 4 -31c5.33301 -8.66699 12.666 -15 21.999 -19c6.66699 -2.66699 22.334 -4 47.001 -4h323c95.333 0 174.166 11.833 236.499 35.5
s116.5 59.167 162.5 106.5s91.333 120 136 218l91 -30l-155 -439h-1230v84h55c47.333 0 80.666 11 99.999 33c16 18 24 50.333 24 97v463h-665l-280 -451l-8 -11c-23.333 -30.667 -35 -58 -35 -82c0 -15.333 6.5 -27.333 19.5 -36s38.5 -13 76.5 -13h43v-84h-479v84
c36.667 0.666992 64 4.16699 82 10.5s34 15.833 48 28.5c22.667 21.333 45 48.666 67 81.999l641 983c22.667 34.667 34 61 34 79c0 14 -6 24.667 -18 32s-35.667 11 -71 11h-47v85zM1047 1290l-321 -515h604v515h-283z" />
    <glyph glyph-name="Ccedilla" unicode="&#xc7;" horiz-adv-x="1515" 
d="M1208 1395l72.001 -0.000976562l127 -465l-93 -26c-50 107.333 -88 179.333 -114 216c-42.667 59.333 -95.834 106.333 -159.501 141s-133.834 52 -210.501 52c-90 0 -172.833 -24.167 -248.5 -72.5s-137 -119.166 -184 -212.499s-70.5 -198.333 -70.5 -315
c0 -120 23.833 -227 71.5 -321s112.167 -166.333 193.5 -217s169 -76 263 -76c88.667 0 179.334 25.333 272.001 76s173 121.667 241 213l80 -55c-41.333 -61.333 -86 -113.333 -134 -156c-76 -68.667 -155 -119.334 -237 -152.001s-172 -49 -270 -49
c-216.667 0 -392.667 80.333 -528 241c-112 133.333 -168 292 -168 476c0 135.333 31 257.833 93 367.5s147.5 196.834 256.5 261.501s226.5 97 352.5 97c67.333 0 129.833 -9.16699 187.5 -27.5s116.167 -47.833 175.5 -88.5zM748.001 -0.000976562l-26 -87
c27.333 2 43.666 3 48.999 3c37.333 0 72 -7.33301 104 -22c24 -10.667 42.833 -27.167 56.5 -49.5s20.5 -48.833 20.5 -79.5c0 -52 -17.167 -94.167 -51.5 -126.5s-80.5 -48.5 -138.5 -48.5s-108 14.333 -150 43c-31.333 20.667 -47 44.667 -47 72
c0 14.667 4.83301 27 14.5 37s22.167 15 37.5 15s28 -3.5 38 -10.5s18.667 -20.167 26 -39.5c10 -22.667 18.333 -37 25 -43c15.333 -12 33.333 -18 54 -18c26.667 0 49.334 10.167 68.001 30.5s28 46.833 28 79.5c0 34 -10 60 -30 78s-51 27 -93 27
c-27.333 0 -60 -6.66699 -98 -20l51 159h62z" />
    <glyph glyph-name="Egrave" unicode="&#xc8;" horiz-adv-x="1475" 
d="M98 1395l1134 -0.00195312l131 -367l-88 -33c-22 60 -46 107.167 -72 141.5s-57.167 63.5 -93.5 87.5s-73 40 -110 48s-103.833 12 -200.5 12h-338v-511h168c62 0 108.833 10.5 140.5 31.5s53.5 47.167 65.5 78.5c9.33301 23.333 14 64 14 122v23h98v-612h-98v53
c0 46.667 -3.5 80.334 -10.5 101.001s-19.833 40.167 -38.5 58.5s-38.834 30.833 -60.501 37.5s-58.5 10 -110.5 10h-168v-454c0 -47.333 2.16699 -76.166 6.5 -86.499s11.5 -17.833 21.5 -22.5s37.333 -7 82 -7h209c116.667 0 207.834 14 273.501 42s123.5 71 173.5 129
c39.333 45.333 77 109.333 113 192l91 -32l-156 -437h-1177v84h40c46.667 0 75.667 3 87 9c17.333 8.66699 30.666 22.667 39.999 42c6.66699 13.333 10 42.333 10 87v960c0 43.333 -4.33301 72.333 -13 87s-23.667 26 -45 34c-11.333 4.66699 -51 7 -119 7v85z
M945.001 1501l-286 60c-50 10.667 -84.333 24.5 -103 41.5s-28 37.833 -28 62.5c0 22.667 6.83301 41.167 20.5 55.5s31.167 21.5 52.5 21.5c42.667 0 95.667 -23.333 159 -70l185 -136v-35z" />
    <glyph glyph-name="Eacute" unicode="&#xc9;" horiz-adv-x="1475" 
d="M98 1395l1134 -0.00195312l131 -367l-88 -33c-22 60 -46 107.167 -72 141.5s-57.167 63.5 -93.5 87.5s-73 40 -110 48s-103.833 12 -200.5 12h-338v-511h168c62 0 108.833 10.5 140.5 31.5s53.5 47.167 65.5 78.5c9.33301 23.333 14 64 14 122v23h98v-612h-98v53
c0 46.667 -3.5 80.334 -10.5 101.001s-19.833 40.167 -38.5 58.5s-38.834 30.833 -60.501 37.5s-58.5 10 -110.5 10h-168v-454c0 -47.333 2.16699 -76.166 6.5 -86.499s11.5 -17.833 21.5 -22.5s37.333 -7 82 -7h209c116.667 0 207.834 14 273.501 42s123.5 71 173.5 129
c39.333 45.333 77 109.333 113 192l91 -32l-156 -437h-1177v84h40c46.667 0 75.667 3 87 9c17.333 8.66699 30.666 22.667 39.999 42c6.66699 13.333 10 42.333 10 87v960c0 43.333 -4.33301 72.333 -13 87s-23.667 26 -45 34c-11.333 4.66699 -51 7 -119 7v85z
M529.001 1501l0.000976562 34.999l185 136c63.333 46.667 116.333 70 159 70c20 0 36.833 -7.16699 50.5 -21.5s20.5 -32.166 20.5 -53.499c0 -26 -9.33301 -47.5 -28 -64.5s-52.334 -30.833 -101.001 -41.5z" />
    <glyph glyph-name="Ecircumflex" unicode="&#xca;" horiz-adv-x="1475" 
d="M98 1395l1134 -0.00195312l131 -367l-88 -33c-22 60 -46 107.167 -72 141.5s-57.167 63.5 -93.5 87.5s-73 40 -110 48s-103.833 12 -200.5 12h-338v-511h168c62 0 108.833 10.5 140.5 31.5s53.5 47.167 65.5 78.5c9.33301 23.333 14 64 14 122v23h98v-612h-98v53
c0 46.667 -3.5 80.334 -10.5 101.001s-19.833 40.167 -38.5 58.5s-38.834 30.833 -60.501 37.5s-58.5 10 -110.5 10h-168v-454c0 -47.333 2.16699 -76.166 6.5 -86.499s11.5 -17.833 21.5 -22.5s37.333 -7 82 -7h209c116.667 0 207.834 14 273.501 42s123.5 71 173.5 129
c39.333 45.333 77 109.333 113 192l91 -32l-156 -437h-1177v84h40c46.667 0 75.667 3 87 9c17.333 8.66699 30.666 22.667 39.999 42c6.66699 13.333 10 42.333 10 87v960c0 43.333 -4.33301 72.333 -13 87s-23.667 26 -45 34c-11.333 4.66699 -51 7 -119 7v85z
M736.001 1736l291 -191l-27 -51l-264 93l-263 -93l-27 51z" />
    <glyph glyph-name="Edieresis" unicode="&#xcb;" horiz-adv-x="1475" 
d="M98 1395l1134 -0.00195312l131 -367l-88 -33c-22 60 -46 107.167 -72 141.5s-57.167 63.5 -93.5 87.5s-73 40 -110 48s-103.833 12 -200.5 12h-338v-511h168c62 0 108.833 10.5 140.5 31.5s53.5 47.167 65.5 78.5c9.33301 23.333 14 64 14 122v23h98v-612h-98v53
c0 46.667 -3.5 80.334 -10.5 101.001s-19.833 40.167 -38.5 58.5s-38.834 30.833 -60.501 37.5s-58.5 10 -110.5 10h-168v-454c0 -47.333 2.16699 -76.166 6.5 -86.499s11.5 -17.833 21.5 -22.5s37.333 -7 82 -7h209c116.667 0 207.834 14 273.501 42s123.5 71 173.5 129
c39.333 45.333 77 109.333 113 192l91 -32l-156 -437h-1177v84h40c46.667 0 75.667 3 87 9c17.333 8.66699 30.666 22.667 39.999 42c6.66699 13.333 10 42.333 10 87v960c0 43.333 -4.33301 72.333 -13 87s-23.667 26 -45 34c-11.333 4.66699 -51 7 -119 7v85z
M570.001 1709c33.333 0 62 -12 86 -36s36 -53 36 -87c0 -33.333 -12 -62 -36 -86s-52.667 -36 -86 -36s-62 12 -86 36s-36 52.667 -36 86c0 34 11.833 63 35.5 87s52.5 36 86.5 36zM904.001 1709c33.333 0 62 -12 86 -36s36 -53 36 -87c0 -33.333 -12 -62 -36 -86
s-52.667 -36 -86 -36c-34 0 -62.833 12 -86.5 36s-35.5 52.667 -35.5 86c0 34 11.833 63 35.5 87s52.5 36 86.5 36z" />
    <glyph glyph-name="Igrave" unicode="&#xcc;" horiz-adv-x="696" 
d="M81 1395l533.998 0.00195312v-85h-41c-38.667 0 -66.667 -5.33301 -84 -16s-30 -25.834 -38 -45.501s-12 -57.834 -12 -114.501v-899c0 -45.333 4.33301 -77.5 13 -96.5s20.834 -32.833 36.501 -41.5s43.834 -13 84.501 -13h41v-84h-534v84h44
c39.333 0 67.166 4.5 83.499 13.5s28.166 22 35.499 39s11 49.833 11 98.5v920c0 51.333 -3.66699 85.833 -11 103.5s-19.166 30.667 -35.499 39s-44.166 12.5 -83.499 12.5h-44v85zM495.998 1501l-286 60c-50 10.667 -84.333 24.5 -103 41.5s-28 37.833 -28 62.5
c0 22.667 6.83301 41.167 20.5 55.5s31.167 21.5 52.5 21.5c42.667 0 95.667 -23.333 159 -70l185 -136v-35z" />
    <glyph glyph-name="Iacute" unicode="&#xcd;" horiz-adv-x="696" 
d="M81 1395l533.998 0.00195312v-85h-41c-38.667 0 -66.667 -5.33301 -84 -16s-30 -25.834 -38 -45.501s-12 -57.834 -12 -114.501v-899c0 -45.333 4.33301 -77.5 13 -96.5s20.834 -32.833 36.501 -41.5s43.834 -13 84.501 -13h41v-84h-534v84h44
c39.333 0 67.166 4.5 83.499 13.5s28.166 22 35.499 39s11 49.833 11 98.5v920c0 51.333 -3.66699 85.833 -11 103.5s-19.166 30.667 -35.499 39s-44.166 12.5 -83.499 12.5h-44v85zM200.998 1501l0.000976562 34.999l185 136c63.333 46.667 116.333 70 159 70
c20 0 36.833 -7.16699 50.5 -21.5s20.5 -32.166 20.5 -53.499c0 -26 -9.33301 -47.5 -28 -64.5s-52.334 -30.833 -101.001 -41.5z" />
    <glyph glyph-name="Icircumflex" unicode="&#xce;" horiz-adv-x="696" 
d="M81 1395l533.998 0.00195312v-85h-41c-38.667 0 -66.667 -5.33301 -84 -16s-30 -25.834 -38 -45.501s-12 -57.834 -12 -114.501v-899c0 -45.333 4.33301 -77.5 13 -96.5s20.834 -32.833 36.501 -41.5s43.834 -13 84.501 -13h41v-84h-534v84h44
c39.333 0 67.166 4.5 83.499 13.5s28.166 22 35.499 39s11 49.833 11 98.5v920c0 51.333 -3.66699 85.833 -11 103.5s-19.166 30.667 -35.499 39s-44.166 12.5 -83.499 12.5h-44v85zM346.998 1736l291 -191l-27 -51l-264 93l-263 -93l-27 51z" />
    <glyph glyph-name="Idieresis" unicode="&#xcf;" horiz-adv-x="696" 
d="M81 1395l533.998 0.00195312v-85h-41c-38.667 0 -66.667 -5.33301 -84 -16s-30 -25.834 -38 -45.501s-12 -57.834 -12 -114.501v-899c0 -45.333 4.33301 -77.5 13 -96.5s20.834 -32.833 36.501 -41.5s43.834 -13 84.501 -13h41v-84h-534v84h44
c39.333 0 67.166 4.5 83.499 13.5s28.166 22 35.499 39s11 49.833 11 98.5v920c0 51.333 -3.66699 85.833 -11 103.5s-19.166 30.667 -35.499 39s-44.166 12.5 -83.499 12.5h-44v85zM180.998 1709c33.333 0 62 -12 86 -36s36 -53 36 -87c0 -33.333 -12 -62 -36 -86
s-52.667 -36 -86 -36s-62 12 -86 36s-36 52.667 -36 86c0 34 11.833 63 35.5 87s52.5 36 86.5 36zM514.998 1709c33.333 0 62 -12 86 -36s36 -53 36 -87c0 -33.333 -12 -62 -36 -86s-52.667 -36 -86 -36c-34 0 -62.833 12 -86.5 36s-35.5 52.667 -35.5 86
c0 34 11.833 63 35.5 87s52.5 36 86.5 36z" />
    <glyph glyph-name="Eth" unicode="&#xd0;" horiz-adv-x="1638" 
d="M275 649h-178.003v97h178v413c0 52.667 -3.33301 86.667 -10 102c-9.33301 20.667 -24.333 35 -45 43c-12 4 -53 6 -123 6v85h498c228 0 387 -14.333 477 -43c132.667 -42 240.334 -120.333 323.001 -235c91.333 -126.667 137 -272.334 137 -437.001
c0 -112 -22.5 -216.167 -67.5 -312.5s-104.167 -173.833 -177.5 -232.5c-60.667 -49.333 -133.667 -84.166 -219 -104.499s-171.333 -30.5 -258 -30.5h-713v84h58l19 -1c24.667 0 44.834 5 60.501 15s26.834 23.333 33.501 40c4.66699 12.667 7 42 7 88v423zM460.997 649
l0.000976562 -541h302c30 0 79.833 5.33301 149.5 16s119.5 23.667 149.5 39c44 22.667 86.667 59.167 128 109.5s73.166 110.666 95.499 180.999s33.5 150.833 33.5 241.5c0 90 -11.167 168 -33.5 234s-56 125.333 -101 178s-95 92.834 -150 120.501
s-116.5 45.167 -184.5 52.5c-36.667 3.33301 -98 5 -184 5h-205v-539h429v-97h-429z" />
    <glyph glyph-name="Ntilde" unicode="&#xd1;" horiz-adv-x="1515" 
d="M88 1395l428 0.00195312l635 -1046v796c0 47.333 -4.66699 81.333 -14 102s-23.333 36.334 -42 47.001s-46.334 16 -83.001 16h-36v85h467v-85h-25c-41.333 0 -69.333 -3.33301 -84 -10c-20.667 -9.33301 -36.167 -26.333 -46.5 -51s-15.5 -59.334 -15.5 -104.001v-1145
h-121l-765 1257v-996c0 -55.333 1.66699 -89 5 -101c4.66699 -15.333 13.167 -29.333 25.5 -42s26.833 -21.334 43.5 -26.001s50.334 -7.33398 101.001 -8.00098v-84h-473v84h25c48 0 80.5 4.66699 97.5 14s30.167 25.333 39.5 48s14 61 14 115v884
c0 55.333 -1.33301 89 -4 101c-6 22.667 -17.5 39 -34.5 49s-50.833 15 -101.5 15h-36v85zM1073 1657c-11.333 -44 -36.168 -80.668 -74.501 -110.001s-81.166 -44 -128.499 -44c-15.333 0 -29.333 1.33301 -42 4s-42.667 11.334 -90 26.001
c-72.667 22.667 -124.334 34 -155.001 34c-29.333 0 -56.333 -13.667 -81 -41l-59 20c12.667 42 35.5 75.833 68.5 101.5s69.167 38.5 108.5 38.5c40 0 104.667 -12.667 194 -38c44 -12 77.667 -18 101 -18c42.667 0 75.334 15 98.001 45z" />
    <glyph glyph-name="Ograve" unicode="&#xd2;" horiz-adv-x="1638" 
d="M839 1419c127.333 0 242.334 -30.668 345.001 -92.001c111.333 -66 196.833 -151.667 256.5 -257s89.5 -227.333 89.5 -366c0 -214.667 -66.667 -389.667 -200 -525s-303.333 -203 -510 -203c-230.667 0 -413.334 81.333 -548.001 244
c-110 132.667 -165 291.334 -165 476.001c0 137.333 31 260.5 93 369.5s150 195.167 264 258.5s239 95 375 95zM839.001 1311c-104 0 -193.333 -23.832 -268 -71.499s-134.5 -117.834 -179.5 -210.501s-67.5 -207 -67.5 -343c0 -130 22.167 -240.167 66.5 -330.5
s103.833 -159.5 178.5 -207.5s158.667 -72 252 -72c92.667 0 174.667 23.5 246 70.5s130.333 121 177 222s70 213.167 70 336.5c0 125.333 -23.333 240 -70 344c-40 89.333 -93 155.333 -159 198s-148 64 -246 64zM967.001 1501l-286 60c-50 10.667 -84.333 24.5 -103 41.5
s-28 37.833 -28 62.5c0 22.667 6.83301 41.167 20.5 55.5s31.167 21.5 52.5 21.5c42.667 0 95.667 -23.333 159 -70l185 -136v-35z" />
    <glyph glyph-name="Oacute" unicode="&#xd3;" horiz-adv-x="1638" 
d="M839 1419c127.333 0 242.334 -30.668 345.001 -92.001c111.333 -66 196.833 -151.667 256.5 -257s89.5 -227.333 89.5 -366c0 -214.667 -66.667 -389.667 -200 -525s-303.333 -203 -510 -203c-230.667 0 -413.334 81.333 -548.001 244
c-110 132.667 -165 291.334 -165 476.001c0 137.333 31 260.5 93 369.5s150 195.167 264 258.5s239 95 375 95zM839.001 1311c-104 0 -193.333 -23.832 -268 -71.499s-134.5 -117.834 -179.5 -210.501s-67.5 -207 -67.5 -343c0 -130 22.167 -240.167 66.5 -330.5
s103.833 -159.5 178.5 -207.5s158.667 -72 252 -72c92.667 0 174.667 23.5 246 70.5s130.333 121 177 222s70 213.167 70 336.5c0 125.333 -23.333 240 -70 344c-40 89.333 -93 155.333 -159 198s-148 64 -246 64zM671.001 1501l0.000976562 34.999l185 136
c63.333 46.667 116.333 70 159 70c20 0 36.833 -7.16699 50.5 -21.5s20.5 -32.166 20.5 -53.499c0 -26 -9.33301 -47.5 -28 -64.5s-52.334 -30.833 -101.001 -41.5z" />
    <glyph glyph-name="Ocircumflex" unicode="&#xd4;" horiz-adv-x="1638" 
d="M839 1419c127.333 0 242.334 -30.668 345.001 -92.001c111.333 -66 196.833 -151.667 256.5 -257s89.5 -227.333 89.5 -366c0 -214.667 -66.667 -389.667 -200 -525s-303.333 -203 -510 -203c-230.667 0 -413.334 81.333 -548.001 244
c-110 132.667 -165 291.334 -165 476.001c0 137.333 31 260.5 93 369.5s150 195.167 264 258.5s239 95 375 95zM839.001 1311c-104 0 -193.333 -23.832 -268 -71.499s-134.5 -117.834 -179.5 -210.501s-67.5 -207 -67.5 -343c0 -130 22.167 -240.167 66.5 -330.5
s103.833 -159.5 178.5 -207.5s158.667 -72 252 -72c92.667 0 174.667 23.5 246 70.5s130.333 121 177 222s70 213.167 70 336.5c0 125.333 -23.333 240 -70 344c-40 89.333 -93 155.333 -159 198s-148 64 -246 64zM818.001 1736l291 -191l-27 -51l-264 93l-263 -93l-27 51z
" />
    <glyph glyph-name="Otilde" unicode="&#xd5;" horiz-adv-x="1638" 
d="M839 1419c127.333 0 242.334 -30.668 345.001 -92.001c111.333 -66 196.833 -151.667 256.5 -257s89.5 -227.333 89.5 -366c0 -214.667 -66.667 -389.667 -200 -525s-303.333 -203 -510 -203c-230.667 0 -413.334 81.333 -548.001 244
c-110 132.667 -165 291.334 -165 476.001c0 137.333 31 260.5 93 369.5s150 195.167 264 258.5s239 95 375 95zM839.001 1311c-104 0 -193.333 -23.832 -268 -71.499s-134.5 -117.834 -179.5 -210.501s-67.5 -207 -67.5 -343c0 -130 22.167 -240.167 66.5 -330.5
s103.833 -159.5 178.5 -207.5s158.667 -72 252 -72c92.667 0 174.667 23.5 246 70.5s130.333 121 177 222s70 213.167 70 336.5c0 125.333 -23.333 240 -70 344c-40 89.333 -93 155.333 -159 198s-148 64 -246 64zM1134 1657c-11.333 -44 -36.168 -80.668 -74.501 -110.001
s-81.166 -44 -128.499 -44c-15.333 0 -29.333 1.33301 -42 4s-42.667 11.334 -90 26.001c-72.667 22.667 -124.334 34 -155.001 34c-29.333 0 -56.333 -13.667 -81 -41l-59 20c12.667 42 35.5 75.833 68.5 101.5s69.167 38.5 108.5 38.5c40 0 104.667 -12.667 194 -38
c44 -12 77.667 -18 101 -18c42.667 0 75.334 15 98.001 45z" />
    <glyph glyph-name="Odieresis" unicode="&#xd6;" horiz-adv-x="1638" 
d="M839 1419c127.333 0 242.334 -30.668 345.001 -92.001c111.333 -66 196.833 -151.667 256.5 -257s89.5 -227.333 89.5 -366c0 -214.667 -66.667 -389.667 -200 -525s-303.333 -203 -510 -203c-230.667 0 -413.334 81.333 -548.001 244
c-110 132.667 -165 291.334 -165 476.001c0 137.333 31 260.5 93 369.5s150 195.167 264 258.5s239 95 375 95zM839.001 1311c-104 0 -193.333 -23.832 -268 -71.499s-134.5 -117.834 -179.5 -210.501s-67.5 -207 -67.5 -343c0 -130 22.167 -240.167 66.5 -330.5
s103.833 -159.5 178.5 -207.5s158.667 -72 252 -72c92.667 0 174.667 23.5 246 70.5s130.333 121 177 222s70 213.167 70 336.5c0 125.333 -23.333 240 -70 344c-40 89.333 -93 155.333 -159 198s-148 64 -246 64zM652.001 1709c33.333 0 62 -12 86 -36s36 -53 36 -87
c0 -33.333 -12 -62 -36 -86s-52.667 -36 -86 -36s-62 12 -86 36s-36 52.667 -36 86c0 34 11.833 63 35.5 87s52.5 36 86.5 36zM986.001 1709c33.333 0 62 -12 86 -36s36 -53 36 -87c0 -33.333 -12 -62 -36 -86s-52.667 -36 -86 -36c-34 0 -62.833 12 -86.5 36
s-35.5 52.667 -35.5 86c0 34 11.833 63 35.5 87s52.5 36 86.5 36z" />
    <glyph glyph-name="multiply" unicode="&#xd7;" horiz-adv-x="1229" 
d="M1035 364l-87 -87l-334 333l-333 -333l-87 87l334 333l-334 334l87 87l333 -334l334 334l87 -87l-334 -334z" />
    <glyph glyph-name="Oslash" unicode="&#xd8;" horiz-adv-x="1638" 
d="M1267 1270l133 148.999h130l-192 -215c66 -69.333 114.5 -144 145.5 -224s46.5 -172 46.5 -276c0 -214.667 -66.667 -389.667 -200 -525s-303.333 -203 -510 -203c-176.667 0 -326.667 49.333 -450 148l-133 -148h-130l192 214c-128 138.667 -192 307.334 -192 506.001
c0 137.333 31 260.5 93 369.5s149.833 195.167 263.5 258.5s238.167 95 373.5 95c162 0 305.333 -49.667 430 -149zM1175 1167c-39.333 48.667 -86.501 84.835 -141.501 108.502s-120.5 35.5 -196.5 35.5c-103.333 0 -192.166 -23.833 -266.499 -71.5
s-134 -117.834 -179 -210.501s-67.5 -206.334 -67.5 -341.001c0 -151.333 29.333 -275.333 88 -372zM1228 1081l-758.001 -846c92 -106 209 -159 351 -159c92.667 0 174.834 23.5 246.501 70.5s130.667 121 177 222s69.5 213.833 69.5 338.5c0 138 -28.667 262.667 -86 374z
" />
    <glyph glyph-name="Ugrave" unicode="&#xd9;" horiz-adv-x="1597" 
d="M78 1395l539.001 -0.000976562v-85h-36c-44 0 -75.333 -4.33301 -94 -13c-14.667 -6.66699 -25.667 -18 -33 -34s-11 -48 -11 -96v-628c0 -112 13.5 -195 40.5 -249s72 -99.333 135 -136s132.167 -55 207.5 -55c76 0 148 19.667 216 59s115.667 86 143 140
s41 139.333 41 256v604c0 44 -4.33301 75.667 -13 95s-21.834 33.666 -39.501 42.999s-45.167 14 -82.5 14h-39v85h467v-85h-32c-52.667 0 -88.834 -10 -108.501 -30s-29.5 -57.667 -29.5 -113v-643c0 -117.333 -22 -215.166 -66 -293.499s-108 -140.333 -192 -186
s-181.667 -68.5 -293 -68.5c-105.333 0 -201.666 23.333 -288.999 70s-151.5 104.834 -192.5 174.501s-61.5 157.167 -61.5 262.5v684c0 44 -4 74.833 -12 92.5s-19.667 30.5 -35 38.5s-42 12 -80 12h-50v85zM947.001 1501l-286 60c-50 10.667 -84.333 24.5 -103 41.5
s-28 37.833 -28 62.5c0 22.667 6.83301 41.167 20.5 55.5s31.167 21.5 52.5 21.5c42.667 0 95.667 -23.333 159 -70l185 -136v-35z" />
    <glyph glyph-name="Uacute" unicode="&#xda;" horiz-adv-x="1597" 
d="M78 1395l539.001 -0.000976562v-85h-36c-44 0 -75.333 -4.33301 -94 -13c-14.667 -6.66699 -25.667 -18 -33 -34s-11 -48 -11 -96v-628c0 -112 13.5 -195 40.5 -249s72 -99.333 135 -136s132.167 -55 207.5 -55c76 0 148 19.667 216 59s115.667 86 143 140
s41 139.333 41 256v604c0 44 -4.33301 75.667 -13 95s-21.834 33.666 -39.501 42.999s-45.167 14 -82.5 14h-39v85h467v-85h-32c-52.667 0 -88.834 -10 -108.501 -30s-29.5 -57.667 -29.5 -113v-643c0 -117.333 -22 -215.166 -66 -293.499s-108 -140.333 -192 -186
s-181.667 -68.5 -293 -68.5c-105.333 0 -201.666 23.333 -288.999 70s-151.5 104.834 -192.5 174.501s-61.5 157.167 -61.5 262.5v684c0 44 -4 74.833 -12 92.5s-19.667 30.5 -35 38.5s-42 12 -80 12h-50v85zM651.001 1501l0.000976562 34.999l185 136
c63.333 46.667 116.333 70 159 70c20 0 36.833 -7.16699 50.5 -21.5s20.5 -32.166 20.5 -53.499c0 -26 -9.33301 -47.5 -28 -64.5s-52.334 -30.833 -101.001 -41.5z" />
    <glyph glyph-name="Ucircumflex" unicode="&#xdb;" horiz-adv-x="1597" 
d="M78 1395l539.001 -0.000976562v-85h-36c-44 0 -75.333 -4.33301 -94 -13c-14.667 -6.66699 -25.667 -18 -33 -34s-11 -48 -11 -96v-628c0 -112 13.5 -195 40.5 -249s72 -99.333 135 -136s132.167 -55 207.5 -55c76 0 148 19.667 216 59s115.667 86 143 140
s41 139.333 41 256v604c0 44 -4.33301 75.667 -13 95s-21.834 33.666 -39.501 42.999s-45.167 14 -82.5 14h-39v85h467v-85h-32c-52.667 0 -88.834 -10 -108.501 -30s-29.5 -57.667 -29.5 -113v-643c0 -117.333 -22 -215.166 -66 -293.499s-108 -140.333 -192 -186
s-181.667 -68.5 -293 -68.5c-105.333 0 -201.666 23.333 -288.999 70s-151.5 104.834 -192.5 174.501s-61.5 157.167 -61.5 262.5v684c0 44 -4 74.833 -12 92.5s-19.667 30.5 -35 38.5s-42 12 -80 12h-50v85zM798.001 1736l291 -191l-27 -51l-264 93l-263 -93l-27 51z" />
    <glyph glyph-name="Udieresis" unicode="&#xdc;" horiz-adv-x="1597" 
d="M78 1395l539.001 -0.000976562v-85h-36c-44 0 -75.333 -4.33301 -94 -13c-14.667 -6.66699 -25.667 -18 -33 -34s-11 -48 -11 -96v-628c0 -112 13.5 -195 40.5 -249s72 -99.333 135 -136s132.167 -55 207.5 -55c76 0 148 19.667 216 59s115.667 86 143 140
s41 139.333 41 256v604c0 44 -4.33301 75.667 -13 95s-21.834 33.666 -39.501 42.999s-45.167 14 -82.5 14h-39v85h467v-85h-32c-52.667 0 -88.834 -10 -108.501 -30s-29.5 -57.667 -29.5 -113v-643c0 -117.333 -22 -215.166 -66 -293.499s-108 -140.333 -192 -186
s-181.667 -68.5 -293 -68.5c-105.333 0 -201.666 23.333 -288.999 70s-151.5 104.834 -192.5 174.501s-61.5 157.167 -61.5 262.5v684c0 44 -4 74.833 -12 92.5s-19.667 30.5 -35 38.5s-42 12 -80 12h-50v85zM632.001 1709c33.333 0 62 -12 86 -36s36 -53 36 -87
c0 -33.333 -12 -62 -36 -86s-52.667 -36 -86 -36s-62 12 -86 36s-36 52.667 -36 86c0 34 11.833 63 35.5 87s52.5 36 86.5 36zM966.001 1709c33.333 0 62 -12 86 -36s36 -53 36 -87c0 -33.333 -12 -62 -36 -86s-52.667 -36 -86 -36c-34 0 -62.833 12 -86.5 36
s-35.5 52.667 -35.5 86c0 34 11.833 63 35.5 87s52.5 36 86.5 36z" />
    <glyph glyph-name="Yacute" unicode="&#xdd;" horiz-adv-x="1311" 
d="M5 1395l522.002 0.00195312v-85h-59c-36 0 -59.167 -3.33301 -69.5 -10s-15.5 -17.667 -15.5 -33c0 -13.333 6.33301 -31.333 19 -54c3.33301 -5.33301 7.66602 -13 12.999 -23l272 -504l301 523c12 21.333 19.167 35.166 21.5 41.499s3.5 12.833 3.5 19.5
c0 9.33301 -2.5 17.166 -7.5 23.499s-12.833 11.166 -23.5 14.499c-6.66699 1.33301 -25.334 2 -56.001 2h-52v85h431v-85c-38 0.666992 -66.167 -1.66602 -84.5 -6.99902s-33.333 -13.5 -45 -24.5s-28.167 -34.167 -49.5 -69.5l-378 -630v-351
c0 -51.333 4.16699 -84.666 12.5 -99.999s21.5 -26.5 39.5 -33.5s60 -10.5 126 -10.5v-84h-545v84h42c44.667 0 74.5 4 89.5 12s26.833 21 35.5 39c6 12.667 9 43.667 9 93v314l-369 656c-29.333 52.667 -53.833 84.167 -73.5 94.5s-56.167 16.166 -109.5 17.499v85z
M508.002 1501l0.000976562 34.999l185 136c63.333 46.667 116.333 70 159 70c20 0 36.833 -7.16699 50.5 -21.5s20.5 -32.166 20.5 -53.499c0 -26 -9.33301 -47.5 -28 -64.5s-52.334 -30.833 -101.001 -41.5z" />
    <glyph glyph-name="Thorn" unicode="&#xde;" horiz-adv-x="1270" 
d="M92 1395l540 0.00195312v-85h-29c-54.667 0 -91.834 -6.5 -111.501 -19.5s-29.5 -40.5 -29.5 -82.5l-1 -30l-4 -81h186c166 0 280.667 -10 344 -30c80 -25.333 146 -69 198 -131s78 -140 78 -234c0 -81.333 -19.667 -151 -59 -209
c-47.333 -70.667 -104.833 -120.834 -172.5 -150.501s-174.167 -44.5 -319.5 -44.5h-255v-61c0 -53.333 3 -87 9 -101c8 -19.333 19 -32.833 33 -40.5s42.333 -11.5 85 -11.5h48v-84h-540v84h33c46 0 77.333 3.83301 94 11.5s28.834 19.667 36.501 36
s11.5 47.166 11.5 92.499v954c0 44 -3.5 73.5 -10.5 88.5s-18.667 26 -35 33s-48.5 10.5 -96.5 10.5h-33v85zM457 990.002l-0.00292969 -585h215c108.667 0 184.834 9.66699 228.501 29s79.834 52.833 108.501 100.5s43 103.5 43 167.5c0 70 -16.667 128.5 -50 175.5
s-78.666 78.5 -135.999 94.5c-40 12 -118 18 -234 18h-175z" />
    <glyph glyph-name="germandbls" unicode="&#xdf;" horiz-adv-x="1352" 
d="M71 965l171.995 0.00292969v45c0 41.333 4.83301 90 14.5 146s33.167 107.833 70.5 155.5s85.833 85.5 145.5 113.5s128.834 42 207.501 42c76 0 140.333 -13 193 -39s94.167 -62.167 124.5 -108.5s45.5 -95.5 45.5 -147.5c0 -26.667 -5 -50.667 -15 -72
c-7.33301 -14.667 -18 -26.334 -32 -35.001s-40 -16 -78 -22c-84 -13.333 -139 -29.666 -165 -48.999c-26 -20 -39 -45.333 -39 -76c0 -31.333 14 -59.333 42 -84s87.667 -58.334 179 -101.001s156.666 -80.834 195.999 -114.501s69.5 -73.667 90.5 -120
s31.5 -93.833 31.5 -142.5c0 -64.667 -18.667 -127.167 -56 -187.5s-89 -107.5 -155 -141.5s-139.667 -51 -221 -51c-66.667 0 -128.667 11.833 -186 35.5s-99 52 -125 85s-39 65.167 -39 96.5c0 21.333 8.5 40.666 25.5 57.999s36.167 26 57.5 26
c20 0 39.167 -6.16699 57.5 -18.5s36.833 -34.5 55.5 -66.5c27.333 -46 54.5 -77.167 81.5 -93.5s60.167 -24.5 99.5 -24.5c67.333 0 126.5 24.167 177.5 72.5s76.5 103.166 76.5 164.499c0 42.667 -10.667 82 -32 118s-54 68.667 -98 98c-30.667 20 -81 45.667 -151 77
c-49.333 22 -80.666 36.667 -93.999 44c-36 21.333 -67.167 45.5 -93.5 72.5s-44.333 51.833 -54 74.5s-14.5 49.667 -14.5 81c0 41.333 11.333 79.333 34 114s58.834 63.834 108.501 87.501s112.834 38.834 189.501 45.501c-9.33301 10.667 -15 19.667 -17 27
c-4 15.333 -7 40 -9 74c-1.33301 16.667 -4.66602 31 -9.99902 43c-7.33301 17.333 -17 32.833 -29 46.5s-25.833 25.167 -41.5 34.5s-33.5 16.333 -53.5 21s-41.667 7 -65 7c-88 0 -156.667 -31.333 -206 -94c-38 -48.667 -57 -125.667 -57 -231v-1051h-339v84h56
c34.667 0 58.334 4 71.001 12c16 9.33301 28 23.666 36 42.999c6 14 9 46 9 96v629h-172v101z" />
    <glyph glyph-name="agrave" unicode="&#xe0;" horiz-adv-x="1188" 
d="M793 579l-0.00195312 108.999c0 74 -20.667 126.833 -62 158.5s-99.666 47.5 -174.999 47.5c-37.333 0 -70 -4.5 -98 -13.5s-50.5 -21.333 -67.5 -37s-29.5 -33.5 -37.5 -53.5c-3.33301 -7.33301 -11.333 -35.666 -24 -84.999c-15.333 -60 -46.333 -90 -93 -90
c-26.667 0 -48.167 8.83301 -64.5 26.5s-24.5 41.5 -24.5 71.5c0 44 16.333 87.167 49 129.5s82.5 77.333 149.5 105s146.167 41.5 237.5 41.5c85.333 0 158.333 -13.167 219 -39.5s105.334 -64.166 134.001 -113.499c20 -34 30 -96 30 -186v-385
c0 -54.667 1.66699 -90.334 5 -107.001c7.33301 -28.667 20.166 -50.167 38.499 -64.5s42.166 -21.5 71.499 -21.5c30.667 0 67.334 7.33301 110.001 22v-87c-55.333 -16 -105 -24 -149 -24c-47.333 0 -87.166 6.66699 -119.499 20s-58.833 32.833 -79.5 58.5
s-34 56.167 -40 91.5c-80 -62.667 -152.333 -106.667 -217 -132s-130 -38 -196 -38c-92 0 -166.667 25 -224 75s-86 108.667 -86 176c0 40.667 10.5 79.334 31.5 116.001s53 69 96 97s110.5 52.667 202.5 74s219.667 40.666 383 57.999zM792.998 491.999
c-154.667 -22.667 -250.334 -38.333 -287.001 -47c-72.667 -16.667 -124.667 -35 -156 -55s-53.666 -41.5 -66.999 -64.5s-20 -47.5 -20 -73.5s7.5 -51.167 22.5 -75.5s36.167 -43.5 63.5 -57.5s56.333 -21 87 -21c43.333 0 92.333 10.333 147 31s124.667 61 210 121v242z
M781.998 1170l-286 60c-50 10.667 -84.333 24.5 -103 41.5s-28 37.833 -28 62.5c0 22.667 6.83301 41.167 20.5 55.5s31.167 21.5 52.5 21.5c42.667 0 95.667 -23.333 159 -70l185 -136v-35z" />
    <glyph glyph-name="aacute" unicode="&#xe1;" horiz-adv-x="1188" 
d="M793 579l-0.00195312 108.999c0 74 -20.667 126.833 -62 158.5s-99.666 47.5 -174.999 47.5c-37.333 0 -70 -4.5 -98 -13.5s-50.5 -21.333 -67.5 -37s-29.5 -33.5 -37.5 -53.5c-3.33301 -7.33301 -11.333 -35.666 -24 -84.999c-15.333 -60 -46.333 -90 -93 -90
c-26.667 0 -48.167 8.83301 -64.5 26.5s-24.5 41.5 -24.5 71.5c0 44 16.333 87.167 49 129.5s82.5 77.333 149.5 105s146.167 41.5 237.5 41.5c85.333 0 158.333 -13.167 219 -39.5s105.334 -64.166 134.001 -113.499c20 -34 30 -96 30 -186v-385
c0 -54.667 1.66699 -90.334 5 -107.001c7.33301 -28.667 20.166 -50.167 38.499 -64.5s42.166 -21.5 71.499 -21.5c30.667 0 67.334 7.33301 110.001 22v-87c-55.333 -16 -105 -24 -149 -24c-47.333 0 -87.166 6.66699 -119.499 20s-58.833 32.833 -79.5 58.5
s-34 56.167 -40 91.5c-80 -62.667 -152.333 -106.667 -217 -132s-130 -38 -196 -38c-92 0 -166.667 25 -224 75s-86 108.667 -86 176c0 40.667 10.5 79.334 31.5 116.001s53 69 96 97s110.5 52.667 202.5 74s219.667 40.666 383 57.999zM792.998 491.999
c-154.667 -22.667 -250.334 -38.333 -287.001 -47c-72.667 -16.667 -124.667 -35 -156 -55s-53.666 -41.5 -66.999 -64.5s-20 -47.5 -20 -73.5s7.5 -51.167 22.5 -75.5s36.167 -43.5 63.5 -57.5s56.333 -21 87 -21c43.333 0 92.333 10.333 147 31s124.667 61 210 121v242z
M385.998 1170l0.000976562 34.999l185 136c63.333 46.667 116.333 70 159 70c20 0 36.833 -7.16699 50.5 -21.5s20.5 -32.166 20.5 -53.499c0 -26 -9.33301 -47.5 -28 -64.5s-52.334 -30.833 -101.001 -41.5z" />
    <glyph glyph-name="acircumflex" unicode="&#xe2;" horiz-adv-x="1188" 
d="M793 579l-0.00195312 108.999c0 74 -20.667 126.833 -62 158.5s-99.666 47.5 -174.999 47.5c-37.333 0 -70 -4.5 -98 -13.5s-50.5 -21.333 -67.5 -37s-29.5 -33.5 -37.5 -53.5c-3.33301 -7.33301 -11.333 -35.666 -24 -84.999c-15.333 -60 -46.333 -90 -93 -90
c-26.667 0 -48.167 8.83301 -64.5 26.5s-24.5 41.5 -24.5 71.5c0 44 16.333 87.167 49 129.5s82.5 77.333 149.5 105s146.167 41.5 237.5 41.5c85.333 0 158.333 -13.167 219 -39.5s105.334 -64.166 134.001 -113.499c20 -34 30 -96 30 -186v-385
c0 -54.667 1.66699 -90.334 5 -107.001c7.33301 -28.667 20.166 -50.167 38.499 -64.5s42.166 -21.5 71.499 -21.5c30.667 0 67.334 7.33301 110.001 22v-87c-55.333 -16 -105 -24 -149 -24c-47.333 0 -87.166 6.66699 -119.499 20s-58.833 32.833 -79.5 58.5
s-34 56.167 -40 91.5c-80 -62.667 -152.333 -106.667 -217 -132s-130 -38 -196 -38c-92 0 -166.667 25 -224 75s-86 108.667 -86 176c0 40.667 10.5 79.334 31.5 116.001s53 69 96 97s110.5 52.667 202.5 74s219.667 40.666 383 57.999zM792.998 491.999
c-154.667 -22.667 -250.334 -38.333 -287.001 -47c-72.667 -16.667 -124.667 -35 -156 -55s-53.666 -41.5 -66.999 -64.5s-20 -47.5 -20 -73.5s7.5 -51.167 22.5 -75.5s36.167 -43.5 63.5 -57.5s56.333 -21 87 -21c43.333 0 92.333 10.333 147 31s124.667 61 210 121v242z
M592.998 1404l291 -191l-27 -51l-264 93l-263 -93l-27 51z" />
    <glyph glyph-name="atilde" unicode="&#xe3;" horiz-adv-x="1188" 
d="M793 579l-0.00195312 108.999c0 74 -20.667 126.833 -62 158.5s-99.666 47.5 -174.999 47.5c-37.333 0 -70 -4.5 -98 -13.5s-50.5 -21.333 -67.5 -37s-29.5 -33.5 -37.5 -53.5c-3.33301 -7.33301 -11.333 -35.666 -24 -84.999c-15.333 -60 -46.333 -90 -93 -90
c-26.667 0 -48.167 8.83301 -64.5 26.5s-24.5 41.5 -24.5 71.5c0 44 16.333 87.167 49 129.5s82.5 77.333 149.5 105s146.167 41.5 237.5 41.5c85.333 0 158.333 -13.167 219 -39.5s105.334 -64.166 134.001 -113.499c20 -34 30 -96 30 -186v-385
c0 -54.667 1.66699 -90.334 5 -107.001c7.33301 -28.667 20.166 -50.167 38.499 -64.5s42.166 -21.5 71.499 -21.5c30.667 0 67.334 7.33301 110.001 22v-87c-55.333 -16 -105 -24 -149 -24c-47.333 0 -87.166 6.66699 -119.499 20s-58.833 32.833 -79.5 58.5
s-34 56.167 -40 91.5c-80 -62.667 -152.333 -106.667 -217 -132s-130 -38 -196 -38c-92 0 -166.667 25 -224 75s-86 108.667 -86 176c0 40.667 10.5 79.334 31.5 116.001s53 69 96 97s110.5 52.667 202.5 74s219.667 40.666 383 57.999zM792.998 491.999
c-154.667 -22.667 -250.334 -38.333 -287.001 -47c-72.667 -16.667 -124.667 -35 -156 -55s-53.666 -41.5 -66.999 -64.5s-20 -47.5 -20 -73.5s7.5 -51.167 22.5 -75.5s36.167 -43.5 63.5 -57.5s56.333 -21 87 -21c43.333 0 92.333 10.333 147 31s124.667 61 210 121v242z
M908.998 1325c-11.333 -44 -36.168 -80.668 -74.501 -110.001s-81.166 -44 -128.499 -44c-15.333 0 -29.333 1.33301 -42 4s-42.667 11.334 -90 26.001c-72.667 22.667 -124.334 34 -155.001 34c-29.333 0 -56.333 -13.667 -81 -41l-59 20c12.667 42 35.5 75.833 68.5 101.5
s69.167 38.5 108.5 38.5c40 0 104.667 -12.667 194 -38c44 -12 77.667 -18 101 -18c42.667 0 75.334 15 98.001 45z" />
    <glyph glyph-name="adieresis" unicode="&#xe4;" horiz-adv-x="1188" 
d="M793 579l-0.00195312 108.999c0 74 -20.667 126.833 -62 158.5s-99.666 47.5 -174.999 47.5c-37.333 0 -70 -4.5 -98 -13.5s-50.5 -21.333 -67.5 -37s-29.5 -33.5 -37.5 -53.5c-3.33301 -7.33301 -11.333 -35.666 -24 -84.999c-15.333 -60 -46.333 -90 -93 -90
c-26.667 0 -48.167 8.83301 -64.5 26.5s-24.5 41.5 -24.5 71.5c0 44 16.333 87.167 49 129.5s82.5 77.333 149.5 105s146.167 41.5 237.5 41.5c85.333 0 158.333 -13.167 219 -39.5s105.334 -64.166 134.001 -113.499c20 -34 30 -96 30 -186v-385
c0 -54.667 1.66699 -90.334 5 -107.001c7.33301 -28.667 20.166 -50.167 38.499 -64.5s42.166 -21.5 71.499 -21.5c30.667 0 67.334 7.33301 110.001 22v-87c-55.333 -16 -105 -24 -149 -24c-47.333 0 -87.166 6.66699 -119.499 20s-58.833 32.833 -79.5 58.5
s-34 56.167 -40 91.5c-80 -62.667 -152.333 -106.667 -217 -132s-130 -38 -196 -38c-92 0 -166.667 25 -224 75s-86 108.667 -86 176c0 40.667 10.5 79.334 31.5 116.001s53 69 96 97s110.5 52.667 202.5 74s219.667 40.666 383 57.999zM792.998 491.999
c-154.667 -22.667 -250.334 -38.333 -287.001 -47c-72.667 -16.667 -124.667 -35 -156 -55s-53.666 -41.5 -66.999 -64.5s-20 -47.5 -20 -73.5s7.5 -51.167 22.5 -75.5s36.167 -43.5 63.5 -57.5s56.333 -21 87 -21c43.333 0 92.333 10.333 147 31s124.667 61 210 121v242z
M426.998 1378c33.333 0 62 -12 86 -36s36 -53 36 -87c0 -33.333 -12 -62 -36 -86s-52.667 -36 -86 -36s-62 12 -86 36s-36 52.667 -36 86c0 34 11.833 63 35.5 87s52.5 36 86.5 36zM760.998 1378c33.333 0 62 -12 86 -36s36 -53 36 -87c0 -33.333 -12 -62 -36 -86
s-52.667 -36 -86 -36c-34 0 -62.833 12 -86.5 36s-35.5 52.667 -35.5 86c0 34 11.833 63 35.5 87s52.5 36 86.5 36z" />
    <glyph glyph-name="aring" unicode="&#xe5;" horiz-adv-x="1188" 
d="M793 579l-0.00195312 108.999c0 74 -20.667 126.833 -62 158.5s-99.666 47.5 -174.999 47.5c-37.333 0 -70 -4.5 -98 -13.5s-50.5 -21.333 -67.5 -37s-29.5 -33.5 -37.5 -53.5c-3.33301 -7.33301 -11.333 -35.666 -24 -84.999c-15.333 -60 -46.333 -90 -93 -90
c-26.667 0 -48.167 8.83301 -64.5 26.5s-24.5 41.5 -24.5 71.5c0 44 16.333 87.167 49 129.5s82.5 77.333 149.5 105s146.167 41.5 237.5 41.5c85.333 0 158.333 -13.167 219 -39.5s105.334 -64.166 134.001 -113.499c20 -34 30 -96 30 -186v-385
c0 -54.667 1.66699 -90.334 5 -107.001c7.33301 -28.667 20.166 -50.167 38.499 -64.5s42.166 -21.5 71.499 -21.5c30.667 0 67.334 7.33301 110.001 22v-87c-55.333 -16 -105 -24 -149 -24c-47.333 0 -87.166 6.66699 -119.499 20s-58.833 32.833 -79.5 58.5
s-34 56.167 -40 91.5c-80 -62.667 -152.333 -106.667 -217 -132s-130 -38 -196 -38c-92 0 -166.667 25 -224 75s-86 108.667 -86 176c0 40.667 10.5 79.334 31.5 116.001s53 69 96 97s110.5 52.667 202.5 74s219.667 40.666 383 57.999zM792.998 491.999
c-154.667 -22.667 -250.334 -38.333 -287.001 -47c-72.667 -16.667 -124.667 -35 -156 -55s-53.666 -41.5 -66.999 -64.5s-20 -47.5 -20 -73.5s7.5 -51.167 22.5 -75.5s36.167 -43.5 63.5 -57.5s56.333 -21 87 -21c43.333 0 92.333 10.333 147 31s124.667 61 210 121v242z
M592.998 1499c52.667 0 97.333 -18.5 134 -55.5s55 -81.5 55 -133.5c0 -52.667 -18.5 -97.5 -55.5 -134.5s-81.5 -55.5 -133.5 -55.5s-96.333 18.5 -133 55.5s-55 81.833 -55 134.5c0 52 18.333 96.5 55 133.5s81 55.5 133 55.5zM592.997 1429
c-32.667 0 -60.5 -11.667 -83.5 -35s-34.5 -51.333 -34.5 -84c0 -33.333 11.5 -61.666 34.5 -84.999s50.833 -35 83.5 -35s60.667 11.667 84 35s35 51.666 35 84.999c0 32.667 -11.667 60.667 -35 84s-51.333 35 -84 35z" />
    <glyph glyph-name="ae" unicode="&#xe6;" horiz-adv-x="1761" 
d="M1625 259l65.998 -52.001c-61.333 -80 -127 -138.5 -197 -175.5s-148 -55.5 -234 -55.5c-84 0 -158.5 18.333 -223.5 55s-120.167 91.667 -165.5 165c-62.667 -61.333 -148 -117.666 -256 -168.999c-72 -34 -144.667 -51 -218 -51c-93.333 0 -168.5 25 -225.5 75
s-85.5 109.667 -85.5 179c0 43.333 10.333 83.166 31 119.499s53.667 69 99 98s116 54.667 212 77s219.333 40.5 370 54.5v83c0 60.667 -7.66699 105.5 -23 134.5s-41.333 52.5 -78 70.5s-82 27 -136 27c-43.333 0 -80.666 -6.33301 -111.999 -19
s-55.166 -29.334 -71.499 -50.001s-29.166 -52.667 -38.499 -96c-8 -35.333 -16 -59.833 -24 -73.5s-18.333 -24.167 -31 -31.5s-26.667 -11 -42 -11c-27.333 0 -49 8.5 -65 25.5s-24 41.833 -24 74.5c0 70 39 133.5 117 190.5s182.333 85.5 313 85.5
c59.333 0 111 -6.16699 155 -18.5s82.667 -30.166 116 -53.499c25.333 -17.333 48.666 -42.666 69.999 -75.999c98.667 98.667 211 148 337 148c125.333 0 225.833 -37.5 301.5 -112.5s115.167 -177.167 118.5 -306.5h-707c-2.66699 -34 -4 -59.333 -4 -76
c0 -80.667 15.667 -153.5 47 -218.5s71.833 -113.833 121.5 -146.5s103.5 -49 161.5 -49c53.333 0 108 14.5 164 43.5s109.667 74.167 161 135.5zM1498 661.999c-5.33301 70 -29.835 126.333 -73.502 169s-97.167 64 -160.5 64s-120.166 -20.5 -170.499 -61.5
s-85.166 -98.167 -104.499 -171.5h509zM797.996 489.999c-104 -11.333 -195.167 -25.8311 -273.5 -43.498s-133.833 -36.334 -166.5 -56.001s-55.667 -40.834 -69 -63.501s-20 -46.667 -20 -72c0 -26.667 7.16699 -52.5 21.5 -77.5s35.666 -44.833 63.999 -59.5
s57.5 -22 87.5 -22c40.667 0 92.834 12.667 156.501 38s130.167 64 199.5 116v240z" />
    <glyph glyph-name="ccedilla" unicode="&#xe7;" horiz-adv-x="1065" 
d="M958 279l63.9932 -52.001c-125.333 -167.333 -275.666 -251 -450.999 -251c-136.667 0 -252 48.667 -346 146s-141 218.333 -141 363c0 96.667 21.833 183.5 65.5 260.5s104.334 136.833 182.001 179.5s166.834 64 267.501 64c114.667 0 210.334 -28.167 287.001 -84.5
s115 -113.166 115 -170.499c0 -30.667 -9 -54.334 -27 -71.001s-38.333 -25 -61 -25c-12 0 -23.667 3 -35 9s-23 15.667 -35 29c-5.33301 6 -15 24.667 -29 56c-18 38.667 -32 64.667 -42 78c-20.667 26.667 -46.167 47.667 -76.5 63s-64.166 23 -101.499 23
c-56.667 0 -109.167 -15.667 -157.5 -47s-86.666 -77.5 -114.999 -138.5s-42.5 -133.833 -42.5 -218.5c0 -131.333 35 -235.666 105 -312.999c60.667 -66.667 133 -100 217 -100c38.667 0 77.834 6.5 117.501 19.5s77.167 32.167 112.5 57.5c26 18 68.333 59 127 123z
M521.993 -0.000976562l-26 -87c27.333 2 43.666 3 48.999 3c37.333 0 72 -7.33301 104 -22c24 -10.667 42.833 -27.167 56.5 -49.5s20.5 -48.833 20.5 -79.5c0 -52 -17.167 -94.167 -51.5 -126.5s-80.5 -48.5 -138.5 -48.5s-108 14.333 -150 43
c-31.333 20.667 -47 44.667 -47 72c0 14.667 4.83301 27 14.5 37s22.167 15 37.5 15s28 -3.5 38 -10.5s18.667 -20.167 26 -39.5c10 -22.667 18.333 -37 25 -43c15.333 -12 33.333 -18 54 -18c26.667 0 49.334 10.167 68.001 30.5s28 46.833 28 79.5c0 34 -10 60 -30 78
s-51 27 -93 27c-27.333 0 -60 -6.66699 -98 -20l51 159h62z" />
    <glyph glyph-name="egrave" unicode="&#xe8;" horiz-adv-x="1065" 
d="M930 258l64.0039 -52c-48.667 -58 -95.834 -104 -141.501 -138s-88.834 -57.833 -129.501 -71.5s-88.334 -20.5 -143.001 -20.5c-98 0 -181.333 20 -250 60c-78.667 46 -139 106 -181 180s-63 161.333 -63 262c0 105.333 20.333 195.333 61 270s97.5 133.5 170.5 176.5
s157.5 64.5 253.5 64.5c71.333 0 133.333 -11.167 186 -33.5s97.334 -56 134.001 -101s63.334 -96.5 80.001 -154.5c9.33301 -34 14.666 -78 15.999 -132h-707c-2 -32.667 -3 -57 -3 -73c0 -84 14.667 -158.833 44 -224.5s68.166 -114 116.499 -145
s103.166 -46.5 164.499 -46.5c52 0 102.333 12.167 151 36.5s107.667 71.833 177 142.5zM802.004 662c-10 61.333 -24.167 106.669 -42.5 136.002s-44.333 52.666 -78 69.999s-71.5 26 -113.5 26s-81.333 -8.66699 -118 -26s-67.167 -41.333 -91.5 -72
s-45.5 -75.334 -63.5 -134.001h507zM741.004 1170l-286 60c-50 10.667 -84.333 24.5 -103 41.5s-28 37.833 -28 62.5c0 22.667 6.83301 41.167 20.5 55.5s31.167 21.5 52.5 21.5c42.667 0 95.667 -23.333 159 -70l185 -136v-35z" />
    <glyph glyph-name="eacute" unicode="&#xe9;" horiz-adv-x="1065" 
d="M930 258l64.0039 -52c-48.667 -58 -95.834 -104 -141.501 -138s-88.834 -57.833 -129.501 -71.5s-88.334 -20.5 -143.001 -20.5c-98 0 -181.333 20 -250 60c-78.667 46 -139 106 -181 180s-63 161.333 -63 262c0 105.333 20.333 195.333 61 270s97.5 133.5 170.5 176.5
s157.5 64.5 253.5 64.5c71.333 0 133.333 -11.167 186 -33.5s97.334 -56 134.001 -101s63.334 -96.5 80.001 -154.5c9.33301 -34 14.666 -78 15.999 -132h-707c-2 -32.667 -3 -57 -3 -73c0 -84 14.667 -158.833 44 -224.5s68.166 -114 116.499 -145
s103.166 -46.5 164.499 -46.5c52 0 102.333 12.167 151 36.5s107.667 71.833 177 142.5zM802.004 662c-10 61.333 -24.167 106.669 -42.5 136.002s-44.333 52.666 -78 69.999s-71.5 26 -113.5 26s-81.333 -8.66699 -118 -26s-67.167 -41.333 -91.5 -72
s-45.5 -75.334 -63.5 -134.001h507zM355.004 1170l0.000976562 34.999l185 136c63.333 46.667 116.333 70 159 70c20 0 36.833 -7.16699 50.5 -21.5s20.5 -32.166 20.5 -53.499c0 -26 -9.33301 -47.5 -28 -64.5s-52.334 -30.833 -101.001 -41.5z" />
    <glyph glyph-name="ecircumflex" unicode="&#xea;" horiz-adv-x="1065" 
d="M930 258l64.0039 -52c-48.667 -58 -95.834 -104 -141.501 -138s-88.834 -57.833 -129.501 -71.5s-88.334 -20.5 -143.001 -20.5c-98 0 -181.333 20 -250 60c-78.667 46 -139 106 -181 180s-63 161.333 -63 262c0 105.333 20.333 195.333 61 270s97.5 133.5 170.5 176.5
s157.5 64.5 253.5 64.5c71.333 0 133.333 -11.167 186 -33.5s97.334 -56 134.001 -101s63.334 -96.5 80.001 -154.5c9.33301 -34 14.666 -78 15.999 -132h-707c-2 -32.667 -3 -57 -3 -73c0 -84 14.667 -158.833 44 -224.5s68.166 -114 116.499 -145
s103.166 -46.5 164.499 -46.5c52 0 102.333 12.167 151 36.5s107.667 71.833 177 142.5zM802.004 662c-10 61.333 -24.167 106.669 -42.5 136.002s-44.333 52.666 -78 69.999s-71.5 26 -113.5 26s-81.333 -8.66699 -118 -26s-67.167 -41.333 -91.5 -72
s-45.5 -75.334 -63.5 -134.001h507zM612.004 1404l291 -191l-27 -51l-264 93l-263 -93l-27 51z" />
    <glyph glyph-name="edieresis" unicode="&#xeb;" horiz-adv-x="1065" 
d="M930 258l64.0039 -52c-48.667 -58 -95.834 -104 -141.501 -138s-88.834 -57.833 -129.501 -71.5s-88.334 -20.5 -143.001 -20.5c-98 0 -181.333 20 -250 60c-78.667 46 -139 106 -181 180s-63 161.333 -63 262c0 105.333 20.333 195.333 61 270s97.5 133.5 170.5 176.5
s157.5 64.5 253.5 64.5c71.333 0 133.333 -11.167 186 -33.5s97.334 -56 134.001 -101s63.334 -96.5 80.001 -154.5c9.33301 -34 14.666 -78 15.999 -132h-707c-2 -32.667 -3 -57 -3 -73c0 -84 14.667 -158.833 44 -224.5s68.166 -114 116.499 -145
s103.166 -46.5 164.499 -46.5c52 0 102.333 12.167 151 36.5s107.667 71.833 177 142.5zM802.004 662c-10 61.333 -24.167 106.669 -42.5 136.002s-44.333 52.666 -78 69.999s-71.5 26 -113.5 26s-81.333 -8.66699 -118 -26s-67.167 -41.333 -91.5 -72
s-45.5 -75.334 -63.5 -134.001h507zM396.004 1378c33.333 0 62 -12 86 -36s36 -53 36 -87c0 -33.333 -12 -62 -36 -86s-52.667 -36 -86 -36s-62 12 -86 36s-36 52.667 -36 86c0 34 11.833 63 35.5 87s52.5 36 86.5 36zM730.004 1378c33.333 0 62 -12 86 -36s36 -53 36 -87
c0 -33.333 -12 -62 -36 -86s-52.667 -36 -86 -36c-34 0 -62.833 12 -86.5 36s-35.5 52.667 -35.5 86c0 34 11.833 63 35.5 87s52.5 36 86.5 36z" />
    <glyph glyph-name="igrave" unicode="&#xec;" horiz-adv-x="614" 
d="M61 821l0.000976562 83c55.333 6.66699 101.833 16 139.5 28s80.5 31 128.5 57h73v-756c0 -51.333 1.66699 -82.333 5 -93c6 -20 18 -34.667 36 -44c14 -8 41.667 -12 83 -12h47v-84h-512v84h41c44.667 0 74.667 4 90 12s26.166 19.333 32.499 34s9.5 49 9.5 103v588
h-173zM476.001 1170l-286 60c-50 10.667 -84.333 24.5 -103 41.5s-28 37.833 -28 62.5c0 22.667 6.83301 41.167 20.5 55.5s31.167 21.5 52.5 21.5c42.667 0 95.667 -23.333 159 -70l185 -136v-35z" />
    <glyph glyph-name="iacute" unicode="&#xed;" horiz-adv-x="614" 
d="M61 821l0.000976562 83c55.333 6.66699 101.833 16 139.5 28s80.5 31 128.5 57h73v-756c0 -51.333 1.66699 -82.333 5 -93c6 -20 18 -34.667 36 -44c14 -8 41.667 -12 83 -12h47v-84h-512v84h41c44.667 0 74.667 4 90 12s26.166 19.333 32.499 34s9.5 49 9.5 103v588
h-173zM99.001 1170l0.000976562 34.999l185 136c63.333 46.667 116.333 70 159 70c20 0 36.833 -7.16699 50.5 -21.5s20.5 -32.166 20.5 -53.499c0 -26 -9.33301 -47.5 -28 -64.5s-52.334 -30.833 -101.001 -41.5z" />
    <glyph glyph-name="icircumflex" unicode="&#xee;" horiz-adv-x="614" 
d="M61 821l0.000976562 83c55.333 6.66699 101.833 16 139.5 28s80.5 31 128.5 57h73v-756c0 -51.333 1.66699 -82.333 5 -93c6 -20 18 -34.667 36 -44c14 -8 41.667 -12 83 -12h47v-84h-512v84h41c44.667 0 74.667 4 90 12s26.166 19.333 32.499 34s9.5 49 9.5 103v588
h-173zM307.001 1404l291 -191l-27 -51l-264 93l-263 -93l-27 51z" />
    <glyph glyph-name="idieresis" unicode="&#xef;" horiz-adv-x="614" 
d="M61 821l0.000976562 83c55.333 6.66699 101.833 16 139.5 28s80.5 31 128.5 57h73v-756c0 -51.333 1.66699 -82.333 5 -93c6 -20 18 -34.667 36 -44c14 -8 41.667 -12 83 -12h47v-84h-512v84h41c44.667 0 74.667 4 90 12s26.166 19.333 32.499 34s9.5 49 9.5 103v588
h-173zM140.001 1378c33.333 0 62 -12 86 -36s36 -53 36 -87c0 -33.333 -12 -62 -36 -86s-52.667 -36 -86 -36s-62 12 -86 36s-36 52.667 -36 86c0 34 11.833 63 35.5 87s52.5 36 86.5 36zM474.001 1378c33.333 0 62 -12 86 -36s36 -53 36 -87c0 -33.333 -12 -62 -36 -86
s-52.667 -36 -86 -36c-34 0 -62.833 12 -86.5 36s-35.5 52.667 -35.5 86c0 34 11.833 63 35.5 87s52.5 36 86.5 36z" />
    <glyph glyph-name="eth" unicode="&#xf0;" horiz-adv-x="1147" 
d="M995 1444l22 -80.002l-255 -70c60.667 -68 115.667 -146.5 165 -235.5s84.5 -172.833 105.5 -251.5s31.5 -159.667 31.5 -243c0 -122 -22.5 -227.667 -67.5 -317s-104 -156.833 -177 -202.5s-160.5 -68.5 -262.5 -68.5c-152 0 -269.167 50 -351.5 150
s-123.5 219 -123.5 357c0 98.667 20.5 186.834 61.5 264.501s97.167 137.334 168.5 179.001s152 62.5 242 62.5c44 0 85.833 -5.5 125.5 -16.5s72 -25.333 97 -43s49.5 -43.5 73.5 -77.5c-26.667 131.333 -93.667 269.666 -201 414.999l-296 -80l-23 80l260 70
c-16 20.667 -30.667 37.667 -44 51l-81 79h133c34.667 -31.333 67.667 -65.666 99 -102.999zM573 892.998c-52 0 -101.332 -16.002 -147.999 -48.002s-82.834 -78.833 -108.501 -140.5s-38.5 -138.834 -38.5 -231.501c0 -130.667 29.667 -234 89 -310
c49.333 -63.333 116.333 -95 201 -95c58 0 109 14.833 153 44.5s79.833 76.334 107.5 140.001s41.5 139.834 41.5 228.501c0 88 -13.333 163.833 -40 227.5s-62 110.334 -106 140.001s-94.333 44.5 -151 44.5z" />
    <glyph glyph-name="ntilde" unicode="&#xf1;" horiz-adv-x="1352" 
d="M75 821v83.999c59.333 6.66699 103.666 14.667 132.999 24s71.666 29.333 126.999 60h72v-190c88 74 163.167 124.167 225.5 150.5s125.5 39.5 189.5 39.5c54.667 0 103 -9.16699 145 -27.5s76.167 -43.166 102.5 -74.499s43.833 -67 52.5 -107
c5.33301 -24.667 8 -62 8 -112v-440c0 -52.667 3.83301 -86.5 11.5 -101.5s19.834 -25.833 36.501 -32.5s57.667 -10 123 -10v-84h-515v84h28c48 0 80.667 4.33301 98 13s29.833 21.334 37.5 38.001s11.5 50.667 11.5 102v368c0 76 -6.16699 128.667 -18.5 158
s-33.333 53.166 -63 71.499s-67.167 27.5 -112.5 27.5c-54 0 -111.667 -13.833 -173 -41.5s-120.666 -68.5 -177.999 -122.5v-461c0 -52 3.83301 -86.667 11.5 -104s20.167 -30.333 37.5 -39c12 -6.66699 44 -10 96 -10h29v-84h-515v84h25c49.333 0 83 4.16699 101 12.5
s30.667 23.166 38 44.499c4 10.667 6 47.334 6 110.001v570h-170zM991 1325c-11.333 -44 -36.168 -80.668 -74.501 -110.001s-81.166 -44 -128.499 -44c-15.333 0 -29.333 1.33301 -42 4s-42.667 11.334 -90 26.001c-72.667 22.667 -124.334 34 -155.001 34
c-29.333 0 -56.333 -13.667 -81 -41l-59 20c12.667 42 35.5 75.833 68.5 101.5s69.167 38.5 108.5 38.5c40 0 104.667 -12.667 194 -38c44 -12 77.667 -18 101 -18c42.667 0 75.334 15 98.001 45z" />
    <glyph glyph-name="ograve" unicode="&#xf2;" horiz-adv-x="1147" 
d="M579 989c98 0 182.833 -20.333 254.5 -61s128.167 -100 169.5 -178s62 -167 62 -267s-21.167 -189 -63.5 -267s-100 -137.5 -173 -178.5s-160.167 -61.5 -261.5 -61.5c-161.333 0 -282.5 50.333 -363.5 151s-121.5 219 -121.5 355c0 99.333 21 187.5 63 264.5
s100.833 136.667 176.5 179s161.5 63.5 257.5 63.5zM571 892c-76 0 -140.331 -30.001 -192.998 -90.001c-66.667 -74.667 -100 -183.334 -100 -326.001c0 -137.333 28.333 -242 85 -314c51.333 -64 121 -96 209 -96c56.667 0 107.167 15 151.5 45
s80.166 77.833 107.499 143.5s41 142.834 41 231.501c0 86.667 -14.667 164.334 -44 233.001c-22.667 54.667 -56.834 97.167 -102.501 127.5s-97.167 45.5 -154.5 45.5zM782.002 1170l-286 60c-50 10.667 -84.333 24.5 -103 41.5s-28 37.833 -28 62.5
c0 22.667 6.83301 41.167 20.5 55.5s31.167 21.5 52.5 21.5c42.667 0 95.667 -23.333 159 -70l185 -136v-35z" />
    <glyph glyph-name="oacute" unicode="&#xf3;" horiz-adv-x="1147" 
d="M579 989c98 0 182.833 -20.333 254.5 -61s128.167 -100 169.5 -178s62 -167 62 -267s-21.167 -189 -63.5 -267s-100 -137.5 -173 -178.5s-160.167 -61.5 -261.5 -61.5c-161.333 0 -282.5 50.333 -363.5 151s-121.5 219 -121.5 355c0 99.333 21 187.5 63 264.5
s100.833 136.667 176.5 179s161.5 63.5 257.5 63.5zM571 892c-76 0 -140.331 -30.001 -192.998 -90.001c-66.667 -74.667 -100 -183.334 -100 -326.001c0 -137.333 28.333 -242 85 -314c51.333 -64 121 -96 209 -96c56.667 0 107.167 15 151.5 45
s80.166 77.833 107.499 143.5s41 142.834 41 231.501c0 86.667 -14.667 164.334 -44 233.001c-22.667 54.667 -56.834 97.167 -102.501 127.5s-97.167 45.5 -154.5 45.5zM410.002 1170l0.000976562 34.999l185 136c63.333 46.667 116.333 70 159 70
c20 0 36.833 -7.16699 50.5 -21.5s20.5 -32.166 20.5 -53.499c0 -26 -9.33301 -47.5 -28 -64.5s-52.334 -30.833 -101.001 -41.5z" />
    <glyph glyph-name="ocircumflex" unicode="&#xf4;" horiz-adv-x="1147" 
d="M579 989c98 0 182.833 -20.333 254.5 -61s128.167 -100 169.5 -178s62 -167 62 -267s-21.167 -189 -63.5 -267s-100 -137.5 -173 -178.5s-160.167 -61.5 -261.5 -61.5c-161.333 0 -282.5 50.333 -363.5 151s-121.5 219 -121.5 355c0 99.333 21 187.5 63 264.5
s100.833 136.667 176.5 179s161.5 63.5 257.5 63.5zM571 892c-76 0 -140.331 -30.001 -192.998 -90.001c-66.667 -74.667 -100 -183.334 -100 -326.001c0 -137.333 28.333 -242 85 -314c51.333 -64 121 -96 209 -96c56.667 0 107.167 15 151.5 45
s80.166 77.833 107.499 143.5s41 142.834 41 231.501c0 86.667 -14.667 164.334 -44 233.001c-22.667 54.667 -56.834 97.167 -102.501 127.5s-97.167 45.5 -154.5 45.5zM573.002 1404l291 -191l-27 -51l-264 93l-263 -93l-27 51z" />
    <glyph glyph-name="otilde" unicode="&#xf5;" horiz-adv-x="1147" 
d="M579 989c98 0 182.833 -20.333 254.5 -61s128.167 -100 169.5 -178s62 -167 62 -267s-21.167 -189 -63.5 -267s-100 -137.5 -173 -178.5s-160.167 -61.5 -261.5 -61.5c-161.333 0 -282.5 50.333 -363.5 151s-121.5 219 -121.5 355c0 99.333 21 187.5 63 264.5
s100.833 136.667 176.5 179s161.5 63.5 257.5 63.5zM571 892c-76 0 -140.331 -30.001 -192.998 -90.001c-66.667 -74.667 -100 -183.334 -100 -326.001c0 -137.333 28.333 -242 85 -314c51.333 -64 121 -96 209 -96c56.667 0 107.167 15 151.5 45
s80.166 77.833 107.499 143.5s41 142.834 41 231.501c0 86.667 -14.667 164.334 -44 233.001c-22.667 54.667 -56.834 97.167 -102.501 127.5s-97.167 45.5 -154.5 45.5zM889.002 1325c-11.333 -44 -36.168 -80.668 -74.501 -110.001s-81.166 -44 -128.499 -44
c-15.333 0 -29.333 1.33301 -42 4s-42.667 11.334 -90 26.001c-72.667 22.667 -124.334 34 -155.001 34c-29.333 0 -56.333 -13.667 -81 -41l-59 20c12.667 42 35.5 75.833 68.5 101.5s69.167 38.5 108.5 38.5c40 0 104.667 -12.667 194 -38c44 -12 77.667 -18 101 -18
c42.667 0 75.334 15 98.001 45z" />
    <glyph glyph-name="odieresis" unicode="&#xf6;" horiz-adv-x="1147" 
d="M579 989c98 0 182.833 -20.333 254.5 -61s128.167 -100 169.5 -178s62 -167 62 -267s-21.167 -189 -63.5 -267s-100 -137.5 -173 -178.5s-160.167 -61.5 -261.5 -61.5c-161.333 0 -282.5 50.333 -363.5 151s-121.5 219 -121.5 355c0 99.333 21 187.5 63 264.5
s100.833 136.667 176.5 179s161.5 63.5 257.5 63.5zM571 892c-76 0 -140.331 -30.001 -192.998 -90.001c-66.667 -74.667 -100 -183.334 -100 -326.001c0 -137.333 28.333 -242 85 -314c51.333 -64 121 -96 209 -96c56.667 0 107.167 15 151.5 45
s80.166 77.833 107.499 143.5s41 142.834 41 231.501c0 86.667 -14.667 164.334 -44 233.001c-22.667 54.667 -56.834 97.167 -102.501 127.5s-97.167 45.5 -154.5 45.5zM407.002 1378c33.333 0 62 -12 86 -36s36 -53 36 -87c0 -33.333 -12 -62 -36 -86s-52.667 -36 -86 -36
s-62 12 -86 36s-36 52.667 -36 86c0 34 11.833 63 35.5 87s52.5 36 86.5 36zM741.002 1378c33.333 0 62 -12 86 -36s36 -53 36 -87c0 -33.333 -12 -62 -36 -86s-52.667 -36 -86 -36c-34 0 -62.833 12 -86.5 36s-35.5 52.667 -35.5 86c0 34 11.833 63 35.5 87
s52.5 36 86.5 36z" />
    <glyph glyph-name="divide" unicode="&#xf7;" horiz-adv-x="1124" 
d="M564 1128c27.333 0 50.666 -9.5 69.999 -28.5s29 -42.167 29 -69.5c0 -28 -10 -52 -30 -72s-43.667 -30 -71 -30s-50.833 10 -70.5 30s-29.5 44 -29.5 72c0 27.333 9.83301 50.5 29.5 69.5s43.834 28.5 72.501 28.5zM1050 759v-123h-975v123h975zM562 467
c27.333 0 50.666 -9.5 69.999 -28.5s29 -42.167 29 -69.5c0 -28.667 -9.83301 -53 -29.5 -73s-43.5 -30 -71.5 -30c-27.333 0 -50.833 10 -70.5 30s-29.5 44.333 -29.5 73c0 27.333 9.83301 50.5 29.5 69.5s43.834 28.5 72.501 28.5z" />
    <glyph glyph-name="oslash" unicode="&#xf8;" horiz-adv-x="1147" 
d="M880 898l79 91h106l-126 -146c39.333 -43.333 70.166 -96.5 92.499 -159.5s33.5 -129.833 33.5 -200.5c0 -100 -21.167 -189.167 -63.5 -267.5s-100 -137.833 -173 -178.5s-160.833 -61 -263.5 -61c-121.333 0 -221 30 -299 90l-77 -90h-107l126 146
c-84 102 -126 221.667 -126 359c0 100 21 188.5 63 265.5s100.833 136.667 176.5 179s161.834 63.5 258.501 63.5c119.333 0 219.333 -30.333 300 -91zM787 791c-24 30.667 -55.333 55.166 -94 73.499s-78.667 27.5 -120 27.5c-79.333 0 -145.333 -31 -198 -93
c-64.667 -75.333 -97 -183.666 -97 -324.999c0 -85.333 12.667 -161 38 -227zM829 715.999l-472.001 -546.001c52 -69.333 123.667 -104 215 -104c56.667 0 107.334 15 152.001 45s80.5 77.833 107.5 143.5s40.5 142.834 40.5 231.501c0 87.333 -14.333 164 -43 230z" />
    <glyph glyph-name="ugrave" unicode="&#xf9;" horiz-adv-x="1393" 
d="M20 965l379.001 15.001v-644c0 -56.667 7.83301 -101.667 23.5 -135s39.667 -59.166 72 -77.499s70.166 -27.5 113.499 -27.5c53.333 0 113.833 14.333 181.5 43s135.167 71.334 202.5 128.001v466c0 49.333 -3.66699 81.666 -11 96.999s-20.333 27.666 -39 36.999
s-48 14 -88 14h-73v84l379 15v-746c0 -48 4 -81.167 12 -99.5s19.833 -31.333 35.5 -39s47.167 -11.5 94.5 -11.5h31v-84l-332 -17v185c-91.333 -72.667 -171 -122.834 -239 -150.501s-137 -41.5 -207 -41.5c-52 0 -97.167 7 -135.5 21s-72 35 -101 63
s-51.167 61.667 -66.5 101s-23 81.333 -23 126v455c0 40.667 -3.66699 69.167 -11 85.5s-19.5 29.333 -36.5 39s-40.167 14.5 -69.5 14.5h-92v84zM905.001 1170l-286 60c-50 10.667 -84.333 24.5 -103 41.5s-28 37.833 -28 62.5c0 22.667 6.83301 41.167 20.5 55.5
s31.167 21.5 52.5 21.5c42.667 0 95.667 -23.333 159 -70l185 -136v-35z" />
    <glyph glyph-name="uacute" unicode="&#xfa;" horiz-adv-x="1393" 
d="M20 965l379.001 15.001v-644c0 -56.667 7.83301 -101.667 23.5 -135s39.667 -59.166 72 -77.499s70.166 -27.5 113.499 -27.5c53.333 0 113.833 14.333 181.5 43s135.167 71.334 202.5 128.001v466c0 49.333 -3.66699 81.666 -11 96.999s-20.333 27.666 -39 36.999
s-48 14 -88 14h-73v84l379 15v-746c0 -48 4 -81.167 12 -99.5s19.833 -31.333 35.5 -39s47.167 -11.5 94.5 -11.5h31v-84l-332 -17v185c-91.333 -72.667 -171 -122.834 -239 -150.501s-137 -41.5 -207 -41.5c-52 0 -97.167 7 -135.5 21s-72 35 -101 63
s-51.167 61.667 -66.5 101s-23 81.333 -23 126v455c0 40.667 -3.66699 69.167 -11 85.5s-19.5 29.333 -36.5 39s-40.167 14.5 -69.5 14.5h-92v84zM489.001 1170l0.000976562 34.999l185 136c63.333 46.667 116.333 70 159 70c20 0 36.833 -7.16699 50.5 -21.5
s20.5 -32.166 20.5 -53.499c0 -26 -9.33301 -47.5 -28 -64.5s-52.334 -30.833 -101.001 -41.5z" />
    <glyph glyph-name="ucircumflex" unicode="&#xfb;" horiz-adv-x="1393" 
d="M20 965l379.001 15.001v-644c0 -56.667 7.83301 -101.667 23.5 -135s39.667 -59.166 72 -77.499s70.166 -27.5 113.499 -27.5c53.333 0 113.833 14.333 181.5 43s135.167 71.334 202.5 128.001v466c0 49.333 -3.66699 81.666 -11 96.999s-20.333 27.666 -39 36.999
s-48 14 -88 14h-73v84l379 15v-746c0 -48 4 -81.167 12 -99.5s19.833 -31.333 35.5 -39s47.167 -11.5 94.5 -11.5h31v-84l-332 -17v185c-91.333 -72.667 -171 -122.834 -239 -150.501s-137 -41.5 -207 -41.5c-52 0 -97.167 7 -135.5 21s-72 35 -101 63
s-51.167 61.667 -66.5 101s-23 81.333 -23 126v455c0 40.667 -3.66699 69.167 -11 85.5s-19.5 29.333 -36.5 39s-40.167 14.5 -69.5 14.5h-92v84zM696.001 1404l291 -191l-27 -51l-264 93l-263 -93l-27 51z" />
    <glyph glyph-name="udieresis" unicode="&#xfc;" horiz-adv-x="1393" 
d="M20 965l379.001 15.001v-644c0 -56.667 7.83301 -101.667 23.5 -135s39.667 -59.166 72 -77.499s70.166 -27.5 113.499 -27.5c53.333 0 113.833 14.333 181.5 43s135.167 71.334 202.5 128.001v466c0 49.333 -3.66699 81.666 -11 96.999s-20.333 27.666 -39 36.999
s-48 14 -88 14h-73v84l379 15v-746c0 -48 4 -81.167 12 -99.5s19.833 -31.333 35.5 -39s47.167 -11.5 94.5 -11.5h31v-84l-332 -17v185c-91.333 -72.667 -171 -122.834 -239 -150.501s-137 -41.5 -207 -41.5c-52 0 -97.167 7 -135.5 21s-72 35 -101 63
s-51.167 61.667 -66.5 101s-23 81.333 -23 126v455c0 40.667 -3.66699 69.167 -11 85.5s-19.5 29.333 -36.5 39s-40.167 14.5 -69.5 14.5h-92v84zM530.001 1378c33.333 0 62 -12 86 -36s36 -53 36 -87c0 -33.333 -12 -62 -36 -86s-52.667 -36 -86 -36s-62 12 -86 36
s-36 52.667 -36 86c0 34 11.833 63 35.5 87s52.5 36 86.5 36zM864.001 1378c33.333 0 62 -12 86 -36s36 -53 36 -87c0 -33.333 -12 -62 -36 -86s-52.667 -36 -86 -36c-34 0 -62.833 12 -86.5 36s-35.5 52.667 -35.5 86c0 34 11.833 63 35.5 87s52.5 36 86.5 36z" />
    <glyph glyph-name="yacute" unicode="&#xfd;" horiz-adv-x="1106" 
d="M-11 965l485.999 -0.00292969v-84h-40c-38 0 -60.667 -1 -68 -3c-8.66699 -2.66699 -16 -8.16699 -22 -16.5s-9 -18.833 -9 -31.5c0 -18 9 -48.333 27 -91l232 -545l215 521c25.333 61.333 38 102 38 122c0 15.333 -5.66699 26.5 -17 33.5s-37 10.5 -77 10.5h-47v84h409
v-84h-24c-40 0 -66 -2.66699 -78 -8s-23.667 -16.166 -35 -32.499s-29.333 -53.5 -54 -111.5l-367 -855c-26.667 -61.333 -56.334 -118.166 -89.001 -170.499s-73.667 -92.833 -123 -121.5s-103.666 -43 -162.999 -43c-68.667 0 -123.667 15.667 -165 47
c-35.333 26.667 -53 60 -53 100c0 24.667 7.66699 45.167 23 61.5s33.333 24.5 54 24.5c16 0 31 -3.33301 45 -10c8.66699 -3.33301 26.667 -17.333 54 -42c33.333 -29.333 56.833 -47.333 70.5 -54s27.167 -10 40.5 -10c27.333 0 54.333 9.33301 81 28s49.334 45 68.001 79
c26.667 48.667 48.667 94.334 66 137.001l41 100l-330 739c-23.333 52 -43 87 -59 105s-32 29 -48 33c-8.66699 2.66699 -36 4 -82 4v84zM384.999 1170l0.000976562 34.999l185 136c63.333 46.667 116.333 70 159 70c20 0 36.833 -7.16699 50.5 -21.5
s20.5 -32.166 20.5 -53.499c0 -26 -9.33301 -47.5 -28 -64.5s-52.334 -30.833 -101.001 -41.5z" />
    <glyph glyph-name="thorn" unicode="&#xfe;" horiz-adv-x="1270" 
d="M64 1299l-0.000976562 83.001c50 0 94.333 6.16699 133 18.5s81 34.5 127 66.5h79v-645c83.333 66 152.666 110.333 207.999 133s110.666 34 165.999 34c114 0 211.167 -44.667 291.5 -134s120.5 -205.666 120.5 -348.999c0 -158.667 -45.667 -288.667 -137 -390
c-83.333 -93.333 -190.666 -140 -321.999 -140c-65.333 0 -126.666 12.333 -183.999 37c-41.333 17.333 -89 48.333 -143 93v-329c0 -49.333 1.33301 -78.333 4 -87c3.33301 -12.667 10 -23.334 20 -32.001s22.667 -14.334 38 -17.001c11.333 -2 49.333 -3 114 -3v-84h-515
v84h45c46 0 75.833 3.5 89.5 10.5s23.834 17.833 30.501 32.5c4 11.333 6 46 6 104v1514h-171zM402.999 719.001l0.000976562 -344.001c0 -45.333 2.66699 -79 8 -101c8 -34 23.5 -64.667 46.5 -92s54.333 -50.666 94 -69.999s81.167 -29 124.5 -29
c86.667 0 161.834 32.667 225.501 98s95.5 164.333 95.5 297c0 124 -26.333 219.833 -79 287.5s-115 101.5 -187 101.5c-46.667 0 -97.334 -12.333 -152.001 -37s-113.334 -61.667 -176.001 -111z" />
    <glyph glyph-name="ydieresis" unicode="&#xff;" horiz-adv-x="1106" 
d="M-11 965l485.999 -0.00292969v-84h-40c-38 0 -60.667 -1 -68 -3c-8.66699 -2.66699 -16 -8.16699 -22 -16.5s-9 -18.833 -9 -31.5c0 -18 9 -48.333 27 -91l232 -545l215 521c25.333 61.333 38 102 38 122c0 15.333 -5.66699 26.5 -17 33.5s-37 10.5 -77 10.5h-47v84h409
v-84h-24c-40 0 -66 -2.66699 -78 -8s-23.667 -16.166 -35 -32.499s-29.333 -53.5 -54 -111.5l-367 -855c-26.667 -61.333 -56.334 -118.166 -89.001 -170.499s-73.667 -92.833 -123 -121.5s-103.666 -43 -162.999 -43c-68.667 0 -123.667 15.667 -165 47
c-35.333 26.667 -53 60 -53 100c0 24.667 7.66699 45.167 23 61.5s33.333 24.5 54 24.5c16 0 31 -3.33301 45 -10c8.66699 -3.33301 26.667 -17.333 54 -42c33.333 -29.333 56.833 -47.333 70.5 -54s27.167 -10 40.5 -10c27.333 0 54.333 9.33301 81 28s49.334 45 68.001 79
c26.667 48.667 48.667 94.334 66 137.001l41 100l-330 739c-23.333 52 -43 87 -59 105s-32 29 -48 33c-8.66699 2.66699 -36 4 -82 4v84zM385.999 1378c33.333 0 62 -12 86 -36s36 -53 36 -87c0 -33.333 -12 -62 -36 -86s-52.667 -36 -86 -36s-62 12 -86 36
s-36 52.667 -36 86c0 34 11.833 63 35.5 87s52.5 36 86.5 36zM719.999 1378c33.333 0 62 -12 86 -36s36 -53 36 -87c0 -33.333 -12 -62 -36 -86s-52.667 -36 -86 -36c-34 0 -62.833 12 -86.5 36s-35.5 52.667 -35.5 86c0 34 11.833 63 35.5 87s52.5 36 86.5 36z" />
    <glyph glyph-name="Amacron" unicode="&#x100;" horiz-adv-x="1393" 
d="M617 1395h164.998l433 -1166c21.333 -58.667 42.833 -97.5 64.5 -116.5s50.834 -28.5 87.501 -28.5h22v-84h-497v84c16 1.33301 31.667 2 47 2c32 0 53 3.33301 63 10c19.333 12.667 29 28.667 29 48c0 14 -9.33301 48.333 -28 103l-92 270h-506l-108 -302
c-11.333 -31.333 -17 -53 -17 -65c0 -13.333 3.5 -25 10.5 -35s16.5 -17.5 28.5 -22.5s31.333 -7.5 58 -7.5c18 0 32.667 -0.333008 44 -1v-84h-417v84c38.667 0 66.5 3.83301 83.5 11.5s31.833 20 44.5 37s29.334 52.833 50.001 107.5zM441.998 615h431l-216 600z
M999.998 1637v-103h-606v103h606z" />
    <glyph glyph-name="amacron" unicode="&#x101;" horiz-adv-x="1188" 
d="M793 579l-0.00195312 108.999c0 74 -20.667 126.833 -62 158.5s-99.666 47.5 -174.999 47.5c-37.333 0 -70 -4.5 -98 -13.5s-50.5 -21.333 -67.5 -37s-29.5 -33.5 -37.5 -53.5c-3.33301 -7.33301 -11.333 -35.666 -24 -84.999c-15.333 -60 -46.333 -90 -93 -90
c-26.667 0 -48.167 8.83301 -64.5 26.5s-24.5 41.5 -24.5 71.5c0 44 16.333 87.167 49 129.5s82.5 77.333 149.5 105s146.167 41.5 237.5 41.5c85.333 0 158.333 -13.167 219 -39.5s105.334 -64.166 134.001 -113.499c20 -34 30 -96 30 -186v-385
c0 -54.667 1.66699 -90.334 5 -107.001c7.33301 -28.667 20.166 -50.167 38.499 -64.5s42.166 -21.5 71.499 -21.5c30.667 0 67.334 7.33301 110.001 22v-87c-55.333 -16 -105 -24 -149 -24c-47.333 0 -87.166 6.66699 -119.499 20s-58.833 32.833 -79.5 58.5
s-34 56.167 -40 91.5c-80 -62.667 -152.333 -106.667 -217 -132s-130 -38 -196 -38c-92 0 -166.667 25 -224 75s-86 108.667 -86 176c0 40.667 10.5 79.334 31.5 116.001s53 69 96 97s110.5 52.667 202.5 74s219.667 40.666 383 57.999zM792.998 491.999
c-154.667 -22.667 -250.334 -38.333 -287.001 -47c-72.667 -16.667 -124.667 -35 -156 -55s-53.666 -41.5 -66.999 -64.5s-20 -47.5 -20 -73.5s7.5 -51.167 22.5 -75.5s36.167 -43.5 63.5 -57.5s56.333 -21 87 -21c43.333 0 92.333 10.333 147 31s124.667 61 210 121v242z
M887.998 1305v-103h-606v103h606z" />
    <glyph glyph-name="Abreve" unicode="&#x102;" horiz-adv-x="1393" 
d="M616 1395h164.998l433 -1166c21.333 -58.667 42.833 -97.5 64.5 -116.5s50.834 -28.5 87.501 -28.5h22v-84h-497v84c16 1.33301 31.667 2 47 2c32 0 53 3.33301 63 10c19.333 12.667 29 28.667 29 48c0 14 -9.33301 48.333 -28 103l-92 270h-506l-108 -302
c-11.333 -31.333 -17 -53 -17 -65c0 -13.333 3.5 -25 10.5 -35s16.5 -17.5 28.5 -22.5s31.333 -7.5 58 -7.5c18 0 32.667 -0.333008 44 -1v-84h-417v84c38.667 0 66.5 3.83301 83.5 11.5s31.833 20 44.5 37s29.334 52.833 50.001 107.5zM440.998 615h431l-216 600z
M359.998 1702l48 38.001c85.333 -71.333 182.333 -107 291 -107c53.333 0 106.666 10.333 159.999 31s96 46 128 76l46 -38c-30.667 -60.667 -77.167 -110.334 -139.5 -149.001s-129.166 -58 -200.499 -58c-48.667 0 -95 8.5 -139 25.5s-82.167 40.5 -114.5 70.5
s-58.833 67 -79.5 111z" />
    <glyph glyph-name="abreve" unicode="&#x103;" horiz-adv-x="1188" 
d="M793 579l-0.00195312 108.999c0 74 -20.667 126.833 -62 158.5s-99.666 47.5 -174.999 47.5c-37.333 0 -70 -4.5 -98 -13.5s-50.5 -21.333 -67.5 -37s-29.5 -33.5 -37.5 -53.5c-3.33301 -7.33301 -11.333 -35.666 -24 -84.999c-15.333 -60 -46.333 -90 -93 -90
c-26.667 0 -48.167 8.83301 -64.5 26.5s-24.5 41.5 -24.5 71.5c0 44 16.333 87.167 49 129.5s82.5 77.333 149.5 105s146.167 41.5 237.5 41.5c85.333 0 158.333 -13.167 219 -39.5s105.334 -64.166 134.001 -113.499c20 -34 30 -96 30 -186v-385
c0 -54.667 1.66699 -90.334 5 -107.001c7.33301 -28.667 20.166 -50.167 38.499 -64.5s42.166 -21.5 71.499 -21.5c30.667 0 67.334 7.33301 110.001 22v-87c-55.333 -16 -105 -24 -149 -24c-47.333 0 -87.166 6.66699 -119.499 20s-58.833 32.833 -79.5 58.5
s-34 56.167 -40 91.5c-80 -62.667 -152.333 -106.667 -217 -132s-130 -38 -196 -38c-92 0 -166.667 25 -224 75s-86 108.667 -86 176c0 40.667 10.5 79.334 31.5 116.001s53 69 96 97s110.5 52.667 202.5 74s219.667 40.666 383 57.999zM792.998 491.999
c-154.667 -22.667 -250.334 -38.333 -287.001 -47c-72.667 -16.667 -124.667 -35 -156 -55s-53.666 -41.5 -66.999 -64.5s-20 -47.5 -20 -73.5s7.5 -51.167 22.5 -75.5s36.167 -43.5 63.5 -57.5s56.333 -21 87 -21c43.333 0 92.333 10.333 147 31s124.667 61 210 121v242z
M256.998 1370l48 38.001c85.333 -71.333 182.333 -107 291 -107c53.333 0 106.666 10.333 159.999 31s96 46 128 76l46 -38c-30.667 -60.667 -77.167 -110.334 -139.5 -149.001s-129.166 -58 -200.499 -58c-48.667 0 -95 8.5 -139 25.5s-82.167 40.5 -114.5 70.5
s-58.833 67 -79.5 111z" />
    <glyph glyph-name="Aogonek" unicode="&#x104;" horiz-adv-x="1393" 
d="M616 1395h164.998l433 -1166c21.333 -58.667 42.833 -97.5 64.5 -116.5s50.834 -28.5 87.501 -28.5h22v-84h-497v84c16 1.33301 31.667 2 47 2c32 0 53 3.33301 63 10c19.333 12.667 29 28.667 29 48c0 14 -9.33301 48.333 -28 103l-92 270h-506l-108 -302
c-11.333 -31.333 -17 -53 -17 -65c0 -13.333 3.5 -25 10.5 -35s16.5 -17.5 28.5 -22.5s31.333 -7.5 58 -7.5c18 0 32.667 -0.333008 44 -1v-84h-417v84c38.667 0 66.5 3.83301 83.5 11.5s31.833 20 44.5 37s29.334 52.833 50.001 107.5zM440.998 615h431l-216 600zM1174 0
c-25.333 -18.667 -46.998 -42.333 -64.998 -71c-12 -19.333 -18 -39 -18 -59c0 -24 8.33301 -44.167 25 -60.5s36.334 -24.5 59.001 -24.5c20.667 0 44.667 6.33301 72 19s53.666 31.334 78.999 56.001l33 -43c-46.667 -40.667 -84.334 -68 -113.001 -82
c-43.333 -21.333 -83.333 -32 -120 -32c-37.333 0 -68.5 13 -93.5 39s-37.5 57.667 -37.5 95c0 30 11 62 33 96c15.333 23.333 38.666 45.666 69.999 66.999h76z" />
    <glyph glyph-name="aogonek" unicode="&#x105;" horiz-adv-x="1188" 
d="M793 579l-0.00195312 108.999c0 74 -20.667 126.833 -62 158.5s-99.666 47.5 -174.999 47.5c-37.333 0 -70 -4.5 -98 -13.5s-50.5 -21.333 -67.5 -37s-29.5 -33.5 -37.5 -53.5c-3.33301 -7.33301 -11.333 -35.666 -24 -84.999c-15.333 -60 -46.333 -90 -93 -90
c-26.667 0 -48.167 8.83301 -64.5 26.5s-24.5 41.5 -24.5 71.5c0 44 16.333 87.167 49 129.5s82.5 77.333 149.5 105s146.167 41.5 237.5 41.5c85.333 0 158.333 -13.167 219 -39.5s105.334 -64.166 134.001 -113.499c20 -34 30 -96 30 -186v-385
c0 -54.667 1.66699 -90.334 5 -107.001c7.33301 -28.667 20.166 -50.167 38.499 -64.5s42.166 -21.5 71.499 -21.5c30.667 0 67.334 7.33301 110.001 22v-87c-55.333 -16 -105 -24 -149 -24c-47.333 0 -87.166 6.66699 -119.499 20s-58.833 32.833 -79.5 58.5
s-34 56.167 -40 91.5c-80 -62.667 -152.333 -106.667 -217 -132s-130 -38 -196 -38c-92 0 -166.667 25 -224 75s-86 108.667 -86 176c0 40.667 10.5 79.334 31.5 116.001s53 69 96 97s110.5 52.667 202.5 74s219.667 40.666 383 57.999zM792.998 491.999
c-154.667 -22.667 -250.334 -38.333 -287.001 -47c-72.667 -16.667 -124.667 -35 -156 -55s-53.666 -41.5 -66.999 -64.5s-20 -47.5 -20 -73.5s7.5 -51.167 22.5 -75.5s36.167 -43.5 63.5 -57.5s56.333 -21 87 -21c43.333 0 92.333 10.333 147 31s124.667 61 210 121v242z
M1027 0c-25.333 -18.667 -46.998 -42.333 -64.998 -71c-12 -19.333 -18 -39 -18 -59c0 -24 8.33301 -44.167 25 -60.5s36.334 -24.5 59.001 -24.5c20.667 0 44.667 6.33301 72 19s53.666 31.334 78.999 56.001l33 -43c-46.667 -40.667 -84.334 -68 -113.001 -82
c-43.333 -21.333 -83.333 -32 -120 -32c-37.333 0 -68.5 13 -93.5 39s-37.5 57.667 -37.5 95c0 30 11 62 33 96c15.333 23.333 38.666 45.666 69.999 66.999h76z" />
    <glyph glyph-name="Cacute" unicode="&#x106;" horiz-adv-x="1515" 
d="M1208 1395l72.001 -0.000976562l127 -465l-93 -26c-50 107.333 -88 179.333 -114 216c-42.667 59.333 -95.834 106.333 -159.501 141s-133.834 52 -210.501 52c-90 0 -172.833 -24.167 -248.5 -72.5s-137 -119.166 -184 -212.499s-70.5 -198.333 -70.5 -315
c0 -120 23.833 -227 71.5 -321s112.167 -166.333 193.5 -217s169 -76 263 -76c88.667 0 179.334 25.333 272.001 76s173 121.667 241 213l80 -55c-41.333 -61.333 -86 -113.333 -134 -156c-76 -68.667 -155 -119.334 -237 -152.001s-172 -49 -270 -49
c-216.667 0 -392.667 80.333 -528 241c-112 133.333 -168 292 -168 476c0 135.333 31 257.833 93 367.5s147.5 196.834 256.5 261.501s226.5 97 352.5 97c67.333 0 129.833 -9.16699 187.5 -27.5s116.167 -47.833 175.5 -88.5zM671.001 1494l0.000976562 34.999l185 136
c63.333 46.667 116.333 70 159 70c20 0 36.833 -7.16699 50.5 -21.5s20.5 -32.166 20.5 -53.499c0 -26 -9.33301 -47.5 -28 -64.5s-52.334 -30.833 -101.001 -41.5z" />
    <glyph glyph-name="cacute" unicode="&#x107;" horiz-adv-x="1065" 
d="M958 279l63.9932 -52.001c-125.333 -167.333 -275.666 -251 -450.999 -251c-136.667 0 -252 48.667 -346 146s-141 218.333 -141 363c0 96.667 21.833 183.5 65.5 260.5s104.334 136.833 182.001 179.5s166.834 64 267.501 64c114.667 0 210.334 -28.167 287.001 -84.5
s115 -113.166 115 -170.499c0 -30.667 -9 -54.334 -27 -71.001s-38.333 -25 -61 -25c-12 0 -23.667 3 -35 9s-23 15.667 -35 29c-5.33301 6 -15 24.667 -29 56c-18 38.667 -32 64.667 -42 78c-20.667 26.667 -46.167 47.667 -76.5 63s-64.166 23 -101.499 23
c-56.667 0 -109.167 -15.667 -157.5 -47s-86.666 -77.5 -114.999 -138.5s-42.5 -133.833 -42.5 -218.5c0 -131.333 35 -235.666 105 -312.999c60.667 -66.667 133 -100 217 -100c38.667 0 77.834 6.5 117.501 19.5s77.167 32.167 112.5 57.5c26 18 68.333 59 127 123z
M456.993 1170l0.000976562 34.999l185 136c63.333 46.667 116.333 70 159 70c20 0 36.833 -7.16699 50.5 -21.5s20.5 -32.166 20.5 -53.499c0 -26 -9.33301 -47.5 -28 -64.5s-52.334 -30.833 -101.001 -41.5z" />
    <glyph glyph-name="Ccircumflex" unicode="&#x108;" horiz-adv-x="1515" 
d="M1208 1395l72.001 -0.000976562l127 -465l-93 -26c-50 107.333 -88 179.333 -114 216c-42.667 59.333 -95.834 106.333 -159.501 141s-133.834 52 -210.501 52c-90 0 -172.833 -24.167 -248.5 -72.5s-137 -119.166 -184 -212.499s-70.5 -198.333 -70.5 -315
c0 -120 23.833 -227 71.5 -321s112.167 -166.333 193.5 -217s169 -76 263 -76c88.667 0 179.334 25.333 272.001 76s173 121.667 241 213l80 -55c-41.333 -61.333 -86 -113.333 -134 -156c-76 -68.667 -155 -119.334 -237 -152.001s-172 -49 -270 -49
c-216.667 0 -392.667 80.333 -528 241c-112 133.333 -168 292 -168 476c0 135.333 31 257.833 93 367.5s147.5 196.834 256.5 261.501s226.5 97 352.5 97c67.333 0 129.833 -9.16699 187.5 -27.5s116.167 -47.833 175.5 -88.5zM804.001 1736l291 -191l-27 -51l-264 93
l-263 -93l-27 51z" />
    <glyph glyph-name="ccircumflex" unicode="&#x109;" horiz-adv-x="1065" 
d="M958 279l63.9932 -52.001c-125.333 -167.333 -275.666 -251 -450.999 -251c-136.667 0 -252 48.667 -346 146s-141 218.333 -141 363c0 96.667 21.833 183.5 65.5 260.5s104.334 136.833 182.001 179.5s166.834 64 267.501 64c114.667 0 210.334 -28.167 287.001 -84.5
s115 -113.166 115 -170.499c0 -30.667 -9 -54.334 -27 -71.001s-38.333 -25 -61 -25c-12 0 -23.667 3 -35 9s-23 15.667 -35 29c-5.33301 6 -15 24.667 -29 56c-18 38.667 -32 64.667 -42 78c-20.667 26.667 -46.167 47.667 -76.5 63s-64.166 23 -101.499 23
c-56.667 0 -109.167 -15.667 -157.5 -47s-86.666 -77.5 -114.999 -138.5s-42.5 -133.833 -42.5 -218.5c0 -131.333 35 -235.666 105 -312.999c60.667 -66.667 133 -100 217 -100c38.667 0 77.834 6.5 117.501 19.5s77.167 32.167 112.5 57.5c26 18 68.333 59 127 123z
M576.993 1404l291 -191l-27 -51l-264 93l-263 -93l-27 51z" />
    <glyph glyph-name="Cdot" unicode="&#x10a;" horiz-adv-x="1515" 
d="M1208 1395l72.001 -0.000976562l127 -465l-93 -26c-50 107.333 -88 179.333 -114 216c-42.667 59.333 -95.834 106.333 -159.501 141s-133.834 52 -210.501 52c-90 0 -172.833 -24.167 -248.5 -72.5s-137 -119.166 -184 -212.499s-70.5 -198.333 -70.5 -315
c0 -120 23.833 -227 71.5 -321s112.167 -166.333 193.5 -217s169 -76 263 -76c88.667 0 179.334 25.333 272.001 76s173 121.667 241 213l80 -55c-41.333 -61.333 -86 -113.333 -134 -156c-76 -68.667 -155 -119.334 -237 -152.001s-172 -49 -270 -49
c-216.667 0 -392.667 80.333 -528 241c-112 133.333 -168 292 -168 476c0 135.333 31 257.833 93 367.5s147.5 196.834 256.5 261.501s226.5 97 352.5 97c67.333 0 129.833 -9.16699 187.5 -27.5s116.167 -47.833 175.5 -88.5zM830.001 1707c34 0 63 -11.833 87 -35.5
s36 -52.167 36 -85.5c0 -34 -12 -62.833 -36 -86.5s-53 -35.5 -87 -35.5s-63 11.833 -87 35.5s-36 52.5 -36 86.5c0 33.333 12 61.833 36 85.5s53 35.5 87 35.5z" />
    <glyph glyph-name="cdot" unicode="&#x10b;" horiz-adv-x="1065" 
d="M958 279l63.9932 -52.001c-125.333 -167.333 -275.666 -251 -450.999 -251c-136.667 0 -252 48.667 -346 146s-141 218.333 -141 363c0 96.667 21.833 183.5 65.5 260.5s104.334 136.833 182.001 179.5s166.834 64 267.501 64c114.667 0 210.334 -28.167 287.001 -84.5
s115 -113.166 115 -170.499c0 -30.667 -9 -54.334 -27 -71.001s-38.333 -25 -61 -25c-12 0 -23.667 3 -35 9s-23 15.667 -35 29c-5.33301 6 -15 24.667 -29 56c-18 38.667 -32 64.667 -42 78c-20.667 26.667 -46.167 47.667 -76.5 63s-64.166 23 -101.499 23
c-56.667 0 -109.167 -15.667 -157.5 -47s-86.666 -77.5 -114.999 -138.5s-42.5 -133.833 -42.5 -218.5c0 -131.333 35 -235.666 105 -312.999c60.667 -66.667 133 -100 217 -100c38.667 0 77.834 6.5 117.501 19.5s77.167 32.167 112.5 57.5c26 18 68.333 59 127 123z
M577.993 1376c34 0 63 -11.833 87 -35.5s36 -52.167 36 -85.5c0 -34 -12 -62.833 -36 -86.5s-53 -35.5 -87 -35.5s-63 11.833 -87 35.5s-36 52.5 -36 86.5c0 33.333 12 61.833 36 85.5s53 35.5 87 35.5z" />
    <glyph glyph-name="Ccaron" unicode="&#x10c;" horiz-adv-x="1515" 
d="M1208 1395l72.001 -0.000976562l127 -465l-93 -26c-50 107.333 -88 179.333 -114 216c-42.667 59.333 -95.834 106.333 -159.501 141s-133.834 52 -210.501 52c-90 0 -172.833 -24.167 -248.5 -72.5s-137 -119.166 -184 -212.499s-70.5 -198.333 -70.5 -315
c0 -120 23.833 -227 71.5 -321s112.167 -166.333 193.5 -217s169 -76 263 -76c88.667 0 179.334 25.333 272.001 76s173 121.667 241 213l80 -55c-41.333 -61.333 -86 -113.333 -134 -156c-76 -68.667 -155 -119.334 -237 -152.001s-172 -49 -270 -49
c-216.667 0 -392.667 80.333 -528 241c-112 133.333 -168 292 -168 476c0 135.333 31 257.833 93 367.5s147.5 196.834 256.5 261.501s226.5 97 352.5 97c67.333 0 129.833 -9.16699 187.5 -27.5s116.167 -47.833 175.5 -88.5zM837.001 1494l-290 191l27 51l263 -93l264 93
l27 -51z" />
    <glyph glyph-name="ccaron" unicode="&#x10d;" horiz-adv-x="1065" 
d="M958 279l63.9932 -52.001c-125.333 -167.333 -275.666 -251 -450.999 -251c-136.667 0 -252 48.667 -346 146s-141 218.333 -141 363c0 96.667 21.833 183.5 65.5 260.5s104.334 136.833 182.001 179.5s166.834 64 267.501 64c114.667 0 210.334 -28.167 287.001 -84.5
s115 -113.166 115 -170.499c0 -30.667 -9 -54.334 -27 -71.001s-38.333 -25 -61 -25c-12 0 -23.667 3 -35 9s-23 15.667 -35 29c-5.33301 6 -15 24.667 -29 56c-18 38.667 -32 64.667 -42 78c-20.667 26.667 -46.167 47.667 -76.5 63s-64.166 23 -101.499 23
c-56.667 0 -109.167 -15.667 -157.5 -47s-86.666 -77.5 -114.999 -138.5s-42.5 -133.833 -42.5 -218.5c0 -131.333 35 -235.666 105 -312.999c60.667 -66.667 133 -100 217 -100c38.667 0 77.834 6.5 117.501 19.5s77.167 32.167 112.5 57.5c26 18 68.333 59 127 123z
M579.993 1134l-290 191l27 51l263 -93l264 93l27 -51z" />
    <glyph glyph-name="Dcaron" unicode="&#x10e;" horiz-adv-x="1638" 
d="M97 1310l-0.00292969 85h498c228 0 387 -14.333 477 -43c132.667 -42 240.334 -120.333 323.001 -235c91.333 -126.667 137 -272.334 137 -437.001c0 -112 -22.5 -216.167 -67.5 -312.5s-104.167 -173.833 -177.5 -232.5c-60.667 -49.333 -133.667 -84.166 -219 -104.499
s-171.333 -30.5 -258 -30.5h-713v84h58l19 -1c24.667 0 44.834 5 60.501 15s26.834 23.333 33.501 40c4.66699 12.667 7 42 7 88v933c0 52.667 -3.33301 86.667 -10 102c-9.33301 20.667 -24.333 35 -45 43c-12 4 -53 6 -123 6zM460.997 108h302.001
c30 0 79.833 5.33301 149.5 16s119.5 23.667 149.5 39c44 22.667 86.667 59.167 128 109.5s73.166 110.666 95.499 180.999s33.5 150.833 33.5 241.5c0 90 -11.167 168 -33.5 234s-56 125.333 -101 178s-95 92.834 -150 120.501s-116.5 45.167 -184.5 52.5
c-36.667 3.33301 -98 5 -184 5h-205v-1177zM794.998 1466l-290 191l27 51l263 -93l264 93l27 -51z" />
    <glyph glyph-name="dcaron" unicode="&#x10f;" horiz-adv-x="1366" 
d="M697 1298l0.000976562 84.999c45.333 4 86.833 11.833 124.5 23.5s84.834 31.834 141.501 60.501h75v-1213c0 -56 1.33301 -90 4 -102c6.66699 -25.333 18 -43 34 -53s47 -15 93 -15h43v-84l-347 -16v159c-66.667 -60.667 -129.167 -103.667 -187.5 -129
s-116.833 -38 -175.5 -38c-120.667 0 -220.834 48.5 -300.501 145.5s-119.5 213.833 -119.5 350.5c0 97.333 21.167 186.5 63.5 267.5s98.166 142.833 167.499 185.5s145.333 64 228 64c63.333 0 122 -11 176 -33s103.333 -55 148 -99v441h-168zM865.001 241.999
l-0.000976562 378.002c0 54 -10.167 98.167 -30.5 132.5s-53.666 64.166 -99.999 89.499s-93.833 38 -142.5 38c-58 0 -111.5 -15.833 -160.5 -47.5s-87.333 -77.334 -115 -137.001s-41.5 -131.834 -41.5 -216.501c0 -80 12.833 -149.167 38.5 -207.5
s60.167 -102.666 103.5 -132.999s87.666 -45.5 132.999 -45.5c44.667 0 95.334 12.833 152.001 38.5s111 62.5 163 110.5zM1131 927.001l-49.001 60c123.333 100 185 181.667 185 245c0 8 -1.33301 19.333 -4 34c-19.333 -8.66699 -37 -13 -53 -13
c-30.667 0 -54.667 9.5 -72 28.5s-26 42.5 -26 70.5c0 25.333 9.83301 49.166 29.5 71.499s45.834 33.5 78.501 33.5c40.667 0 75.667 -16.333 105 -49s44 -74.667 44 -126c0 -45.333 -12.5 -93.666 -37.5 -144.999s-91.833 -121.333 -200.5 -210z" />
    <glyph glyph-name="Dslash" unicode="&#x110;" horiz-adv-x="1638" 
d="M275 649h-178.003v97h178v413c0 52.667 -3.33301 86.667 -10 102c-9.33301 20.667 -24.333 35 -45 43c-12 4 -53 6 -123 6v85h498c228 0 387 -14.333 477 -43c132.667 -42 240.334 -120.333 323.001 -235c91.333 -126.667 137 -272.334 137 -437.001
c0 -112 -22.5 -216.167 -67.5 -312.5s-104.167 -173.833 -177.5 -232.5c-60.667 -49.333 -133.667 -84.166 -219 -104.499s-171.333 -30.5 -258 -30.5h-713v84h58l19 -1c24.667 0 44.834 5 60.501 15s26.834 23.333 33.501 40c4.66699 12.667 7 42 7 88v423zM460.997 649
l0.000976562 -541h302c30 0 79.833 5.33301 149.5 16s119.5 23.667 149.5 39c44 22.667 86.667 59.167 128 109.5s73.166 110.666 95.499 180.999s33.5 150.833 33.5 241.5c0 90 -11.167 168 -33.5 234s-56 125.333 -101 178s-95 92.834 -150 120.501
s-116.5 45.167 -184.5 52.5c-36.667 3.33301 -98 5 -184 5h-205v-539h429v-97h-429z" />
    <glyph glyph-name="dmacron" unicode="&#x111;" horiz-adv-x="1270" 
d="M1038 1185l174.001 -0.000976562v-82h-174v-849c0 -56 1.33301 -90 4 -102c6.66699 -25.333 18 -43 34 -53s47 -15 93 -15h43v-84l-347 -16v159c-66.667 -60.667 -129.167 -103.667 -187.5 -129s-116.833 -38 -175.5 -38c-120.667 0 -220.834 48.5 -300.501 145.5
s-119.5 213.833 -119.5 350.5c0 97.333 21.167 186.5 63.5 267.5s98.166 142.833 167.499 185.5s145.333 64 228 64c63.333 0 122 -11 176 -33s103.333 -55 148 -99v246l-391 -1v83h391v113h-168v85c45.333 4 86.833 11.833 124.5 23.5s84.834 31.834 141.501 60.501h75
v-282zM865.001 241.999l-0.000976562 378.002c0 54 -10.167 98.167 -30.5 132.5s-53.666 64.166 -99.999 89.499s-93.833 38 -142.5 38c-58 0 -111.5 -15.833 -160.5 -47.5s-87.333 -77.334 -115 -137.001s-41.5 -131.834 -41.5 -216.501c0 -80 12.833 -149.167 38.5 -207.5
s60.167 -102.666 103.5 -132.999s87.666 -45.5 132.999 -45.5c44.667 0 95.334 12.833 152.001 38.5s111 62.5 163 110.5z" />
    <glyph glyph-name="Emacron" unicode="&#x112;" horiz-adv-x="1475" 
d="M98 1395l1134 -0.00195312l131 -367l-88 -33c-22 60 -46 107.167 -72 141.5s-57.167 63.5 -93.5 87.5s-73 40 -110 48s-103.833 12 -200.5 12h-338v-511h168c62 0 108.833 10.5 140.5 31.5s53.5 47.167 65.5 78.5c9.33301 23.333 14 64 14 122v23h98v-612h-98v53
c0 46.667 -3.5 80.334 -10.5 101.001s-19.833 40.167 -38.5 58.5s-38.834 30.833 -60.501 37.5s-58.5 10 -110.5 10h-168v-454c0 -47.333 2.16699 -76.166 6.5 -86.499s11.5 -17.833 21.5 -22.5s37.333 -7 82 -7h209c116.667 0 207.834 14 273.501 42s123.5 71 173.5 129
c39.333 45.333 77 109.333 113 192l91 -32l-156 -437h-1177v84h40c46.667 0 75.667 3 87 9c17.333 8.66699 30.666 22.667 39.999 42c6.66699 13.333 10 42.333 10 87v960c0 43.333 -4.33301 72.333 -13 87s-23.667 26 -45 34c-11.333 4.66699 -51 7 -119 7v85zM1067 1637
v-103h-606v103h606z" />
    <glyph glyph-name="emacron" unicode="&#x113;" horiz-adv-x="1065" 
d="M930 258l64.0039 -52c-48.667 -58 -95.834 -104 -141.501 -138s-88.834 -57.833 -129.501 -71.5s-88.334 -20.5 -143.001 -20.5c-98 0 -181.333 20 -250 60c-78.667 46 -139 106 -181 180s-63 161.333 -63 262c0 105.333 20.333 195.333 61 270s97.5 133.5 170.5 176.5
s157.5 64.5 253.5 64.5c71.333 0 133.333 -11.167 186 -33.5s97.334 -56 134.001 -101s63.334 -96.5 80.001 -154.5c9.33301 -34 14.666 -78 15.999 -132h-707c-2 -32.667 -3 -57 -3 -73c0 -84 14.667 -158.833 44 -224.5s68.166 -114 116.499 -145
s103.166 -46.5 164.499 -46.5c52 0 102.333 12.167 151 36.5s107.667 71.833 177 142.5zM802.004 662c-10 61.333 -24.167 106.669 -42.5 136.002s-44.333 52.666 -78 69.999s-71.5 26 -113.5 26s-81.333 -8.66699 -118 -26s-67.167 -41.333 -91.5 -72
s-45.5 -75.334 -63.5 -134.001h507zM855.004 1305v-103h-606v103h606z" />
    <glyph glyph-name="Ebreve" unicode="&#x114;" horiz-adv-x="1475" 
d="M98 1395l1134 -0.00195312l131 -367l-88 -33c-22 60 -46 107.167 -72 141.5s-57.167 63.5 -93.5 87.5s-73 40 -110 48s-103.833 12 -200.5 12h-338v-511h168c62 0 108.833 10.5 140.5 31.5s53.5 47.167 65.5 78.5c9.33301 23.333 14 64 14 122v23h98v-612h-98v53
c0 46.667 -3.5 80.334 -10.5 101.001s-19.833 40.167 -38.5 58.5s-38.834 30.833 -60.501 37.5s-58.5 10 -110.5 10h-168v-454c0 -47.333 2.16699 -76.166 6.5 -86.499s11.5 -17.833 21.5 -22.5s37.333 -7 82 -7h209c116.667 0 207.834 14 273.501 42s123.5 71 173.5 129
c39.333 45.333 77 109.333 113 192l91 -32l-156 -437h-1177v84h40c46.667 0 75.667 3 87 9c17.333 8.66699 30.666 22.667 39.999 42c6.66699 13.333 10 42.333 10 87v960c0 43.333 -4.33301 72.333 -13 87s-23.667 26 -45 34c-11.333 4.66699 -51 7 -119 7v85z
M428.001 1702l48 38.001c85.333 -71.333 182.333 -107 291 -107c53.333 0 106.666 10.333 159.999 31s96 46 128 76l46 -38c-30.667 -60.667 -77.167 -110.334 -139.5 -149.001s-129.166 -58 -200.499 -58c-48.667 0 -95 8.5 -139 25.5s-82.167 40.5 -114.5 70.5
s-58.833 67 -79.5 111z" />
    <glyph glyph-name="ebreve" unicode="&#x115;" horiz-adv-x="1065" 
d="M930 258l64.0039 -52c-48.667 -58 -95.834 -104 -141.501 -138s-88.834 -57.833 -129.501 -71.5s-88.334 -20.5 -143.001 -20.5c-98 0 -181.333 20 -250 60c-78.667 46 -139 106 -181 180s-63 161.333 -63 262c0 105.333 20.333 195.333 61 270s97.5 133.5 170.5 176.5
s157.5 64.5 253.5 64.5c71.333 0 133.333 -11.167 186 -33.5s97.334 -56 134.001 -101s63.334 -96.5 80.001 -154.5c9.33301 -34 14.666 -78 15.999 -132h-707c-2 -32.667 -3 -57 -3 -73c0 -84 14.667 -158.833 44 -224.5s68.166 -114 116.499 -145
s103.166 -46.5 164.499 -46.5c52 0 102.333 12.167 151 36.5s107.667 71.833 177 142.5zM802.004 662c-10 61.333 -24.167 106.669 -42.5 136.002s-44.333 52.666 -78 69.999s-71.5 26 -113.5 26s-81.333 -8.66699 -118 -26s-67.167 -41.333 -91.5 -72
s-45.5 -75.334 -63.5 -134.001h507zM204.004 1370l48 38.001c85.333 -71.333 182.333 -107 291 -107c53.333 0 106.666 10.333 159.999 31s96 46 128 76l46 -38c-30.667 -60.667 -77.167 -110.334 -139.5 -149.001s-129.166 -58 -200.499 -58c-48.667 0 -95 8.5 -139 25.5
s-82.167 40.5 -114.5 70.5s-58.833 67 -79.5 111z" />
    <glyph glyph-name="Edot" unicode="&#x116;" horiz-adv-x="1475" 
d="M98 1395l1134 -0.00195312l131 -367l-88 -33c-22 60 -46 107.167 -72 141.5s-57.167 63.5 -93.5 87.5s-73 40 -110 48s-103.833 12 -200.5 12h-338v-511h168c62 0 108.833 10.5 140.5 31.5s53.5 47.167 65.5 78.5c9.33301 23.333 14 64 14 122v23h98v-612h-98v53
c0 46.667 -3.5 80.334 -10.5 101.001s-19.833 40.167 -38.5 58.5s-38.834 30.833 -60.501 37.5s-58.5 10 -110.5 10h-168v-454c0 -47.333 2.16699 -76.166 6.5 -86.499s11.5 -17.833 21.5 -22.5s37.333 -7 82 -7h209c116.667 0 207.834 14 273.501 42s123.5 71 173.5 129
c39.333 45.333 77 109.333 113 192l91 -32l-156 -437h-1177v84h40c46.667 0 75.667 3 87 9c17.333 8.66699 30.666 22.667 39.999 42c6.66699 13.333 10 42.333 10 87v960c0 43.333 -4.33301 72.333 -13 87s-23.667 26 -45 34c-11.333 4.66699 -51 7 -119 7v85z
M765.001 1707c34 0 63 -11.833 87 -35.5s36 -52.167 36 -85.5c0 -34 -12 -62.833 -36 -86.5s-53 -35.5 -87 -35.5s-63 11.833 -87 35.5s-36 52.5 -36 86.5c0 33.333 12 61.833 36 85.5s53 35.5 87 35.5z" />
    <glyph glyph-name="edot" unicode="&#x117;" horiz-adv-x="1065" 
d="M930 258l64.0039 -52c-48.667 -58 -95.834 -104 -141.501 -138s-88.834 -57.833 -129.501 -71.5s-88.334 -20.5 -143.001 -20.5c-98 0 -181.333 20 -250 60c-78.667 46 -139 106 -181 180s-63 161.333 -63 262c0 105.333 20.333 195.333 61 270s97.5 133.5 170.5 176.5
s157.5 64.5 253.5 64.5c71.333 0 133.333 -11.167 186 -33.5s97.334 -56 134.001 -101s63.334 -96.5 80.001 -154.5c9.33301 -34 14.666 -78 15.999 -132h-707c-2 -32.667 -3 -57 -3 -73c0 -84 14.667 -158.833 44 -224.5s68.166 -114 116.499 -145
s103.166 -46.5 164.499 -46.5c52 0 102.333 12.167 151 36.5s107.667 71.833 177 142.5zM802.004 662c-10 61.333 -24.167 106.669 -42.5 136.002s-44.333 52.666 -78 69.999s-71.5 26 -113.5 26s-81.333 -8.66699 -118 -26s-67.167 -41.333 -91.5 -72
s-45.5 -75.334 -63.5 -134.001h507zM553.004 1376c34 0 63 -11.833 87 -35.5s36 -52.167 36 -85.5c0 -34 -12 -62.833 -36 -86.5s-53 -35.5 -87 -35.5s-63 11.833 -87 35.5s-36 52.5 -36 86.5c0 33.333 12 61.833 36 85.5s53 35.5 87 35.5z" />
    <glyph glyph-name="Eogonek" unicode="&#x118;" horiz-adv-x="1475" 
d="M98 1395l1134 -0.00195312l131 -367l-88 -33c-22 60 -46 107.167 -72 141.5s-57.167 63.5 -93.5 87.5s-73 40 -110 48s-103.833 12 -200.5 12h-338v-511h168c62 0 108.833 10.5 140.5 31.5s53.5 47.167 65.5 78.5c9.33301 23.333 14 64 14 122v23h98v-612h-98v53
c0 46.667 -3.5 80.334 -10.5 101.001s-19.833 40.167 -38.5 58.5s-38.834 30.833 -60.501 37.5s-58.5 10 -110.5 10h-168v-454c0 -47.333 2.16699 -76.166 6.5 -86.499s11.5 -17.833 21.5 -22.5s37.333 -7 82 -7h209c116.667 0 207.834 14 273.501 42s123.5 71 173.5 129
c39.333 45.333 77 109.333 113 192l91 -32l-156 -437h-1177v84h40c46.667 0 75.667 3 87 9c17.333 8.66699 30.666 22.667 39.999 42c6.66699 13.333 10 42.333 10 87v960c0 43.333 -4.33301 72.333 -13 87s-23.667 26 -45 34c-11.333 4.66699 -51 7 -119 7v85z
M1124 -0.00195312c-25.333 -18.667 -46.998 -42.333 -64.998 -71c-12 -19.333 -18 -39 -18 -59c0 -24 8.33301 -44.167 25 -60.5s36.334 -24.5 59.001 -24.5c20.667 0 44.667 6.33301 72 19s53.666 31.334 78.999 56.001l33 -43c-46.667 -40.667 -84.334 -68 -113.001 -82
c-43.333 -21.333 -83.333 -32 -120 -32c-37.333 0 -68.5 13 -93.5 39s-37.5 57.667 -37.5 95c0 30 11 62 33 96c15.333 23.333 38.666 45.666 69.999 66.999h76z" />
    <glyph glyph-name="eogonek" unicode="&#x119;" horiz-adv-x="1065" 
d="M930 258l64.0039 -52c-48.667 -58 -95.834 -104 -141.501 -138s-88.834 -57.833 -129.501 -71.5s-88.334 -20.5 -143.001 -20.5c-98 0 -181.333 20 -250 60c-78.667 46 -139 106 -181 180s-63 161.333 -63 262c0 105.333 20.333 195.333 61 270s97.5 133.5 170.5 176.5
s157.5 64.5 253.5 64.5c71.333 0 133.333 -11.167 186 -33.5s97.334 -56 134.001 -101s63.334 -96.5 80.001 -154.5c9.33301 -34 14.666 -78 15.999 -132h-707c-2 -32.667 -3 -57 -3 -73c0 -84 14.667 -158.833 44 -224.5s68.166 -114 116.499 -145
s103.166 -46.5 164.499 -46.5c52 0 102.333 12.167 151 36.5s107.667 71.833 177 142.5zM802.004 662c-10 61.333 -24.167 106.669 -42.5 136.002s-44.333 52.666 -78 69.999s-71.5 26 -113.5 26s-81.333 -8.66699 -118 -26s-67.167 -41.333 -91.5 -72
s-45.5 -75.334 -63.5 -134.001h507zM599.004 0.00292969c-25.333 -18.667 -46.998 -42.333 -64.998 -71c-12 -19.333 -18 -39 -18 -59c0 -24 8.33301 -44.167 25 -60.5s36.334 -24.5 59.001 -24.5c20.667 0 44.667 6.33301 72 19s53.666 31.334 78.999 56.001l33 -43
c-46.667 -40.667 -84.334 -68 -113.001 -82c-43.333 -21.333 -83.333 -32 -120 -32c-37.333 0 -68.5 13 -93.5 39s-37.5 57.667 -37.5 95c0 30 11 62 33 96c15.333 23.333 38.666 45.666 69.999 66.999h76z" />
    <glyph glyph-name="Ecaron" unicode="&#x11a;" horiz-adv-x="1475" 
d="M98 1395l1134 -0.00195312l131 -367l-88 -33c-22 60 -46 107.167 -72 141.5s-57.167 63.5 -93.5 87.5s-73 40 -110 48s-103.833 12 -200.5 12h-338v-511h168c62 0 108.833 10.5 140.5 31.5s53.5 47.167 65.5 78.5c9.33301 23.333 14 64 14 122v23h98v-612h-98v53
c0 46.667 -3.5 80.334 -10.5 101.001s-19.833 40.167 -38.5 58.5s-38.834 30.833 -60.501 37.5s-58.5 10 -110.5 10h-168v-454c0 -47.333 2.16699 -76.166 6.5 -86.499s11.5 -17.833 21.5 -22.5s37.333 -7 82 -7h209c116.667 0 207.834 14 273.501 42s123.5 71 173.5 129
c39.333 45.333 77 109.333 113 192l91 -32l-156 -437h-1177v84h40c46.667 0 75.667 3 87 9c17.333 8.66699 30.666 22.667 39.999 42c6.66699 13.333 10 42.333 10 87v960c0 43.333 -4.33301 72.333 -13 87s-23.667 26 -45 34c-11.333 4.66699 -51 7 -119 7v85z
M736.001 1466l-290 191l27 51l263 -93l264 93l27 -51z" />
    <glyph glyph-name="ecaron" unicode="&#x11b;" horiz-adv-x="1065" 
d="M930 258l64.0039 -52c-48.667 -58 -95.834 -104 -141.501 -138s-88.834 -57.833 -129.501 -71.5s-88.334 -20.5 -143.001 -20.5c-98 0 -181.333 20 -250 60c-78.667 46 -139 106 -181 180s-63 161.333 -63 262c0 105.333 20.333 195.333 61 270s97.5 133.5 170.5 176.5
s157.5 64.5 253.5 64.5c71.333 0 133.333 -11.167 186 -33.5s97.334 -56 134.001 -101s63.334 -96.5 80.001 -154.5c9.33301 -34 14.666 -78 15.999 -132h-707c-2 -32.667 -3 -57 -3 -73c0 -84 14.667 -158.833 44 -224.5s68.166 -114 116.499 -145
s103.166 -46.5 164.499 -46.5c52 0 102.333 12.167 151 36.5s107.667 71.833 177 142.5zM802.004 662c-10 61.333 -24.167 106.669 -42.5 136.002s-44.333 52.666 -78 69.999s-71.5 26 -113.5 26s-81.333 -8.66699 -118 -26s-67.167 -41.333 -91.5 -72
s-45.5 -75.334 -63.5 -134.001h507zM557.004 1134l-290 191l27 51l263 -93l264 93l27 -51z" />
    <glyph glyph-name="Gcircumflex" unicode="&#x11c;" horiz-adv-x="1638" 
d="M1197 1395l72.999 0.000976562l114 -430l-90 -31c-60 136 -129 233 -207 291s-166.333 87 -265 87c-142 0 -261 -59 -357 -177s-144 -258.667 -144 -422c0 -117.333 24.5 -225 73.5 -323s114.5 -172.667 196.5 -224s169 -77 261 -77c59.333 0 115.833 10.833 169.5 32.5
s97.167 47.5 130.5 77.5c24.667 22.667 41.334 47.667 50.001 75s12.667 65.333 12 114v66c0 52.667 -6.16699 90 -18.5 112s-29.833 37.667 -52.5 47c-17.333 7.33301 -64 11 -140 11v84h566v-84h-46c-39.333 0 -66.166 -3.83301 -80.499 -11.5s-24.833 -19.5 -31.5 -35.5
s-10 -47.333 -10 -94v-483h-99l-53 122c-56 -40.667 -115.667 -72.334 -179 -95.001c-94.667 -34 -188.334 -51 -281.001 -51c-187.333 0 -347.833 68.833 -481.5 206.5s-200.5 309.167 -200.5 514.5c0 204 67.667 375.333 203 514s297.333 208 486 208
c47.333 0 94 -4.66699 140 -14s88 -22.666 126 -39.999c28.667 -12.667 62 -33.334 100 -62.001zM812.999 1736l291 -191l-27 -51l-264 93l-263 -93l-27 51z" />
    <glyph glyph-name="gcircumflex" unicode="&#x11d;" horiz-adv-x="1106" 
d="M847 886c30 35.333 60.5039 61.332 91.5039 77.999s59.5 25 85.5 25c24 0 44.167 -7.16699 60.5 -21.5s24.5 -31.833 24.5 -52.5c0 -21.333 -7.33301 -39.333 -22 -54s-33.334 -22 -56.001 -22c-9.33301 0 -22 1.66699 -38 5c-18.667 4.66699 -34.334 7 -47.001 7
c-16.667 0 -34 -7.66699 -52 -23c41.333 -50 62 -108.667 62 -176c0 -92 -38.667 -171.667 -116 -239s-175 -101 -293 -101c-65.333 0 -131 13.667 -197 41c-44 -31.333 -69 -50.666 -75 -57.999c-9.33301 -11.333 -14 -23.333 -14 -36c0 -19.333 10 -35.333 30 -48
c25.333 -16.667 75.333 -30.667 150 -42l289 -43c64 -10 128.333 -26.667 193 -50s111.5 -53.666 140.5 -90.999s43.5 -82 43.5 -134c0 -88 -40.667 -158.333 -122 -211c-103.333 -67.333 -256.666 -101 -459.999 -101c-106.667 0 -193.334 11.333 -260.001 34
s-118.334 54.667 -155.001 96c-26.667 30 -40 61 -40 93c0 41.333 13.5 81.666 40.5 120.999s89.5 95.333 187.5 168c-63.333 16 -108.666 34.667 -135.999 56c-34.667 27.333 -52 58.333 -52 93c0 17.333 3.16699 33.5 9.5 48.5s16.666 30 30.999 45s40.5 35.833 78.5 62.5
c24 16.667 41 29 51 37c-48.667 34.667 -85.334 73.5 -110.001 116.5s-37 90.167 -37 141.5c0 84.667 32.667 158.667 98 222c79.333 77.333 186.333 116 321 116c60 0 112.333 -7.5 157 -22.5s90.667 -41.833 138 -80.5zM543.004 895.999
c-65.333 0 -120.666 -23.665 -165.999 -70.998s-68 -106 -68 -176c0 -46.667 10.333 -88.834 31 -126.501s49.667 -67.334 87 -89.001s76.666 -32.5 117.999 -32.5s80.833 11 118.5 33s66.667 51.667 87 89s30.5 79.333 30.5 126c0 73.333 -22.167 132.833 -66.5 178.5
s-101.5 68.5 -171.5 68.5zM384.004 28.001c-64 -54.667 -106.501 -99 -127.501 -133s-31.5 -66.667 -31.5 -98c0 -26.667 10.5 -52.5 31.5 -77.5s56.833 -45.5 107.5 -61.5s114.334 -24 191.001 -24c90.667 0 168.5 9.83301 233.5 29.5s111.5 44.834 139.5 75.501
c20.667 24 31 52.333 31 85c0 28 -8.5 51.667 -25.5 71s-49 36.166 -96 50.499s-90.833 24.833 -131.5 31.5zM576.003 1404l291 -191l-27 -51l-264 93l-263 -93l-27 51z" />
    <glyph glyph-name="Gbreve" unicode="&#x11e;" horiz-adv-x="1638" 
d="M1197 1395l72.999 0.000976562l114 -430l-90 -31c-60 136 -129 233 -207 291s-166.333 87 -265 87c-142 0 -261 -59 -357 -177s-144 -258.667 -144 -422c0 -117.333 24.5 -225 73.5 -323s114.5 -172.667 196.5 -224s169 -77 261 -77c59.333 0 115.833 10.833 169.5 32.5
s97.167 47.5 130.5 77.5c24.667 22.667 41.334 47.667 50.001 75s12.667 65.333 12 114v66c0 52.667 -6.16699 90 -18.5 112s-29.833 37.667 -52.5 47c-17.333 7.33301 -64 11 -140 11v84h566v-84h-46c-39.333 0 -66.166 -3.83301 -80.499 -11.5s-24.833 -19.5 -31.5 -35.5
s-10 -47.333 -10 -94v-483h-99l-53 122c-56 -40.667 -115.667 -72.334 -179 -95.001c-94.667 -34 -188.334 -51 -281.001 -51c-187.333 0 -347.833 68.833 -481.5 206.5s-200.5 309.167 -200.5 514.5c0 204 67.667 375.333 203 514s297.333 208 486 208
c47.333 0 94 -4.66699 140 -14s88 -22.666 126 -39.999c28.667 -12.667 62 -33.334 100 -62.001zM482.999 1701l48 38.001c85.333 -71.333 182.333 -107 291 -107c53.333 0 106.666 10.333 159.999 31s96 46 128 76l46 -38
c-30.667 -60.667 -77.167 -110.334 -139.5 -149.001s-129.166 -58 -200.499 -58c-48.667 0 -95 8.5 -139 25.5s-82.167 40.5 -114.5 70.5s-58.833 67 -79.5 111z" />
    <glyph glyph-name="gbreve" unicode="&#x11f;" horiz-adv-x="1106" 
d="M847 886c30 35.333 60.5039 61.332 91.5039 77.999s59.5 25 85.5 25c24 0 44.167 -7.16699 60.5 -21.5s24.5 -31.833 24.5 -52.5c0 -21.333 -7.33301 -39.333 -22 -54s-33.334 -22 -56.001 -22c-9.33301 0 -22 1.66699 -38 5c-18.667 4.66699 -34.334 7 -47.001 7
c-16.667 0 -34 -7.66699 -52 -23c41.333 -50 62 -108.667 62 -176c0 -92 -38.667 -171.667 -116 -239s-175 -101 -293 -101c-65.333 0 -131 13.667 -197 41c-44 -31.333 -69 -50.666 -75 -57.999c-9.33301 -11.333 -14 -23.333 -14 -36c0 -19.333 10 -35.333 30 -48
c25.333 -16.667 75.333 -30.667 150 -42l289 -43c64 -10 128.333 -26.667 193 -50s111.5 -53.666 140.5 -90.999s43.5 -82 43.5 -134c0 -88 -40.667 -158.333 -122 -211c-103.333 -67.333 -256.666 -101 -459.999 -101c-106.667 0 -193.334 11.333 -260.001 34
s-118.334 54.667 -155.001 96c-26.667 30 -40 61 -40 93c0 41.333 13.5 81.666 40.5 120.999s89.5 95.333 187.5 168c-63.333 16 -108.666 34.667 -135.999 56c-34.667 27.333 -52 58.333 -52 93c0 17.333 3.16699 33.5 9.5 48.5s16.666 30 30.999 45s40.5 35.833 78.5 62.5
c24 16.667 41 29 51 37c-48.667 34.667 -85.334 73.5 -110.001 116.5s-37 90.167 -37 141.5c0 84.667 32.667 158.667 98 222c79.333 77.333 186.333 116 321 116c60 0 112.333 -7.5 157 -22.5s90.667 -41.833 138 -80.5zM543.004 895.999
c-65.333 0 -120.666 -23.665 -165.999 -70.998s-68 -106 -68 -176c0 -46.667 10.333 -88.834 31 -126.501s49.667 -67.334 87 -89.001s76.666 -32.5 117.999 -32.5s80.833 11 118.5 33s66.667 51.667 87 89s30.5 79.333 30.5 126c0 73.333 -22.167 132.833 -66.5 178.5
s-101.5 68.5 -171.5 68.5zM384.004 28.001c-64 -54.667 -106.501 -99 -127.501 -133s-31.5 -66.667 -31.5 -98c0 -26.667 10.5 -52.5 31.5 -77.5s56.833 -45.5 107.5 -61.5s114.334 -24 191.001 -24c90.667 0 168.5 9.83301 233.5 29.5s111.5 44.834 139.5 75.501
c20.667 24 31 52.333 31 85c0 28 -8.5 51.667 -25.5 71s-49 36.166 -96 50.499s-90.833 24.833 -131.5 31.5zM252.003 1370l48 38.001c85.333 -71.333 182.333 -107 291 -107c53.333 0 106.666 10.333 159.999 31s96 46 128 76l46 -38
c-30.667 -60.667 -77.167 -110.334 -139.5 -149.001s-129.166 -58 -200.499 -58c-48.667 0 -95 8.5 -139 25.5s-82.167 40.5 -114.5 70.5s-58.833 67 -79.5 111z" />
    <glyph glyph-name="Gdot" unicode="&#x120;" horiz-adv-x="1638" 
d="M1197 1395l72.999 0.000976562l114 -430l-90 -31c-60 136 -129 233 -207 291s-166.333 87 -265 87c-142 0 -261 -59 -357 -177s-144 -258.667 -144 -422c0 -117.333 24.5 -225 73.5 -323s114.5 -172.667 196.5 -224s169 -77 261 -77c59.333 0 115.833 10.833 169.5 32.5
s97.167 47.5 130.5 77.5c24.667 22.667 41.334 47.667 50.001 75s12.667 65.333 12 114v66c0 52.667 -6.16699 90 -18.5 112s-29.833 37.667 -52.5 47c-17.333 7.33301 -64 11 -140 11v84h566v-84h-46c-39.333 0 -66.166 -3.83301 -80.499 -11.5s-24.833 -19.5 -31.5 -35.5
s-10 -47.333 -10 -94v-483h-99l-53 122c-56 -40.667 -115.667 -72.334 -179 -95.001c-94.667 -34 -188.334 -51 -281.001 -51c-187.333 0 -347.833 68.833 -481.5 206.5s-200.5 309.167 -200.5 514.5c0 204 67.667 375.333 203 514s297.333 208 486 208
c47.333 0 94 -4.66699 140 -14s88 -22.666 126 -39.999c28.667 -12.667 62 -33.334 100 -62.001zM837.999 1707c34 0 63 -11.833 87 -35.5s36 -52.167 36 -85.5c0 -34 -12 -62.833 -36 -86.5s-53 -35.5 -87 -35.5s-63 11.833 -87 35.5s-36 52.5 -36 86.5
c0 33.333 12 61.833 36 85.5s53 35.5 87 35.5z" />
    <glyph glyph-name="gdot" unicode="&#x121;" horiz-adv-x="1106" 
d="M847 886c30 35.333 60.5039 61.332 91.5039 77.999s59.5 25 85.5 25c24 0 44.167 -7.16699 60.5 -21.5s24.5 -31.833 24.5 -52.5c0 -21.333 -7.33301 -39.333 -22 -54s-33.334 -22 -56.001 -22c-9.33301 0 -22 1.66699 -38 5c-18.667 4.66699 -34.334 7 -47.001 7
c-16.667 0 -34 -7.66699 -52 -23c41.333 -50 62 -108.667 62 -176c0 -92 -38.667 -171.667 -116 -239s-175 -101 -293 -101c-65.333 0 -131 13.667 -197 41c-44 -31.333 -69 -50.666 -75 -57.999c-9.33301 -11.333 -14 -23.333 -14 -36c0 -19.333 10 -35.333 30 -48
c25.333 -16.667 75.333 -30.667 150 -42l289 -43c64 -10 128.333 -26.667 193 -50s111.5 -53.666 140.5 -90.999s43.5 -82 43.5 -134c0 -88 -40.667 -158.333 -122 -211c-103.333 -67.333 -256.666 -101 -459.999 -101c-106.667 0 -193.334 11.333 -260.001 34
s-118.334 54.667 -155.001 96c-26.667 30 -40 61 -40 93c0 41.333 13.5 81.666 40.5 120.999s89.5 95.333 187.5 168c-63.333 16 -108.666 34.667 -135.999 56c-34.667 27.333 -52 58.333 -52 93c0 17.333 3.16699 33.5 9.5 48.5s16.666 30 30.999 45s40.5 35.833 78.5 62.5
c24 16.667 41 29 51 37c-48.667 34.667 -85.334 73.5 -110.001 116.5s-37 90.167 -37 141.5c0 84.667 32.667 158.667 98 222c79.333 77.333 186.333 116 321 116c60 0 112.333 -7.5 157 -22.5s90.667 -41.833 138 -80.5zM543.004 895.999
c-65.333 0 -120.666 -23.665 -165.999 -70.998s-68 -106 -68 -176c0 -46.667 10.333 -88.834 31 -126.501s49.667 -67.334 87 -89.001s76.666 -32.5 117.999 -32.5s80.833 11 118.5 33s66.667 51.667 87 89s30.5 79.333 30.5 126c0 73.333 -22.167 132.833 -66.5 178.5
s-101.5 68.5 -171.5 68.5zM384.004 28.001c-64 -54.667 -106.501 -99 -127.501 -133s-31.5 -66.667 -31.5 -98c0 -26.667 10.5 -52.5 31.5 -77.5s56.833 -45.5 107.5 -61.5s114.334 -24 191.001 -24c90.667 0 168.5 9.83301 233.5 29.5s111.5 44.834 139.5 75.501
c20.667 24 31 52.333 31 85c0 28 -8.5 51.667 -25.5 71s-49 36.166 -96 50.499s-90.833 24.833 -131.5 31.5zM590.003 1376c34 0 63 -11.833 87 -35.5s36 -52.167 36 -85.5c0 -34 -12 -62.833 -36 -86.5s-53 -35.5 -87 -35.5s-63 11.833 -87 35.5s-36 52.5 -36 86.5
c0 33.333 12 61.833 36 85.5s53 35.5 87 35.5z" />
    <glyph glyph-name="Gcedilla" unicode="&#x122;" horiz-adv-x="1638" 
d="M1197 1395l72.999 0.000976562l114 -430l-90 -31c-60 136 -129 233 -207 291s-166.333 87 -265 87c-142 0 -261 -59 -357 -177s-144 -258.667 -144 -422c0 -117.333 24.5 -225 73.5 -323s114.5 -172.667 196.5 -224s169 -77 261 -77c59.333 0 115.833 10.833 169.5 32.5
s97.167 47.5 130.5 77.5c24.667 22.667 41.334 47.667 50.001 75s12.667 65.333 12 114v66c0 52.667 -6.16699 90 -18.5 112s-29.833 37.667 -52.5 47c-17.333 7.33301 -64 11 -140 11v84h566v-84h-46c-39.333 0 -66.166 -3.83301 -80.499 -11.5s-24.833 -19.5 -31.5 -35.5
s-10 -47.333 -10 -94v-483h-99l-53 122c-56 -40.667 -115.667 -72.334 -179 -95.001c-94.667 -34 -188.334 -51 -281.001 -51c-187.333 0 -347.833 68.833 -481.5 206.5s-200.5 309.167 -200.5 514.5c0 204 67.667 375.333 203 514s297.333 208 486 208
c47.333 0 94 -4.66699 140 -14s88 -22.666 126 -39.999c28.667 -12.667 62 -33.334 100 -62.001zM808.999 0.000976562l-26 -87c27.333 2 43.666 3 48.999 3c37.333 0 72 -7.33301 104 -22c24 -10.667 42.833 -27.167 56.5 -49.5s20.5 -48.833 20.5 -79.5
c0 -52 -17.167 -94.167 -51.5 -126.5s-80.5 -48.5 -138.5 -48.5s-108 14.333 -150 43c-31.333 20.667 -47 44.667 -47 72c0 14.667 4.83301 27 14.5 37s22.167 15 37.5 15s28 -3.5 38 -10.5s18.667 -20.167 26 -39.5c10 -22.667 18.333 -37 25 -43
c15.333 -12 33.333 -18 54 -18c26.667 0 49.334 10.167 68.001 30.5s28 46.833 28 79.5c0 34 -10 60 -30 78s-51 27 -93 27c-27.333 0 -60 -6.66699 -98 -20l51 159h62z" />
    <glyph glyph-name="gcedilla" unicode="&#x123;" horiz-adv-x="1106" 
d="M847 886c30 35.333 60.5039 61.332 91.5039 77.999s59.5 25 85.5 25c24 0 44.167 -7.16699 60.5 -21.5s24.5 -31.833 24.5 -52.5c0 -21.333 -7.33301 -39.333 -22 -54s-33.334 -22 -56.001 -22c-9.33301 0 -22 1.66699 -38 5c-18.667 4.66699 -34.334 7 -47.001 7
c-16.667 0 -34 -7.66699 -52 -23c41.333 -50 62 -108.667 62 -176c0 -92 -38.667 -171.667 -116 -239s-175 -101 -293 -101c-65.333 0 -131 13.667 -197 41c-44 -31.333 -69 -50.666 -75 -57.999c-9.33301 -11.333 -14 -23.333 -14 -36c0 -19.333 10 -35.333 30 -48
c25.333 -16.667 75.333 -30.667 150 -42l289 -43c64 -10 128.333 -26.667 193 -50s111.5 -53.666 140.5 -90.999s43.5 -82 43.5 -134c0 -88 -40.667 -158.333 -122 -211c-103.333 -67.333 -256.666 -101 -459.999 -101c-106.667 0 -193.334 11.333 -260.001 34
s-118.334 54.667 -155.001 96c-26.667 30 -40 61 -40 93c0 41.333 13.5 81.666 40.5 120.999s89.5 95.333 187.5 168c-63.333 16 -108.666 34.667 -135.999 56c-34.667 27.333 -52 58.333 -52 93c0 17.333 3.16699 33.5 9.5 48.5s16.666 30 30.999 45s40.5 35.833 78.5 62.5
c24 16.667 41 29 51 37c-48.667 34.667 -85.334 73.5 -110.001 116.5s-37 90.167 -37 141.5c0 84.667 32.667 158.667 98 222c79.333 77.333 186.333 116 321 116c60 0 112.333 -7.5 157 -22.5s90.667 -41.833 138 -80.5zM543.004 895.999
c-65.333 0 -120.666 -23.665 -165.999 -70.998s-68 -106 -68 -176c0 -46.667 10.333 -88.834 31 -126.501s49.667 -67.334 87 -89.001s76.666 -32.5 117.999 -32.5s80.833 11 118.5 33s66.667 51.667 87 89s30.5 79.333 30.5 126c0 73.333 -22.167 132.833 -66.5 178.5
s-101.5 68.5 -171.5 68.5zM384.004 28.001c-64 -54.667 -106.501 -99 -127.501 -133s-31.5 -66.667 -31.5 -98c0 -26.667 10.5 -52.5 31.5 -77.5s56.833 -45.5 107.5 -61.5s114.334 -24 191.001 -24c90.667 0 168.5 9.83301 233.5 29.5s111.5 44.834 139.5 75.501
c20.667 24 31 52.333 31 85c0 28 -8.5 51.667 -25.5 71s-49 36.166 -96 50.499s-90.833 24.833 -131.5 31.5zM599.003 1522l40.999 -48c-75.333 -66 -113 -120.667 -113 -164c0 -6 0.666992 -13.667 2 -23c18 7.33301 34.667 11 50 11c30.667 0 52.834 -8.5 66.501 -25.5
s20.5 -35.167 20.5 -54.5c0 -22.667 -9.33301 -42.5 -28 -59.5s-41.667 -25.5 -69 -25.5c-36.667 0 -68 13.333 -94 40s-39 59.667 -39 99c0 88.667 54.333 172 163 250z" />
    <glyph glyph-name="Hcircumflex" unicode="&#x124;" horiz-adv-x="1638" 
d="M97 1395l537.999 -0.00195312v-85h-37c-42.667 0 -73.167 -4 -91.5 -12s-31.166 -22 -38.499 -42c-6 -14.667 -9 -45.667 -9 -93v-389h723v379c0 51.333 -1.66699 82.333 -5 93c-5.33301 21.333 -16.833 37.333 -34.5 48s-44.5 16 -80.5 16h-55v85h534v-85h-48
c-37.333 0 -63.833 -4.16699 -79.5 -12.5s-26.667 -19.666 -33 -33.999s-9.5 -45.166 -9.5 -92.499v-950c0 -52.667 3.33301 -86.167 10 -100.5s20 -24.5 40 -30.5c12 -4 52 -6 120 -6v-84h-534v84h39c49.333 0 82.166 3.33301 98.499 10s26.833 17.334 31.5 32.001
c4 11.333 6 47 6 107v433h-723v-445c0 -52.667 3.5 -86.334 10.5 -101.001s20.5 -24.667 40.5 -30c14.667 -4 56.334 -6 125.001 -6v-84h-538v84h34c52 0 84.5 2.83301 97.5 8.5s23.333 16.5 31 32.5s11.5 44.333 11.5 85v961c0 43.333 -3.5 73.333 -10.5 90s-18 29 -33 37
s-39.833 12 -74.5 12h-56v85zM817.999 1736l291 -191l-27 -51l-264 93l-263 -93l-27 51z" />
    <glyph glyph-name="hcircumflex" unicode="&#x125;" horiz-adv-x="1352" 
d="M74 1297l0.00292969 85.999c64.667 8.66699 115 18.834 151 30.501s73.667 29.5 113 53.5h78v-661c75.333 63.333 146.666 109.666 213.999 138.999s131.666 44 192.999 44c89.333 0 163 -26.667 221 -80c57.333 -53.333 86 -118.333 86 -195v-491
c0 -48.667 3.83301 -80.5 11.5 -95.5s20.5 -26 38.5 -33s58.333 -10.5 121 -10.5v-84h-516v84h38c48.667 0 80.667 3.83301 96 11.5s26.5 20.334 33.5 38.001s10.5 54.167 10.5 109.5v341c0 75.333 -2.66699 124.333 -8 147c-10 38.667 -30.667 69.667 -62 93
s-71.333 35 -120 35c-54.667 0 -111.834 -13.5 -171.501 -40.5s-121.5 -67.5 -185.5 -121.5v-501c0 -37.333 3.33301 -62.333 10 -75s17.667 -22 33 -28s46 -9 92 -9h41v-84h-518v84h31c48.667 0 84 6 106 18c12 6 20.667 17.667 26 35s8 65.333 8 144v1016h-171z
M649.003 1785l291 -191l-27 -51l-264 93l-263 -93l-27 51z" />
    <glyph glyph-name="Hbar" unicode="&#x126;" horiz-adv-x="1638" 
d="M459 1121l723.002 -0.000976562v32c0 51.333 -2.16699 85 -6.5 101s-15.333 29.333 -33 40s-44.5 16 -80.5 16h-55v85h534v-85h-48c-50 0 -82.833 -8.83301 -98.5 -26.5s-23.5 -55.167 -23.5 -112.5v-50h158v-97h-158v-803c0 -63.333 7.16699 -102 21.5 -116
s53.5 -21 117.5 -21h31v-84h-534v84h39c49.333 0 82.166 3.33301 98.499 10s26.666 16.667 30.999 30s6.5 49.666 6.5 108.999v433h-723v-445c0 -62.667 7.16699 -101.167 21.5 -115.5s53.5 -21.5 117.5 -21.5h37v-84h-538v84h34c59.333 0 97.5 6.33301 114.5 19
s25.5 48.334 25.5 107.001v814h-162v97h162v50c0 58 -8 95.667 -24 113s-47.333 26 -94 26h-56v85h538v-85h-37c-58.667 0 -96.5 -9.16699 -113.5 -27.5s-25.5 -58.166 -25.5 -119.499v-42zM459.002 1024v-250h723v250h-723z" />
    <glyph glyph-name="hbar" unicode="&#x127;" horiz-adv-x="1352" 
d="M414 1185h368v-82h-368v-297c144 122 279 183 405 183c66 0 123.167 -13.5 171.5 -40.5s83.666 -60.5 105.999 -100.5s33.5 -101 33.5 -183v-442c0 -58 8.16699 -95.667 24.5 -113s51.5 -26 105.5 -26h41v-84h-519v84h39c61.333 0 100 8.83301 116 26.5
s24 61.834 24 132.501v341c0 71.333 -4.16699 124.166 -12.5 158.499s-28.5 62.333 -60.5 84s-71.333 32.5 -118 32.5c-109.333 0 -228 -54 -356 -162v-461c0 -70 6.33301 -112.833 19 -128.5s51.334 -23.5 116.001 -23.5h40v-84h-515v84h31
c68.667 0 109.167 10.167 121.5 30.5s18.5 75.833 18.5 166.5v822h-171v82h171v113h-171v85c110.667 12.667 198.667 40.667 264 84h76v-282z" />
    <glyph glyph-name="Itilde" unicode="&#x128;" horiz-adv-x="696" 
d="M81 1395l533.998 0.00195312v-85h-41c-38.667 0 -66.667 -5.33301 -84 -16s-30 -25.834 -38 -45.501s-12 -57.834 -12 -114.501v-899c0 -45.333 4.33301 -77.5 13 -96.5s20.834 -32.833 36.501 -41.5s43.834 -13 84.501 -13h41v-84h-534v84h44
c39.333 0 67.166 4.5 83.499 13.5s28.166 22 35.499 39s11 49.833 11 98.5v920c0 51.333 -3.66699 85.833 -11 103.5s-19.166 30.667 -35.499 39s-44.166 12.5 -83.499 12.5h-44v85zM662.998 1657c-11.333 -44 -36.168 -80.668 -74.501 -110.001s-81.166 -44 -128.499 -44
c-15.333 0 -29.333 1.33301 -42 4s-42.667 11.334 -90 26.001c-72.667 22.667 -124.334 34 -155.001 34c-29.333 0 -56.333 -13.667 -81 -41l-59 20c12.667 42 35.5 75.833 68.5 101.5s69.167 38.5 108.5 38.5c40 0 104.667 -12.667 194 -38c44 -12 77.667 -18 101 -18
c42.667 0 75.334 15 98.001 45z" />
    <glyph glyph-name="itilde" unicode="&#x129;" horiz-adv-x="614" 
d="M61 821l0.000976562 83c55.333 6.66699 101.833 16 139.5 28s80.5 31 128.5 57h73v-756c0 -51.333 1.66699 -82.333 5 -93c6 -20 18 -34.667 36 -44c14 -8 41.667 -12 83 -12h47v-84h-512v84h41c44.667 0 74.667 4 90 12s26.166 19.333 32.499 34s9.5 49 9.5 103v588
h-173zM571.001 1325c-11.333 -44 -36.168 -80.668 -74.501 -110.001s-81.166 -44 -128.499 -44c-15.333 0 -29.333 1.33301 -42 4s-42.667 11.334 -90 26.001c-72.667 22.667 -124.334 34 -155.001 34c-29.333 0 -56.333 -13.667 -81 -41l-59 20
c12.667 42 35.5 75.833 68.5 101.5s69.167 38.5 108.5 38.5c40 0 104.667 -12.667 194 -38c44 -12 77.667 -18 101 -18c42.667 0 75.334 15 98.001 45z" />
    <glyph glyph-name="Imacron" unicode="&#x12a;" horiz-adv-x="696" 
d="M81 1395l533.998 0.00195312v-85h-41c-38.667 0 -66.667 -5.33301 -84 -16s-30 -25.834 -38 -45.501s-12 -57.834 -12 -114.501v-899c0 -45.333 4.33301 -77.5 13 -96.5s20.834 -32.833 36.501 -41.5s43.834 -13 84.501 -13h41v-84h-534v84h44
c39.333 0 67.166 4.5 83.499 13.5s28.166 22 35.499 39s11 49.833 11 98.5v920c0 51.333 -3.66699 85.833 -11 103.5s-19.166 30.667 -35.499 39s-44.166 12.5 -83.499 12.5h-44v85zM650.998 1637v-103h-606v103h606z" />
    <glyph glyph-name="imacron" unicode="&#x12b;" horiz-adv-x="614" 
d="M61 821l0.000976562 83c55.333 6.66699 101.833 16 139.5 28s80.5 31 128.5 57h73v-756c0 -51.333 1.66699 -82.333 5 -93c6 -20 18 -34.667 36 -44c14 -8 41.667 -12 83 -12h47v-84h-512v84h41c44.667 0 74.667 4 90 12s26.166 19.333 32.499 34s9.5 49 9.5 103v588
h-173zM571.001 1305v-103h-606v103h606z" />
    <glyph glyph-name="Ibreve" unicode="&#x12c;" horiz-adv-x="696" 
d="M81 1395l533.998 0.00195312v-85h-41c-38.667 0 -66.667 -5.33301 -84 -16s-30 -25.834 -38 -45.501s-12 -57.834 -12 -114.501v-899c0 -45.333 4.33301 -77.5 13 -96.5s20.834 -32.833 36.501 -41.5s43.834 -13 84.501 -13h41v-84h-534v84h44
c39.333 0 67.166 4.5 83.499 13.5s28.166 22 35.499 39s11 49.833 11 98.5v920c0 51.333 -3.66699 85.833 -11 103.5s-19.166 30.667 -35.499 39s-44.166 12.5 -83.499 12.5h-44v85zM10.998 1702l48 38.001c85.333 -71.333 182.333 -107 291 -107
c53.333 0 106.666 10.333 159.999 31s96 46 128 76l46 -38c-30.667 -60.667 -77.167 -110.334 -139.5 -149.001s-129.166 -58 -200.499 -58c-48.667 0 -95 8.5 -139 25.5s-82.167 40.5 -114.5 70.5s-58.833 67 -79.5 111z" />
    <glyph glyph-name="ibreve" unicode="&#x12d;" horiz-adv-x="614" 
d="M61 821l0.000976562 83c55.333 6.66699 101.833 16 139.5 28s80.5 31 128.5 57h73v-756c0 -51.333 1.66699 -82.333 5 -93c6 -20 18 -34.667 36 -44c14 -8 41.667 -12 83 -12h47v-84h-512v84h41c44.667 0 74.667 4 90 12s26.166 19.333 32.499 34s9.5 49 9.5 103v588
h-173zM-68.999 1370l48 38.001c85.333 -71.333 182.333 -107 291 -107c53.333 0 106.666 10.333 159.999 31s96 46 128 76l46 -38c-30.667 -60.667 -77.167 -110.334 -139.5 -149.001s-129.166 -58 -200.499 -58c-48.667 0 -95 8.5 -139 25.5s-82.167 40.5 -114.5 70.5
s-58.833 67 -79.5 111z" />
    <glyph glyph-name="Iogonek" unicode="&#x12e;" horiz-adv-x="696" 
d="M81 1395l533.998 0.00195312v-85h-41c-38.667 0 -66.667 -5.33301 -84 -16s-30 -25.834 -38 -45.501s-12 -57.834 -12 -114.501v-899c0 -45.333 4.33301 -77.5 13 -96.5s20.834 -32.833 36.501 -41.5s43.834 -13 84.501 -13h41v-84h-534v84h44
c39.333 0 67.166 4.5 83.499 13.5s28.166 22 35.499 39s11 49.833 11 98.5v920c0 51.333 -3.66699 85.833 -11 103.5s-19.166 30.667 -35.499 39s-44.166 12.5 -83.499 12.5h-44v85zM387.998 0.00195312c-25.333 -18.667 -46.998 -42.333 -64.998 -71
c-12 -19.333 -18 -39 -18 -59c0 -24 8.33301 -44.167 25 -60.5s36.334 -24.5 59.001 -24.5c20.667 0 44.667 6.33301 72 19s53.666 31.334 78.999 56.001l33 -43c-46.667 -40.667 -84.334 -68 -113.001 -82c-43.333 -21.333 -83.333 -32 -120 -32
c-37.333 0 -68.5 13 -93.5 39s-37.5 57.667 -37.5 95c0 30 11 62 33 96c15.333 23.333 38.666 45.666 69.999 66.999h76z" />
    <glyph glyph-name="iogonek" unicode="&#x12f;" horiz-adv-x="614" 
d="M321 1440c32 0 59.333 -11.167 82 -33.5s34 -49.5 34 -81.5s-11.333 -59.333 -34 -82s-50 -34 -82 -34s-59.333 11.333 -82 34s-34 50 -34 82s11.333 59.167 34 81.5s50 33.5 82 33.5zM66 821l0.000976562 83c55.333 6.66699 101.833 16 139.5 28s80.5 31 128.5 57h73
v-802c0 -28 4 -49 12 -63s19.167 -24.167 33.5 -30.5s40.5 -9.5 78.5 -9.5h47v-84h-512v84h41c44.667 0 74.667 4 90 12s26.166 19.333 32.499 34s9.5 49 9.5 103v588h-173zM376.001 0c-25.333 -18.667 -46.998 -42.333 -64.998 -71c-12 -19.333 -18 -39 -18 -59
c0 -24 8.33301 -44.167 25 -60.5s36.334 -24.5 59.001 -24.5c20.667 0 44.667 6.33301 72 19s53.666 31.334 78.999 56.001l33 -43c-46.667 -40.667 -84.334 -68 -113.001 -82c-43.333 -21.333 -83.333 -32 -120 -32c-37.333 0 -68.5 13 -93.5 39s-37.5 57.667 -37.5 95
c0 30 11 62 33 96c15.333 23.333 38.666 45.666 69.999 66.999h76z" />
    </font>
</defs>
</svg>
